<svg width="1342" height="533" viewBox="0 0 1342 533" fill="none" xmlns="http://www.w3.org/2000/svg">
<path opacity="0.3" d="M1 0L1.00001 222" stroke="url(#paint0_linear_0_1)" stroke-width="1.5"/>
<path opacity="0.3" d="M641 -49L641 408" stroke="url(#paint1_linear_0_1)" stroke-width="1.5"/>
<path opacity="0.3" d="M810 -213L810 244" stroke="url(#paint2_linear_0_1)" stroke-width="1.5"/>
<path opacity="0.3" d="M1010 -93L1010 271" stroke="url(#paint3_linear_0_1)" stroke-width="1.5"/>
<path opacity="0.3" d="M1218 -185L1218 179" stroke="url(#paint4_linear_0_1)" stroke-width="1.5"/>
<path opacity="0.3" d="M531 -8L531 179" stroke="url(#paint5_linear_0_1)" stroke-width="1.5"/>
<path opacity="0.3" d="M323 -8L323 165" stroke="url(#paint6_linear_0_1)" stroke-width="1.5"/>
<path opacity="0.3" d="M1341 1L1341 533" stroke="url(#paint7_linear_0_1)" stroke-width="1.5"/>
<path opacity="0.3" d="M155 -8L155 423" stroke="url(#paint8_linear_0_1)" stroke-width="1.5"/>
<defs>
<linearGradient id="paint0_linear_0_1" x1="1.5" y1="-2.18557e-08" x2="1.50001" y2="222" gradientUnits="userSpaceOnUse">
<stop stop-color="#0081DE" stop-opacity="0"/>
<stop offset="1" stop-color="#0081DE"/>
</linearGradient>
<linearGradient id="paint1_linear_0_1" x1="641.5" y1="-49" x2="641.5" y2="408" gradientUnits="userSpaceOnUse">
<stop stop-color="#0081DE" stop-opacity="0"/>
<stop offset="1" stop-color="#0081DE"/>
</linearGradient>
<linearGradient id="paint2_linear_0_1" x1="810.5" y1="-213" x2="810.5" y2="244" gradientUnits="userSpaceOnUse">
<stop stop-color="#0081DE" stop-opacity="0"/>
<stop offset="1" stop-color="#0081DE"/>
</linearGradient>
<linearGradient id="paint3_linear_0_1" x1="1010.5" y1="-93" x2="1010.5" y2="271" gradientUnits="userSpaceOnUse">
<stop stop-color="#0081DE" stop-opacity="0"/>
<stop offset="1" stop-color="#0081DE"/>
</linearGradient>
<linearGradient id="paint4_linear_0_1" x1="1218.5" y1="-185" x2="1218.5" y2="179" gradientUnits="userSpaceOnUse">
<stop stop-color="#0081DE" stop-opacity="0"/>
<stop offset="1" stop-color="#0081DE"/>
</linearGradient>
<linearGradient id="paint5_linear_0_1" x1="531.5" y1="-8" x2="531.5" y2="179" gradientUnits="userSpaceOnUse">
<stop stop-color="#0081DE" stop-opacity="0"/>
<stop offset="1" stop-color="#0081DE"/>
</linearGradient>
<linearGradient id="paint6_linear_0_1" x1="323.5" y1="-8" x2="323.5" y2="165" gradientUnits="userSpaceOnUse">
<stop stop-color="#0081DE" stop-opacity="0"/>
<stop offset="1" stop-color="#0081DE"/>
</linearGradient>
<linearGradient id="paint7_linear_0_1" x1="1341.5" y1="1" x2="1341.5" y2="533" gradientUnits="userSpaceOnUse">
<stop stop-color="#0081DE" stop-opacity="0"/>
<stop offset="1" stop-color="#0081DE"/>
</linearGradient>
<linearGradient id="paint8_linear_0_1" x1="155.5" y1="-8" x2="155.5" y2="423" gradientUnits="userSpaceOnUse">
<stop stop-color="#0081DE" stop-opacity="0"/>
<stop offset="1" stop-color="#0081DE"/>
</linearGradient>
</defs>
</svg>
