<svg width="28" height="27" viewBox="0 0 28 27" fill="none" xmlns="http://www.w3.org/2000/svg">
<rect x="0.666504" width="26.6667" height="26.6667" rx="8" fill="#EBEBEB"/>
<path d="M19.0961 9.45378C19.6675 9.09632 20.095 8.53347 20.2989 7.87032C19.762 8.20369 19.1745 8.43852 18.562 8.56466C17.7127 7.62454 16.367 7.39576 15.277 8.00616C14.187 8.61655 13.6223 9.915 13.8987 11.176C11.6993 11.0604 9.65031 9.97331 8.26141 8.18514C7.53658 9.49341 7.90698 11.1658 9.10789 12.0071C8.67363 11.9924 8.249 11.8694 7.8694 11.6482C7.8694 11.6602 7.8694 11.6722 7.8694 11.6842C7.86966 13.047 8.78751 14.2209 10.064 14.491C9.6612 14.6056 9.23869 14.6225 8.82871 14.5403C9.1877 15.7058 10.2141 16.5042 11.3841 16.528C10.4151 17.3238 9.21847 17.7554 7.98669 17.7533C7.76836 17.7536 7.5502 17.7405 7.33334 17.7139C8.58419 18.555 10.04 19.0015 11.5269 18.9999C13.5954 19.0148 15.5834 18.1614 17.046 16.6307C18.5087 15.1 19.324 13.0197 19.3096 10.8551C19.3096 10.7311 19.3069 10.6077 19.3013 10.485C19.8371 10.0798 20.2994 9.57794 20.6667 9.00288C20.1676 9.23438 19.6382 9.38636 19.0961 9.45378Z" fill="#7A798A"/>
</svg>
