<svg width="27" height="27" viewBox="0 0 27 27" fill="none" xmlns="http://www.w3.org/2000/svg">
<rect x="0.333496" width="26.6667" height="26.6667" rx="8" fill="#EBEBEB"/>
<path d="M13.8062 12.2389V14.5578H17.0989C16.7924 16.0315 15.5096 16.8781 13.8062 16.8781C11.8222 16.8514 10.2281 15.2709 10.2281 13.3305C10.2281 11.39 11.8222 9.80956 13.8062 9.78286C14.6309 9.78189 15.4302 10.0618 16.0668 10.5744L17.8533 8.82732C15.804 7.06548 12.8112 6.83887 10.5091 8.27123C8.20692 9.7036 7.1487 12.4507 7.91224 15.0125C8.67579 17.5743 11.0776 19.3351 13.8062 19.3335C16.8755 19.3335 19.6666 17.1503 19.6666 13.3302C19.6619 12.9624 19.6158 12.5962 19.5292 12.2382L13.8062 12.2389Z" fill="#7A798A"/>
</svg>
