<svg width="106" height="106" viewBox="0 0 106 106" fill="none" xmlns="http://www.w3.org/2000/svg">
<g opacity="0.5" filter="url(#filter0_f_0_1)">
<circle cx="52.8251" cy="52.9999" r="29.371" fill="#0175C9"/>
</g>
<circle cx="52.371" cy="53.371" r="29.371" fill="#0175C9"/>
<path d="M45.6551 52.2525C45.6531 54.2352 46.3596 56.1547 47.6496 57.6712C48.9396 59.1877 50.7299 60.2035 52.7037 60.5387C54.6774 60.8739 56.7073 60.507 58.434 59.5028C60.1607 58.4986 61.473 56.922 62.1385 55.052H54.1378V49.453H68V55.052H67.9929C66.6824 61.4405 60.9777 66.2501 54.1378 66.2501C46.3295 66.2501 40 59.9834 40 52.2525C40 44.5216 46.3295 38.2549 54.1378 38.2549C56.4487 38.2533 58.7247 38.813 60.7661 39.8851C62.8076 40.9572 64.5521 42.5089 65.8468 44.404L61.2124 47.6165C60.2064 46.1109 58.7371 44.9664 57.0225 44.3525C55.3078 43.7386 53.439 43.688 51.693 44.2083C49.9471 44.7286 48.4169 45.792 47.3294 47.241C46.2418 48.6899 45.6547 50.4473 45.6551 52.2525Z" fill="white"/>
<defs>
<filter id="filter0_f_0_1" x="0.454102" y="0.628906" width="104.742" height="104.742" filterUnits="userSpaceOnUse" color-interpolation-filters="sRGB">
<feFlood flood-opacity="0" result="BackgroundImageFix"/>
<feBlend mode="normal" in="SourceGraphic" in2="BackgroundImageFix" result="shape"/>
<feGaussianBlur stdDeviation="11.5" result="effect1_foregroundBlur_0_1"/>
</filter>
</defs>
</svg>
