<svg width="105" height="106" viewBox="0 0 105 106" fill="none" xmlns="http://www.w3.org/2000/svg">
<g opacity="0.5" filter="url(#filter0_f_0_1)">
<circle cx="52.629" cy="52.9999" r="29.371" fill="#0175C9"/>
</g>
<circle cx="51.371" cy="53.371" r="29.371" fill="#0175C9"/>
<path d="M67 43.1293C65.8725 43.6099 64.6801 43.9276 63.46 44.0725C64.7473 43.3169 65.7119 42.1282 66.175 40.7269C64.9653 41.4344 63.6411 41.9329 62.26 42.2007C61.3368 41.2171 60.1075 40.5623 58.7647 40.3391C57.422 40.1159 56.0418 40.3369 54.8407 40.9674C53.6396 41.598 52.6854 42.6024 52.1279 43.8232C51.5703 45.044 51.4409 46.4121 51.76 47.7129C49.3141 47.5914 46.9217 46.9656 44.738 45.8763C42.5543 44.787 40.6283 43.2585 39.085 41.3901C38.5437 42.3189 38.2593 43.3707 38.26 44.441C38.2581 45.4349 38.5063 46.4139 38.9826 47.2907C39.4589 48.1676 40.1485 48.9151 40.99 49.4668C40.012 49.4406 39.0548 49.1828 38.2 48.7151V48.7888C38.2073 50.1814 38.704 51.5288 39.606 52.6031C40.508 53.6773 41.7599 54.4125 43.15 54.6842C42.6149 54.8442 42.0593 54.9285 41.5 54.9347C41.1128 54.9303 40.7266 54.8958 40.345 54.8316C40.7409 56.0295 41.5069 57.0764 42.5366 57.8266C43.5663 58.5768 44.8084 58.993 46.09 59.0173C43.9258 60.6905 41.2538 61.6036 38.5 61.6112C37.9986 61.6128 37.4976 61.5833 37 61.5228C39.8116 63.3065 43.0882 64.2534 46.435 64.2494C48.7445 64.2729 51.0357 63.8441 53.1747 62.9879C55.3136 62.1317 57.2575 60.8653 58.8928 59.2626C60.5281 57.66 61.8219 55.7533 62.6988 53.6538C63.5757 51.5544 64.0181 49.3043 64 47.0349V46.2538C65.177 45.3913 66.1922 44.334 67 43.1293Z" fill="white"/>
<defs>
<filter id="filter0_f_0_1" x="0.258057" y="0.628906" width="104.742" height="104.742" filterUnits="userSpaceOnUse" color-interpolation-filters="sRGB">
<feFlood flood-opacity="0" result="BackgroundImageFix"/>
<feBlend mode="normal" in="SourceGraphic" in2="BackgroundImageFix" result="shape"/>
<feGaussianBlur stdDeviation="11.5" result="effect1_foregroundBlur_0_1"/>
</filter>
</defs>
</svg>
