<svg width="22" height="22" viewBox="0 0 22 22" fill="none" xmlns="http://www.w3.org/2000/svg">
<path d="M14.6666 8.24998C14.6666 8.49309 14.5701 8.72625 14.3982 8.89816C14.2263 9.07007 13.9931 9.16665 13.75 9.16665C13.5069 9.16665 13.2737 9.07007 13.1018 8.89816C12.9299 8.72625 12.8333 8.49309 12.8333 8.24998C12.8333 8.00686 12.9299 7.77371 13.1018 7.6018C13.2737 7.42989 13.5069 7.33331 13.75 7.33331C13.9931 7.33331 14.2263 7.42989 14.3982 7.6018C14.5701 7.77371 14.6666 8.00686 14.6666 8.24998ZM9.16665 8.24998C9.16665 8.49309 9.07007 8.72625 8.89816 8.89816C8.72625 9.07007 8.49309 9.16665 8.24998 9.16665C8.00686 9.16665 7.77371 9.07007 7.6018 8.89816C7.42989 8.72625 7.33331 8.49309 7.33331 8.24998C7.33331 8.00686 7.42989 7.77371 7.6018 7.6018C7.77371 7.42989 8.00686 7.33331 8.24998 7.33331C8.49309 7.33331 8.72625 7.42989 8.89816 7.6018C9.07007 7.77371 9.16665 8.00686 9.16665 8.24998Z" fill="#0081DE"/>
<path fill-rule="evenodd" clip-rule="evenodd" d="M11 2.52081C10.453 2.52081 9.92837 2.73811 9.54158 3.12491C9.15479 3.5117 8.93749 4.0363 8.93749 4.58331V4.81615C9.32066 4.81248 9.73315 4.81248 10.1796 4.81248H11.8204C12.2668 4.81248 12.6802 4.81248 13.0625 4.81615V4.58331C13.0625 4.0363 12.8452 3.5117 12.4584 3.12491C12.0716 2.73811 11.547 2.52081 11 2.52081ZM14.4375 4.86473V4.58331C14.4375 3.67163 14.0753 2.79729 13.4307 2.15263C12.786 1.50798 11.9117 1.14581 11 1.14581C10.0883 1.14581 9.21397 1.50798 8.56931 2.15263C7.92465 2.79729 7.56249 3.67163 7.56249 4.58331V4.86473C7.43874 4.8739 7.31957 4.88398 7.20407 4.89681C6.39924 4.9839 5.72549 5.1654 5.12782 5.57515C4.92214 5.71599 4.72893 5.87424 4.55032 6.04815C4.03149 6.55415 3.72074 7.17931 3.47782 7.95115C3.24224 8.7019 3.05157 9.65523 2.8114 10.8533L2.79399 10.9404C2.44932 12.6665 2.17707 14.0268 2.09915 15.1103C2.01849 16.2176 2.13032 17.1481 2.65465 17.9556C2.82974 18.2251 3.03415 18.4736 3.26332 18.6981C3.95265 19.371 4.84366 19.6625 5.94457 19.8018C7.02257 19.9375 8.41041 19.9375 10.1704 19.9375H11.8296C13.5905 19.9375 14.9774 19.9375 16.0554 19.8018C17.1563 19.6625 18.0482 19.371 18.7367 18.6981C18.9663 18.4738 19.1704 18.2248 19.3453 17.9556C19.8697 17.149 19.9815 16.2176 19.9017 15.1103C19.8229 14.0268 19.5516 12.6665 19.2051 10.9404L19.1886 10.8533C18.9493 9.65523 18.7577 8.7019 18.5222 7.95115C18.2792 7.17931 17.9685 6.55415 17.4497 6.04815C17.2711 5.87423 17.0778 5.71598 16.8722 5.57515C16.2745 5.1654 15.6007 4.9839 14.7959 4.89681C14.6769 4.88407 14.5577 4.87338 14.4384 4.86473H14.4375ZM7.35166 6.26356C6.66691 6.3369 6.24432 6.47715 5.90515 6.70906C5.76441 6.80571 5.63222 6.91427 5.51007 7.03356C5.21582 7.32048 4.99674 7.70731 4.78957 8.36365C4.57874 9.03556 4.40091 9.91556 4.15249 11.1613C3.79499 12.947 3.54107 14.223 3.47049 15.2093C3.3999 16.1828 3.51815 16.7612 3.80782 17.2067C3.92699 17.3901 4.06724 17.5615 4.22399 17.7146C4.6044 18.0858 5.14799 18.315 6.11691 18.4378C7.09774 18.5616 8.39941 18.5625 10.2199 18.5625H11.781C13.6015 18.5625 14.9013 18.5616 15.8831 18.4378C16.852 18.315 17.3956 18.0858 17.776 17.7146C17.933 17.5611 18.0726 17.3908 18.1922 17.2067C18.4818 16.7612 18.6001 16.1828 18.5304 15.2084C18.4589 14.2221 18.205 12.947 17.8484 11.1613C17.5991 9.91556 17.4222 9.03465 17.2104 8.36365C17.0042 7.70731 16.7842 7.32048 16.4899 7.03356C16.3681 6.9143 16.2362 6.80574 16.0957 6.70906C15.7566 6.47715 15.3331 6.33781 14.6483 6.26356C13.9489 6.1884 13.0506 6.18748 11.7801 6.18748H10.2208C8.95032 6.18748 8.05199 6.1884 7.35166 6.26356Z" fill="#0081DE"/>
</svg>
