<svg width="16" height="19" viewBox="0 0 16 19" fill="none" xmlns="http://www.w3.org/2000/svg">
<g clip-path="url(#clip0_64_97)">
<path d="M6.76667 0.222656C6.70417 0.0890625 6.55833 0 6.39583 0H5.60417C5.44167 0 5.29167 0.0890625 5.23333 0.222656L4.37083 2.14121C4.2375 2.43809 3.7625 2.43809 3.62917 2.14121L2.76667 0.222656C2.70417 0.0890625 2.55833 0 2.39583 0H2C0.895833 0 0 0.797852 0 1.78125V9.5H16V1.78125C16 0.797852 15.1042 0 14 0H9.60417C9.44167 0 9.29167 0.0890625 9.23333 0.222656L8.37083 2.14121C8.2375 2.43809 7.7625 2.43809 7.62917 2.14121L6.76667 0.222656ZM0 10.6875V11.875C0 13.185 1.19583 14.25 2.66667 14.25H5.33333V16.625C5.33333 17.935 6.52917 19 8 19C9.47083 19 10.6667 17.935 10.6667 16.625V14.25H13.3333C14.8042 14.25 16 13.185 16 11.875V10.6875H0ZM8 16.0312C8.17681 16.0312 8.34638 16.0938 8.47141 16.2052C8.59643 16.3165 8.66667 16.4675 8.66667 16.625C8.66667 16.7825 8.59643 16.9335 8.47141 17.0448C8.34638 17.1562 8.17681 17.2188 8 17.2188C7.82319 17.2188 7.65362 17.1562 7.5286 17.0448C7.40357 16.9335 7.33333 16.7825 7.33333 16.625C7.33333 16.4675 7.40357 16.3165 7.5286 16.2052C7.65362 16.0938 7.82319 16.0312 8 16.0312Z" fill="#0081DE"/>
</g>
<defs>
<clipPath id="clip0_64_97">
<rect width="16" height="19" fill="white"/>
</clipPath>
</defs>
</svg>
