<svg width="88" height="88" viewBox="0 0 88 88" fill="none" xmlns="http://www.w3.org/2000/svg">
<circle cx="44" cy="44" r="43.5" stroke="white"/>
<path d="M22.3523 69.0205L23.2624 67.733L26.5409 70.0504L25.6309 71.3379L22.3523 69.0205Z" fill="white"/>
<path d="M15.8271 60.5454C15.6891 60.1939 15.6741 59.8588 15.7821 59.54C15.882 59.2197 16.0762 58.9601 16.3645 58.761C16.8041 58.4575 17.2456 58.3691 17.689 58.4958C18.1244 58.621 18.5297 58.9554 18.905 59.499L20.7209 62.1295L15.7009 65.5949L13.934 63.0353C13.5816 62.5248 13.4153 62.0463 13.4351 61.5999C13.455 61.1534 13.6776 60.7834 14.103 60.4897C14.3961 60.2874 14.6981 60.1941 15.0091 60.2097C15.312 60.2239 15.5847 60.3358 15.8271 60.5454ZM16.5713 62.6699L16.1503 62.0601C16.0524 61.9183 15.9523 61.8339 15.8499 61.8069C15.7442 61.7751 15.6323 61.8001 15.5141 61.8816C15.3912 61.9665 15.3259 62.0639 15.3181 62.174C15.3023 62.2826 15.3434 62.4078 15.4413 62.5496L15.8622 63.1594L16.5713 62.6699ZM17.8779 60.7105C17.78 60.5687 17.6822 60.4827 17.5845 60.4524C17.4788 60.4207 17.3645 60.4472 17.2416 60.532C17.0006 60.6985 16.9763 60.9211 17.1688 61.2L17.6632 61.9161L18.3722 61.4267L17.8779 60.7105Z" fill="white"/>
<path d="M10.3656 56.1099L13.6035 54.955C13.8686 54.8605 14.0593 54.7284 14.1756 54.5589C14.2847 54.3858 14.2929 54.1694 14.2003 53.9098C14.1076 53.6501 13.9634 53.485 13.7675 53.4146C13.5663 53.3462 13.3331 53.3592 13.068 53.4538L9.83013 54.6086L9.19047 52.8152L12.4283 51.6604C12.9748 51.4655 13.4832 51.4122 13.9538 51.5005C14.419 51.5907 14.8193 51.7985 15.155 52.124C15.4906 52.4494 15.7452 52.8556 15.9189 53.3425C16.0925 53.8294 16.1495 54.2969 16.0898 54.7451C16.0282 55.1879 15.843 55.5832 15.5341 55.9312C15.2253 56.2792 14.7949 56.5516 14.2431 56.7484L11.0052 57.9033L10.3656 56.1099Z" fill="white"/>
<path d="M7.87042 42.8888L12.2811 44.7263L14.1274 44.5764L14.2822 46.4828L12.4359 46.6327L8.37936 49.1576L8.20228 46.9764L10.2789 45.831L8.04472 45.0357L7.87042 42.8888Z" fill="white"/>
<path d="M12.2731 32.1588L13.7925 32.5797L12.7205 36.4489L11.2011 36.0279L12.2731 32.1588Z" fill="white"/>
<path d="M19.6562 26.3712C19.2359 26.9674 18.7499 27.3626 18.1982 27.557C17.6451 27.7433 17.0871 27.6626 16.5241 27.3149L17.6957 25.6531C17.9986 25.8315 18.2311 25.8057 18.3933 25.5757C18.4529 25.4912 18.4838 25.4075 18.4859 25.3247C18.4867 25.2339 18.4448 25.1587 18.3603 25.0991C18.243 25.0164 18.1044 25.0136 17.9446 25.0907C17.7802 25.1645 17.5567 25.3021 17.2741 25.5034C16.9364 25.7432 16.6391 25.9307 16.3822 26.0658C16.1286 26.1962 15.8455 26.2637 15.5331 26.2683C15.2206 26.2729 14.9041 26.1587 14.5835 25.9256C14.2596 25.6973 14.0429 25.4215 13.9334 25.0983C13.8225 24.7672 13.8093 24.417 13.8939 24.0479C13.9817 23.6741 14.153 23.3065 14.4079 22.945C14.8382 22.3348 15.3199 21.9505 15.8531 21.7923C16.3896 21.6295 16.9203 21.719 17.4452 22.061L16.2587 23.7439C16.1146 23.6493 15.9888 23.6134 15.8815 23.6361C15.7741 23.6588 15.6873 23.7171 15.6211 23.8109C15.5748 23.8767 15.5602 23.9472 15.5774 24.0225C15.5898 24.0946 15.6359 24.1587 15.7158 24.215C15.8284 24.2944 15.9653 24.2996 16.1265 24.2305C16.2863 24.1534 16.5138 24.0151 16.809 23.8156C17.1481 23.5839 17.4428 23.4051 17.6931 23.2794C17.9467 23.1489 18.2227 23.0765 18.5211 23.0619C18.8195 23.0474 19.1142 23.1428 19.4052 23.348C19.7104 23.5631 19.932 23.8318 20.0702 24.1541C20.2037 24.4732 20.2376 24.8238 20.1718 25.2062C20.1061 25.5885 19.9342 25.9768 19.6562 26.3712Z" fill="white"/>
<path d="M20.9703 18.022L21.4632 18.5867L22.8913 17.3404L23.8373 18.4245L22.4092 19.6708L22.9757 20.3199L24.5986 18.9037L25.6013 20.0527L22.5374 22.7265L18.5265 18.1307L21.5905 15.4568L22.5932 16.6057L20.9703 18.022Z" fill="white"/>
<path d="M29.0779 16.1761L30.7083 15.3152L31.3842 16.5952L28.0624 18.3492L25.2141 12.9551L26.9055 12.062L29.0779 16.1761Z" fill="white"/>
<path d="M35.498 13.6466L37.279 13.1697L37.6534 14.5679L34.0247 15.5394L32.4471 9.64706L34.2947 9.15239L35.498 13.6466Z" fill="white"/>
<path d="M48.4999 10.5814L48.3821 12.1537L44.3784 11.8539L44.4962 10.2816L48.4999 10.5814Z" fill="white"/>
<path d="M58.4564 14.4901C58.7555 14.7205 58.9408 15.0001 59.0123 15.329C59.0914 15.6551 59.0586 15.9776 58.9138 16.2967C58.693 16.7831 58.36 17.0861 57.9147 17.2057C57.4769 17.3224 56.9573 17.2443 56.3558 16.9713L53.4451 15.6503L55.966 10.0957L58.7982 11.381C59.3631 11.6374 59.7519 11.9621 59.9646 12.3551C60.1773 12.7481 60.1769 13.1799 59.9632 13.6506C59.8161 13.9749 59.6052 14.2104 59.3305 14.3569C59.0634 14.5007 58.772 14.545 58.4564 14.4901ZM56.725 13.0515L57.3997 13.3577C57.5566 13.4289 57.6859 13.4497 57.7876 13.4202C57.8946 13.393 57.9777 13.3141 58.037 13.1833C58.0988 13.0473 58.1046 12.9302 58.0547 12.8318C58.0123 12.7306 57.9126 12.6443 57.7557 12.5731L57.081 12.2669L56.725 13.0515ZM56.613 15.4039C56.7699 15.4751 56.898 15.4985 56.9974 15.4742C57.1043 15.4471 57.1886 15.3655 57.2504 15.2295C57.3714 14.9628 57.2776 14.7594 56.969 14.6193L56.1766 14.2597L55.8206 15.0443L56.613 15.4039Z" fill="white"/>
<path d="M65.4216 15.4826L63.2397 18.1391C63.0611 18.3566 62.9655 18.568 62.953 18.7732C62.9485 18.9777 63.0529 19.1675 63.2659 19.3425C63.479 19.5174 63.6876 19.5847 63.8917 19.5443C64.0995 19.4994 64.2928 19.3683 64.4714 19.1508L66.6533 16.4943L68.1247 17.7028L65.9428 20.3593C65.5746 20.8076 65.166 21.115 64.7171 21.2814C64.2718 21.4434 63.8216 21.4713 63.3663 21.3649C62.9111 21.2586 62.4837 21.0414 62.0842 20.7133C61.6848 20.3851 61.3953 20.0136 61.2159 19.5986C61.0408 19.1873 60.9962 18.753 61.0819 18.2956C61.1677 17.8383 61.3965 17.3833 61.7683 16.9306L63.9502 14.2741L65.4216 15.4826Z" fill="white"/>
<path d="M74.365 25.5346L69.6375 26.2289L68.1316 27.3076L67.0178 25.7526L68.5238 24.674L70.7025 20.4215L71.9769 22.2006L70.7857 24.2513L73.1107 23.7835L74.365 25.5346Z" fill="white"/>
<path d="M76.1117 37.0004L74.5923 37.4213L73.5203 33.5522L75.0397 33.1312L76.1117 37.0004Z" fill="white"/>
<path d="M72.7598 45.7623C72.8134 45.0348 73.0267 44.4458 73.3996 43.9952C73.7779 43.5508 74.298 43.3328 74.9597 43.3412L74.8103 45.3691C74.4587 45.372 74.2726 45.5138 74.252 45.7944C74.2444 45.8975 74.2609 45.9852 74.3017 46.0573C74.3478 46.1355 74.4224 46.1785 74.5255 46.1861C74.6687 46.1966 74.7889 46.1277 74.8863 45.9794C74.9893 45.8315 75.1101 45.5985 75.2488 45.2804C75.4149 44.901 75.5734 44.5873 75.7241 44.3392C75.8744 44.0969 76.0824 43.8933 76.3479 43.7286C76.6135 43.5639 76.9437 43.4989 77.3385 43.5338C77.7337 43.5629 78.0615 43.6878 78.3216 43.9086C78.5871 44.1355 78.7786 44.4289 78.8961 44.7889C79.0131 45.1546 79.0554 45.558 79.0229 45.999C78.9681 46.7437 78.7527 47.3211 78.377 47.7311C78.0008 48.1469 77.4997 48.3432 76.8736 48.3201L77.0249 46.2665C77.1971 46.2735 77.3235 46.2396 77.4038 46.1649C77.4842 46.0901 77.5286 45.9955 77.5371 45.8809C77.543 45.8007 77.5192 45.7328 77.4657 45.677C77.4179 45.6216 77.3454 45.5904 77.248 45.5832C77.1105 45.5731 76.9905 45.6391 76.8878 45.7813C76.7905 45.9296 76.6666 46.1653 76.5161 46.4882C76.3446 46.8615 76.1839 47.1664 76.0341 47.403C75.8837 47.6453 75.6844 47.8495 75.436 48.0155C75.1877 48.1815 74.8859 48.2514 74.5308 48.2253C74.1584 48.1978 73.8301 48.0815 73.5457 47.8763C73.2671 47.6714 73.0576 47.3882 72.9172 47.0265C72.7768 46.6649 72.7243 46.2434 72.7598 45.7623Z" fill="white"/>
<path d="M75.9296 53.5974L75.2164 53.3668L74.6333 55.1703L73.2642 54.7277L73.8473 52.9241L73.0275 52.6591L72.3649 54.7086L70.9139 54.2394L72.1649 50.37L77.969 52.2466L76.718 56.116L75.267 55.6468L75.9296 53.5974Z" fill="white"/>
<path d="M69.9279 59.3524L68.973 60.9296L67.7348 60.1799L69.6803 56.9665L74.8984 60.1258L73.9078 61.7619L69.9279 59.3524Z" fill="white"/>
<path d="M65.725 64.8251L64.4433 66.1505L63.4028 65.1443L66.0141 62.444L70.3991 66.6844L69.0695 68.0593L65.725 64.8251Z" fill="white"/>
<path d="M45.606 75.9166C45.231 75.873 44.9282 75.7286 44.6976 75.4834C44.462 75.2445 44.3242 74.9511 44.2841 74.603C44.2231 74.0723 44.3527 73.6411 44.673 73.3094C44.9883 72.9841 45.474 72.7836 46.1302 72.7082L49.3057 72.3429L50.0028 78.4028L46.9129 78.7583C46.2966 78.8292 45.7962 78.7508 45.4116 78.5234C45.0269 78.2959 44.8051 77.9253 44.746 77.4118C44.7053 77.058 44.765 76.7476 44.9251 76.4806C45.0801 76.2199 45.3071 76.0319 45.606 75.9166ZM47.8309 76.259L47.0948 76.3437C46.9236 76.3634 46.802 76.4121 46.73 76.4898C46.6523 76.5681 46.6216 76.6786 46.638 76.8212C46.6551 76.9696 46.7104 77.0731 46.8039 77.1317C46.8923 77.1967 47.0221 77.2193 47.1933 77.1996L47.9294 77.115L47.8309 76.259ZM46.7163 74.1844C46.5451 74.2041 46.4232 74.25 46.3505 74.3219C46.2728 74.4002 46.2425 74.5136 46.2596 74.6619C46.293 74.9529 46.4781 75.0791 46.8148 75.0404L47.6793 74.9409L47.5808 74.085L46.7163 74.1844Z" fill="white"/>
<path d="M39.123 78.6501L39.6267 75.2496C39.668 74.9711 39.6411 74.7407 39.5462 74.5583C39.4448 74.3807 39.2577 74.2717 38.985 74.2313C38.7123 74.1909 38.4988 74.2405 38.3445 74.3803C38.1894 74.5257 38.0913 74.7376 38.05 75.016L37.5463 78.4165L35.6628 78.1375L36.1665 74.737C36.2515 74.1631 36.4436 73.6893 36.7429 73.3156C37.0413 72.9475 37.413 72.6919 37.8581 72.5488C38.3032 72.4057 38.7814 72.3721 39.2927 72.4478C39.8041 72.5236 40.2435 72.6932 40.6109 72.9566C40.9727 73.2192 41.2344 73.5687 41.3963 74.0049C41.5581 74.4411 41.5961 74.949 41.5102 75.5286L41.0065 78.9291L39.123 78.6501Z" fill="white"/>
<path d="M26.282 74.6336L29.978 71.6055L30.7142 69.9057L32.4693 70.6657L31.7332 72.3656L32.0535 77.133L30.0453 76.2633L30.0113 73.892L28.2585 75.4896L26.282 74.6336Z" fill="white"/>
<path d="M42.7593 52.629L53.815 49.6667L50.8526 38.611M34.1851 38.3333L53.6187 49.5533" stroke="white" stroke-width="2.5" stroke-miterlimit="10" stroke-linecap="round" stroke-linejoin="round"/>
</svg>
