<svg width="8" height="8" viewBox="0 0 8 8" fill="none" xmlns="http://www.w3.org/2000/svg">
<path d="M4.00563 0C3.48108 0 2.96167 0.103459 2.47705 0.304468C1.99243 0.505478 1.55209 0.800103 1.18118 1.17152C0.432093 1.92163 0.0112587 2.939 0.0112587 3.99982C0.00776674 4.92344 0.32713 5.81916 0.913987 6.53171L0.115112 7.33168C0.0596874 7.38792 0.0221418 7.45935 0.00721318 7.53694C-0.00771543 7.61453 0.000641854 7.69482 0.0312305 7.76766C0.0644069 7.83962 0.11819 7.9001 0.185751 7.9414C0.253313 7.98271 0.331608 8.00298 0.410696 7.99965H4.00563C5.065 7.99965 6.08099 7.57824 6.83008 6.82812C7.57917 6.07801 8 5.06064 8 3.99982C8 2.939 7.57917 1.92163 6.83008 1.17152C6.08099 0.421409 5.065 0 4.00563 0ZM4.00563 7.19968H1.37334L1.74482 6.8277C1.81921 6.75276 1.86097 6.65138 1.86097 6.54571C1.86097 6.44004 1.81921 6.33866 1.74482 6.26372C1.22179 5.74056 0.896081 5.05199 0.823191 4.31533C0.7503 3.57866 0.934734 2.83948 1.34507 2.22371C1.75541 1.60794 2.36626 1.15369 3.07355 0.938348C3.78084 0.723003 4.54082 0.759888 5.224 1.04272C5.90718 1.32555 6.4713 1.83683 6.82024 2.48945C7.16918 3.14206 7.28136 3.89564 7.13767 4.6218C6.99397 5.34795 6.60329 6.00175 6.03219 6.47181C5.46109 6.94187 4.74489 7.1991 4.00563 7.19968Z" fill="white"/>
</svg>
