<svg width="208" height="5" viewBox="0 0 208 5" fill="none" xmlns="http://www.w3.org/2000/svg">
<path fill-rule="evenodd" clip-rule="evenodd" d="M4.33333 5H0V0H4.33333V5ZM21.6667 5H13V0H21.6667V5ZM39 5H30.3333V0H39V5ZM56.3333 5H47.6667V0H56.3333V5ZM73.6667 5H65V0H73.6667V5ZM91 5H82.3333V0H91V5ZM108.333 5H99.6667V0H108.333V5ZM125.667 5H117V0H125.667V5ZM143 5H134.333V0H143V5ZM160.333 5H151.667V0H160.333V5ZM177.667 5H169V0H177.667V5ZM195 5H186.333V0H195V5ZM208 5H203.667V0H208V5Z" fill="#0081DE"/>
</svg>
