<svg width="192" height="117" viewBox="0 0 192 117" fill="none" xmlns="http://www.w3.org/2000/svg">
<path d="M158 47.8333C158 48.3932 158.222 48.9302 158.618 49.3261C159.014 49.722 159.551 49.9444 160.111 49.9444C160.671 49.9444 161.208 49.722 161.604 49.3261C162 48.9302 162.222 48.3932 162.222 47.8333C162.222 47.2734 162 46.7364 161.604 46.3405C161.208 45.9446 160.671 45.7222 160.111 45.7222C159.551 45.7222 159.014 45.9446 158.618 46.3405C158.222 46.7364 158 47.2734 158 47.8333ZM172.778 35.1667C172.778 35.7266 173 36.2635 173.396 36.6594C173.792 37.0553 174.329 37.2778 174.889 37.2778C175.449 37.2778 175.986 37.0553 176.382 36.6594C176.778 36.2635 177 35.7266 177 35.1667C177 34.6068 176.778 34.0698 176.382 33.6739C175.986 33.278 175.449 33.0555 174.889 33.0555C174.329 33.0555 173.792 33.278 173.396 33.6739C173 34.0698 172.778 34.6068 172.778 35.1667Z" stroke="#545454" stroke-linecap="round" strokeLinejoin="round"/>
<path d="M174.889 37.2778V42.5556C174.889 43.9553 174.333 45.2977 173.343 46.2875C172.353 47.2773 171.011 47.8333 169.611 47.8333H166.444M166.444 47.8333L169.611 44.6667M166.444 47.8333L169.611 51M160.111 45.7222V40.4444C160.111 39.0447 160.667 37.7023 161.657 36.7125C162.647 35.7227 163.989 35.1667 165.389 35.1667H168.556M168.556 35.1667L165.389 32M168.556 35.1667L165.389 38.3333" stroke="#545454" stroke-linecap="round" strokeLinejoin="round"/>
<g filter="url(#filter0_d_203_25)">
<rect x="39" y="63" width="149" height="46" rx="11" fill="url(#paint0_linear_203_25)" shape-rendering="crispEdges"/>
</g>
<g filter="url(#filter1_d_203_25)">
<rect x="4" width="146" height="46" rx="11" fill="url(#paint1_linear_203_25)" shape-rendering="crispEdges"/>
</g>
<path d="M57.89 77.97V80.01H60.29V80.94H57.89V83.07H60.59V84H56.75V77.04H60.59V77.97H57.89ZM61.6141 81.22C61.6141 80.6667 61.7275 80.1767 61.9541 79.75C62.1875 79.3233 62.5008 78.9933 62.8941 78.76C63.2941 78.52 63.7375 78.4 64.2241 78.4C64.6508 78.4 65.0275 78.4867 65.3541 78.66C65.6875 78.8333 65.9441 79.0433 66.1241 79.29V78.49H67.2741V86.62H66.1241V83.2C65.9441 83.4467 65.6841 83.6567 65.3441 83.83C65.0041 84.0033 64.6175 84.09 64.1841 84.09C63.7108 84.09 63.2775 83.97 62.8841 83.73C62.4975 83.4833 62.1875 83.1433 61.9541 82.71C61.7275 82.27 61.6141 81.7733 61.6141 81.22ZM66.1241 81.24C66.1241 80.86 66.0441 80.53 65.8841 80.25C65.7308 79.97 65.5275 79.7567 65.2741 79.61C65.0208 79.4633 64.7475 79.39 64.4541 79.39C64.1608 79.39 63.8875 79.4633 63.6341 79.61C63.3808 79.75 63.1741 79.96 63.0141 80.24C62.8608 80.5133 62.7841 80.84 62.7841 81.22C62.7841 81.6 62.8608 81.9333 63.0141 82.22C63.1741 82.5067 63.3808 82.7267 63.6341 82.88C63.8941 83.0267 64.1675 83.1 64.4541 83.1C64.7475 83.1 65.0208 83.0267 65.2741 82.88C65.5275 82.7333 65.7308 82.52 65.8841 82.24C66.0441 81.9533 66.1241 81.62 66.1241 81.24ZM73.7615 78.49V84H72.6215V83.35C72.4415 83.5767 72.2048 83.7567 71.9115 83.89C71.6248 84.0167 71.3182 84.08 70.9915 84.08C70.5582 84.08 70.1682 83.99 69.8215 83.81C69.4815 83.63 69.2115 83.3633 69.0115 83.01C68.8182 82.6567 68.7215 82.23 68.7215 81.73V78.49H69.8515V81.56C69.8515 82.0533 69.9748 82.4333 70.2215 82.7C70.4682 82.96 70.8048 83.09 71.2315 83.09C71.6582 83.09 71.9948 82.96 72.2415 82.7C72.4948 82.4333 72.6215 82.0533 72.6215 81.56V78.49H73.7615ZM75.8456 77.76C75.639 77.76 75.4656 77.69 75.3256 77.55C75.1856 77.41 75.1156 77.2367 75.1156 77.03C75.1156 76.8233 75.1856 76.65 75.3256 76.51C75.4656 76.37 75.639 76.3 75.8456 76.3C76.0456 76.3 76.2156 76.37 76.3556 76.51C76.4956 76.65 76.5656 76.8233 76.5656 77.03C76.5656 77.2367 76.4956 77.41 76.3556 77.55C76.2156 77.69 76.0456 77.76 75.8456 77.76ZM76.4056 78.49V84H75.2656V78.49H76.4056ZM79.2323 79.42V82.47C79.2323 82.6767 79.279 82.8267 79.3723 82.92C79.4723 83.0067 79.639 83.05 79.8723 83.05H80.5723V84H79.6723C79.159 84 78.7657 83.88 78.4923 83.64C78.219 83.4 78.0823 83.01 78.0823 82.47V79.42H77.4323V78.49H78.0823V77.12H79.2323V78.49H80.5723V79.42H79.2323ZM86.583 78.49L83.203 86.59H82.023L83.143 83.91L80.973 78.49H82.243L83.793 82.69L85.403 78.49H86.583ZM92.331 84.07C91.8643 84.07 91.4443 83.99 91.071 83.83C90.6977 83.6633 90.4043 83.43 90.191 83.13C89.9777 82.83 89.871 82.48 89.871 82.08H91.091C91.1177 82.38 91.2343 82.6267 91.441 82.82C91.6543 83.0133 91.951 83.11 92.331 83.11C92.7243 83.11 93.031 83.0167 93.251 82.83C93.471 82.6367 93.581 82.39 93.581 82.09C93.581 81.8567 93.511 81.6667 93.371 81.52C93.2377 81.3733 93.0677 81.26 92.861 81.18C92.661 81.1 92.381 81.0133 92.021 80.92C91.5677 80.8 91.1977 80.68 90.911 80.56C90.631 80.4333 90.391 80.24 90.191 79.98C89.991 79.72 89.891 79.3733 89.891 78.94C89.891 78.54 89.991 78.19 90.191 77.89C90.391 77.59 90.671 77.36 91.031 77.2C91.391 77.04 91.8077 76.96 92.281 76.96C92.9543 76.96 93.5043 77.13 93.931 77.47C94.3643 77.8033 94.6043 78.2633 94.651 78.85H93.391C93.371 78.5967 93.251 78.38 93.031 78.2C92.811 78.02 92.521 77.93 92.161 77.93C91.8343 77.93 91.5677 78.0133 91.361 78.18C91.1543 78.3467 91.051 78.5867 91.051 78.9C91.051 79.1133 91.1143 79.29 91.241 79.43C91.3743 79.5633 91.541 79.67 91.741 79.75C91.941 79.83 92.2143 79.9167 92.561 80.01C93.021 80.1367 93.3943 80.2633 93.681 80.39C93.9743 80.5167 94.221 80.7133 94.421 80.98C94.6277 81.24 94.731 81.59 94.731 82.03C94.731 82.3833 94.6343 82.7167 94.441 83.03C94.2543 83.3433 93.9777 83.5967 93.611 83.79C93.251 83.9767 92.8243 84.07 92.331 84.07ZM97.2162 79.3C97.4095 79.0467 97.6728 78.8333 98.0062 78.66C98.3395 78.4867 98.7162 78.4 99.1362 78.4C99.6162 78.4 100.053 78.52 100.446 78.76C100.846 78.9933 101.16 79.3233 101.386 79.75C101.613 80.1767 101.726 80.6667 101.726 81.22C101.726 81.7733 101.613 82.27 101.386 82.71C101.16 83.1433 100.846 83.4833 100.446 83.73C100.053 83.97 99.6162 84.09 99.1362 84.09C98.7162 84.09 98.3428 84.0067 98.0162 83.84C97.6895 83.6667 97.4228 83.4533 97.2162 83.2V86.62H96.0762V78.49H97.2162V79.3ZM100.566 81.22C100.566 80.84 100.486 80.5133 100.326 80.24C100.173 79.96 99.9662 79.75 99.7062 79.61C99.4528 79.4633 99.1795 79.39 98.8862 79.39C98.5995 79.39 98.3262 79.4633 98.0662 79.61C97.8128 79.7567 97.6062 79.97 97.4462 80.25C97.2928 80.53 97.2162 80.86 97.2162 81.24C97.2162 81.62 97.2928 81.9533 97.4462 82.24C97.6062 82.52 97.8128 82.7333 98.0662 82.88C98.3262 83.0267 98.5995 83.1 98.8862 83.1C99.1795 83.1 99.4528 83.0267 99.7062 82.88C99.9662 82.7267 100.173 82.5067 100.326 82.22C100.486 81.9333 100.566 81.6 100.566 81.22ZM103.994 76.6V84H102.854V76.6H103.994ZM106.07 77.76C105.864 77.76 105.69 77.69 105.55 77.55C105.41 77.41 105.34 77.2367 105.34 77.03C105.34 76.8233 105.41 76.65 105.55 76.51C105.69 76.37 105.864 76.3 106.07 76.3C106.27 76.3 106.44 76.37 106.58 76.51C106.72 76.65 106.79 76.8233 106.79 77.03C106.79 77.2367 106.72 77.41 106.58 77.55C106.44 77.69 106.27 77.76 106.07 77.76ZM106.63 78.49V84H105.49V78.49H106.63ZM109.457 79.42V82.47C109.457 82.6767 109.504 82.8267 109.597 82.92C109.697 83.0067 109.864 83.05 110.097 83.05H110.797V84H109.897C109.384 84 108.99 83.88 108.717 83.64C108.444 83.4 108.307 83.01 108.307 82.47V79.42H107.657V78.49H108.307V77.12H109.457V78.49H110.797V79.42H109.457Z" fill="#2D405A"/>
<path d="M57.405 92.375V91.439H59.277V98H58.242V92.375H57.405ZM60.6865 94.634C60.6865 93.596 60.8605 92.786 61.2085 92.204C61.5625 91.616 62.1685 91.322 63.0265 91.322C63.8845 91.322 64.4875 91.616 64.8355 92.204C65.1895 92.786 65.3665 93.596 65.3665 94.634C65.3665 95.684 65.1895 96.506 64.8355 97.1C64.4875 97.688 63.8845 97.982 63.0265 97.982C62.1685 97.982 61.5625 97.688 61.2085 97.1C60.8605 96.506 60.6865 95.684 60.6865 94.634ZM64.3585 94.634C64.3585 94.148 64.3255 93.737 64.2595 93.401C64.1995 93.065 64.0735 92.792 63.8815 92.582C63.6895 92.366 63.4045 92.258 63.0265 92.258C62.6485 92.258 62.3635 92.366 62.1715 92.582C61.9795 92.792 61.8505 93.065 61.7845 93.401C61.7245 93.737 61.6945 94.148 61.6945 94.634C61.6945 95.138 61.7245 95.561 61.7845 95.903C61.8445 96.245 61.9705 96.521 62.1625 96.731C62.3605 96.941 62.6485 97.046 63.0265 97.046C63.4045 97.046 63.6895 96.941 63.8815 96.731C64.0795 96.521 64.2085 96.245 64.2685 95.903C64.3285 95.561 64.3585 95.138 64.3585 94.634ZM66.2901 93.023C66.2901 92.585 66.4161 92.243 66.6681 91.997C66.9261 91.745 67.2561 91.619 67.6581 91.619C68.0601 91.619 68.3871 91.745 68.6391 91.997C68.8971 92.243 69.0261 92.585 69.0261 93.023C69.0261 93.461 68.8971 93.806 68.6391 94.058C68.3871 94.31 68.0601 94.436 67.6581 94.436C67.2561 94.436 66.9261 94.31 66.6681 94.058C66.4161 93.806 66.2901 93.461 66.2901 93.023ZM71.7801 91.736L68.1891 98H67.1811L70.7721 91.736H71.7801ZM67.6581 92.24C67.2801 92.24 67.0911 92.501 67.0911 93.023C67.0911 93.551 67.2801 93.815 67.6581 93.815C67.8381 93.815 67.9761 93.752 68.0721 93.626C68.1741 93.494 68.2251 93.293 68.2251 93.023C68.2251 92.501 68.0361 92.24 67.6581 92.24ZM69.9531 96.704C69.9531 96.266 70.0791 95.924 70.3311 95.678C70.5891 95.426 70.9191 95.3 71.3211 95.3C71.7171 95.3 72.0411 95.426 72.2931 95.678C72.5511 95.924 72.6801 96.266 72.6801 96.704C72.6801 97.142 72.5511 97.487 72.2931 97.739C72.0411 97.991 71.7171 98.117 71.3211 98.117C70.9191 98.117 70.5891 97.991 70.3311 97.739C70.0791 97.487 69.9531 97.142 69.9531 96.704ZM71.3121 95.921C70.9341 95.921 70.7451 96.182 70.7451 96.704C70.7451 97.226 70.9341 97.487 71.3121 97.487C71.6901 97.487 71.8791 97.226 71.8791 96.704C71.8791 96.182 71.6901 95.921 71.3121 95.921Z" fill="#004D85"/>
<path d="M162.549 79.0938C163.808 81.3253 164.317 83.8821 164.006 86.4077C163.695 88.9332 162.579 91.3017 160.813 93.1829C159.047 95.064 156.72 96.364 154.156 96.9017C151.591 97.4394 148.918 97.1879 146.508 96.1822C144.099 95.1766 142.073 93.467 140.713 91.2918C139.353 89.1166 138.727 86.5843 138.922 84.0478C139.118 81.5113 140.125 79.0972 141.803 77.1419C143.481 75.1867 145.746 73.7879 148.283 73.1406" stroke="#004D85" stroke-opacity="0.46" stroke-width="10"/>
<g filter="url(#filter2_d_203_25)">
<path d="M156.161 73.6076C153.533 72.5914 150.63 72.4619 147.918 73.2389C147.891 73.2468 147.875 73.2749 147.884 73.3013V73.3013C147.892 73.3273 147.92 73.342 147.947 73.3342C150.637 72.5633 153.516 72.6917 156.123 73.6997C158.729 74.7077 160.909 76.5364 162.313 78.8908C162.327 78.9142 162.358 78.9223 162.382 78.9087V78.9087C162.407 78.895 162.416 78.8644 162.402 78.8407C160.986 76.4672 158.788 74.6238 156.161 73.6076Z" stroke="#004D85" stroke-width="10" shape-rendering="crispEdges"/>
</g>
<path d="M68.84 11.05V11.98H65.89V14.03H68.19V14.96H65.89V18H64.75V11.05H68.84ZM74.8865 12.49V18H73.7465V17.35C73.5665 17.5767 73.3298 17.7567 73.0365 17.89C72.7498 18.0167 72.4432 18.08 72.1165 18.08C71.6832 18.08 71.2932 17.99 70.9465 17.81C70.6065 17.63 70.3365 17.3633 70.1365 17.01C69.9432 16.6567 69.8465 16.23 69.8465 15.73V12.49H70.9765V15.56C70.9765 16.0533 71.0998 16.4333 71.3465 16.7C71.5932 16.96 71.9298 17.09 72.3565 17.09C72.7832 17.09 73.1198 16.96 73.3665 16.7C73.6198 16.4333 73.7465 16.0533 73.7465 15.56V12.49H74.8865ZM79.1706 12.4C79.604 12.4 79.9906 12.49 80.3306 12.67C80.6773 12.85 80.9473 13.1167 81.1406 13.47C81.334 13.8233 81.4306 14.25 81.4306 14.75V18H80.3006V14.92C80.3006 14.4267 80.1773 14.05 79.9306 13.79C79.684 13.5233 79.3473 13.39 78.9206 13.39C78.494 13.39 78.154 13.5233 77.9006 13.79C77.654 14.05 77.5306 14.4267 77.5306 14.92V18H76.3906V12.49H77.5306V13.12C77.7173 12.8933 77.954 12.7167 78.2406 12.59C78.534 12.4633 78.844 12.4 79.1706 12.4ZM82.5048 15.22C82.5048 14.6667 82.6181 14.1767 82.8448 13.75C83.0781 13.3233 83.3914 12.9933 83.7848 12.76C84.1848 12.52 84.6281 12.4 85.1148 12.4C85.4748 12.4 85.8281 12.48 86.1748 12.64C86.5281 12.7933 86.8081 13 87.0148 13.26V10.6H88.1648V18H87.0148V17.17C86.8281 17.4367 86.5681 17.6567 86.2348 17.83C85.9081 18.0033 85.5314 18.09 85.1048 18.09C84.6248 18.09 84.1848 17.97 83.7848 17.73C83.3914 17.4833 83.0781 17.1433 82.8448 16.71C82.6181 16.27 82.5048 15.7733 82.5048 15.22ZM87.0148 15.24C87.0148 14.86 86.9348 14.53 86.7748 14.25C86.6214 13.97 86.4181 13.7567 86.1648 13.61C85.9114 13.4633 85.6381 13.39 85.3448 13.39C85.0514 13.39 84.7781 13.4633 84.5248 13.61C84.2714 13.75 84.0648 13.96 83.9048 14.24C83.7514 14.5133 83.6748 14.84 83.6748 15.22C83.6748 15.6 83.7514 15.9333 83.9048 16.22C84.0648 16.5067 84.2714 16.7267 84.5248 16.88C84.7848 17.0267 85.0581 17.1 85.3448 17.1C85.6381 17.1 85.9114 17.0267 86.1648 16.88C86.4181 16.7333 86.6214 16.52 86.7748 16.24C86.9348 15.9533 87.0148 15.62 87.0148 15.24ZM96.4498 16.58H93.5398L93.0398 18H91.8498L94.3398 11.04H95.6598L98.1498 18H96.9498L96.4498 16.58ZM96.1298 15.65L94.9998 12.42L93.8598 15.65H96.1298ZM105.902 12.4C106.336 12.4 106.722 12.49 107.062 12.67C107.409 12.85 107.679 13.1167 107.872 13.47C108.072 13.8233 108.172 14.25 108.172 14.75V18H107.042V14.92C107.042 14.4267 106.919 14.05 106.672 13.79C106.426 13.5233 106.089 13.39 105.662 13.39C105.236 13.39 104.896 13.5233 104.642 13.79C104.396 14.05 104.272 14.4267 104.272 14.92V18H103.142V14.92C103.142 14.4267 103.019 14.05 102.772 13.79C102.526 13.5233 102.189 13.39 101.762 13.39C101.336 13.39 100.996 13.5233 100.742 13.79C100.496 14.05 100.372 14.4267 100.372 14.92V18H99.2324V12.49H100.372V13.12C100.559 12.8933 100.796 12.7167 101.082 12.59C101.369 12.4633 101.676 12.4 102.002 12.4C102.442 12.4 102.836 12.4933 103.182 12.68C103.529 12.8667 103.796 13.1367 103.982 13.49C104.149 13.1567 104.409 12.8933 104.762 12.7C105.116 12.5 105.496 12.4 105.902 12.4ZM112.013 18.09C111.493 18.09 111.023 17.9733 110.603 17.74C110.183 17.5 109.853 17.1667 109.613 16.74C109.373 16.3067 109.253 15.8067 109.253 15.24C109.253 14.68 109.376 14.1833 109.623 13.75C109.87 13.3167 110.206 12.9833 110.633 12.75C111.06 12.5167 111.536 12.4 112.063 12.4C112.59 12.4 113.066 12.5167 113.493 12.75C113.92 12.9833 114.256 13.3167 114.503 13.75C114.75 14.1833 114.873 14.68 114.873 15.24C114.873 15.8 114.746 16.2967 114.493 16.73C114.24 17.1633 113.893 17.5 113.453 17.74C113.02 17.9733 112.54 18.09 112.013 18.09ZM112.013 17.1C112.306 17.1 112.58 17.03 112.833 16.89C113.093 16.75 113.303 16.54 113.463 16.26C113.623 15.98 113.703 15.64 113.703 15.24C113.703 14.84 113.626 14.5033 113.473 14.23C113.32 13.95 113.116 13.74 112.863 13.6C112.61 13.46 112.336 13.39 112.043 13.39C111.75 13.39 111.476 13.46 111.223 13.6C110.976 13.74 110.78 13.95 110.633 14.23C110.486 14.5033 110.413 14.84 110.413 15.24C110.413 15.8333 110.563 16.2933 110.863 16.62C111.17 16.94 111.553 17.1 112.013 17.1ZM120.99 12.49V18H119.85V17.35C119.67 17.5767 119.433 17.7567 119.14 17.89C118.853 18.0167 118.547 18.08 118.22 18.08C117.787 18.08 117.397 17.99 117.05 17.81C116.71 17.63 116.44 17.3633 116.24 17.01C116.047 16.6567 115.95 16.23 115.95 15.73V12.49H117.08V15.56C117.08 16.0533 117.203 16.4333 117.45 16.7C117.697 16.96 118.033 17.09 118.46 17.09C118.887 17.09 119.223 16.96 119.47 16.7C119.723 16.4333 119.85 16.0533 119.85 15.56V12.49H120.99ZM125.274 12.4C125.707 12.4 126.094 12.49 126.434 12.67C126.781 12.85 127.051 13.1167 127.244 13.47C127.437 13.8233 127.534 14.25 127.534 14.75V18H126.404V14.92C126.404 14.4267 126.281 14.05 126.034 13.79C125.787 13.5233 125.451 13.39 125.024 13.39C124.597 13.39 124.257 13.5233 124.004 13.79C123.757 14.05 123.634 14.4267 123.634 14.92V18H122.494V12.49H123.634V13.12C123.821 12.8933 124.057 12.7167 124.344 12.59C124.637 12.4633 124.947 12.4 125.274 12.4ZM130.318 13.42V16.47C130.318 16.6767 130.365 16.8267 130.458 16.92C130.558 17.0067 130.725 17.05 130.958 17.05H131.658V18H130.758C130.245 18 129.852 17.88 129.578 17.64C129.305 17.4 129.168 17.01 129.168 16.47V13.42H128.518V12.49H129.168V11.12H130.318V12.49H131.658V13.42H130.318Z" fill="#2D405A"/>
<path d="M68.896 28.218C68.896 28.518 68.821 28.8 68.671 29.064C68.527 29.328 68.311 29.55 68.023 29.73C67.741 29.91 67.405 30.018 67.015 30.054V30.783H66.43V30.054C65.866 30 65.41 29.823 65.062 29.523C64.714 29.223 64.54 28.827 64.54 28.335H65.638C65.656 28.569 65.731 28.764 65.863 28.92C65.995 29.07 66.184 29.166 66.43 29.208V27.228C66.028 27.126 65.701 27.024 65.449 26.922C65.197 26.814 64.981 26.646 64.801 26.418C64.627 26.19 64.54 25.878 64.54 25.482C64.54 24.984 64.714 24.573 65.062 24.249C65.41 23.919 65.866 23.727 66.43 23.673V22.944H67.015V23.673C67.543 23.721 67.966 23.889 68.284 24.177C68.608 24.459 68.791 24.849 68.833 25.347H67.735C67.717 25.161 67.645 24.996 67.519 24.852C67.393 24.702 67.225 24.6 67.015 24.546V26.49C67.417 26.586 67.744 26.688 67.996 26.796C68.248 26.898 68.461 27.063 68.635 27.291C68.809 27.513 68.896 27.822 68.896 28.218ZM65.584 25.428C65.584 25.674 65.656 25.866 65.8 26.004C65.95 26.142 66.16 26.253 66.43 26.337V24.519C66.172 24.549 65.965 24.642 65.809 24.798C65.659 24.954 65.584 25.164 65.584 25.428ZM67.015 29.208C67.279 29.166 67.486 29.061 67.636 28.893C67.786 28.719 67.861 28.512 67.861 28.272C67.861 28.032 67.786 27.846 67.636 27.714C67.492 27.576 67.285 27.465 67.015 27.381V29.208ZM70.2585 24.375V23.439H72.1305V30H71.0955V24.375H70.2585ZM77.77 24.321H74.755V26.112C74.881 25.944 75.067 25.803 75.313 25.689C75.565 25.575 75.832 25.518 76.114 25.518C76.618 25.518 77.026 25.626 77.338 25.842C77.656 26.058 77.881 26.331 78.013 26.661C78.151 26.991 78.22 27.339 78.22 27.705C78.22 28.149 78.133 28.545 77.959 28.893C77.791 29.235 77.536 29.505 77.194 29.703C76.858 29.901 76.444 30 75.952 30C75.298 30 74.773 29.838 74.377 29.514C73.981 29.19 73.744 28.761 73.666 28.227H74.665C74.731 28.509 74.878 28.734 75.106 28.902C75.334 29.064 75.619 29.145 75.961 29.145C76.387 29.145 76.705 29.016 76.915 28.758C77.131 28.5 77.239 28.158 77.239 27.732C77.239 27.3 77.131 26.97 76.915 26.742C76.699 26.508 76.381 26.391 75.961 26.391C75.667 26.391 75.418 26.466 75.214 26.616C75.016 26.76 74.872 26.958 74.782 27.21H73.81V23.421H77.77V24.321ZM80.548 28.767L79.459 31.251H78.793L79.432 28.767H80.548ZM81.3095 26.634C81.3095 25.596 81.4835 24.786 81.8315 24.204C82.1855 23.616 82.7915 23.322 83.6495 23.322C84.5075 23.322 85.1105 23.616 85.4585 24.204C85.8125 24.786 85.9895 25.596 85.9895 26.634C85.9895 27.684 85.8125 28.506 85.4585 29.1C85.1105 29.688 84.5075 29.982 83.6495 29.982C82.7915 29.982 82.1855 29.688 81.8315 29.1C81.4835 28.506 81.3095 27.684 81.3095 26.634ZM84.9815 26.634C84.9815 26.148 84.9485 25.737 84.8825 25.401C84.8225 25.065 84.6965 24.792 84.5045 24.582C84.3125 24.366 84.0275 24.258 83.6495 24.258C83.2715 24.258 82.9865 24.366 82.7945 24.582C82.6025 24.792 82.4735 25.065 82.4075 25.401C82.3475 25.737 82.3175 26.148 82.3175 26.634C82.3175 27.138 82.3475 27.561 82.4075 27.903C82.4675 28.245 82.5935 28.521 82.7855 28.731C82.9835 28.941 83.2715 29.046 83.6495 29.046C84.0275 29.046 84.3125 28.941 84.5045 28.731C84.7025 28.521 84.8315 28.245 84.8915 27.903C84.9515 27.561 84.9815 27.138 84.9815 26.634ZM87.0752 26.634C87.0752 25.596 87.2492 24.786 87.5972 24.204C87.9512 23.616 88.5572 23.322 89.4152 23.322C90.2732 23.322 90.8762 23.616 91.2242 24.204C91.5782 24.786 91.7552 25.596 91.7552 26.634C91.7552 27.684 91.5782 28.506 91.2242 29.1C90.8762 29.688 90.2732 29.982 89.4152 29.982C88.5572 29.982 87.9512 29.688 87.5972 29.1C87.2492 28.506 87.0752 27.684 87.0752 26.634ZM90.7472 26.634C90.7472 26.148 90.7142 25.737 90.6482 25.401C90.5882 25.065 90.4622 24.792 90.2702 24.582C90.0782 24.366 89.7932 24.258 89.4152 24.258C89.0372 24.258 88.7522 24.366 88.5602 24.582C88.3682 24.792 88.2392 25.065 88.1732 25.401C88.1132 25.737 88.0832 26.148 88.0832 26.634C88.0832 27.138 88.1132 27.561 88.1732 27.903C88.2332 28.245 88.3592 28.521 88.5512 28.731C88.7492 28.941 89.0372 29.046 89.4152 29.046C89.7932 29.046 90.0782 28.941 90.2702 28.731C90.4682 28.521 90.5972 28.245 90.6572 27.903C90.7172 27.561 90.7472 27.138 90.7472 26.634ZM92.8408 26.634C92.8408 25.596 93.0148 24.786 93.3628 24.204C93.7168 23.616 94.3228 23.322 95.1808 23.322C96.0388 23.322 96.6418 23.616 96.9898 24.204C97.3438 24.786 97.5208 25.596 97.5208 26.634C97.5208 27.684 97.3438 28.506 96.9898 29.1C96.6418 29.688 96.0388 29.982 95.1808 29.982C94.3228 29.982 93.7168 29.688 93.3628 29.1C93.0148 28.506 92.8408 27.684 92.8408 26.634ZM96.5128 26.634C96.5128 26.148 96.4798 25.737 96.4138 25.401C96.3538 25.065 96.2278 24.792 96.0358 24.582C95.8438 24.366 95.5588 24.258 95.1808 24.258C94.8028 24.258 94.5178 24.366 94.3258 24.582C94.1338 24.792 94.0048 25.065 93.9388 25.401C93.8788 25.737 93.8488 26.148 93.8488 26.634C93.8488 27.138 93.8788 27.561 93.9388 27.903C93.9988 28.245 94.1248 28.521 94.3168 28.731C94.5148 28.941 94.8028 29.046 95.1808 29.046C95.5588 29.046 95.8438 28.941 96.0358 28.731C96.2338 28.521 96.3628 28.245 96.4228 27.903C96.4828 27.561 96.5128 27.138 96.5128 26.634Z" fill="#004D85"/>
<path d="M41.8324 20.4756C42.3653 22.9661 42.0834 25.5558 41.0259 27.8836C39.9684 30.2113 38.1881 32.1611 35.9332 33.4612C33.6783 34.7612 31.0611 35.3466 28.4467 35.1358C25.8322 34.925 23.3508 33.9284 21.3483 32.2851C19.3459 30.6418 17.9223 28.4336 17.2759 25.9685C16.6296 23.5034 16.7928 20.9041 17.7428 18.5332C18.6927 16.1622 20.3821 14.1378 22.5754 12.7421C24.7686 11.3464 27.3564 10.649 29.9779 10.7472" stroke="#004D85" stroke-opacity="0.46" stroke-width="10"/>
<g filter="url(#filter3_d_203_25)">
<path d="M32.219 11.0276C30.1339 10.5794 27.9659 10.6522 25.9184 11.2389C25.891 11.2468 25.8754 11.2749 25.8836 11.3013V11.3013C25.8916 11.3273 25.9197 11.342 25.9467 11.3343C27.9778 10.7521 30.1285 10.6798 32.1968 11.1244C34.2816 11.5726 36.2133 12.5311 37.8076 13.9085C39.402 15.2859 40.6058 17.0362 41.3044 18.9927C42.0029 20.9492 42.1729 23.0466 41.7981 25.0849C41.4234 27.1231 40.5163 29.0343 39.1635 30.6363C37.8106 32.2382 36.0571 33.4775 34.0701 34.2359C32.083 34.9943 29.9287 35.2466 27.8126 34.9687C25.7131 34.6929 23.7207 33.9045 22.0221 32.6777C21.9998 32.6615 21.9679 32.6661 21.951 32.688V32.688C21.934 32.7099 21.9384 32.7409 21.9608 32.7571C23.6733 33.994 25.6821 34.789 27.7989 35.067C29.9323 35.3471 32.1042 35.0928 34.1075 34.3282C36.1108 33.5636 37.8787 32.3142 39.2426 30.6991C40.6066 29.0841 41.521 27.1572 41.8989 25.1023C42.2767 23.0473 42.1053 20.9328 41.401 18.9603C40.6968 16.9878 39.4831 15.2231 37.8757 13.8344C36.2683 12.4457 34.3208 11.4794 32.219 11.0276Z" stroke="#004D85" stroke-width="10" shape-rendering="crispEdges"/>
</g>
<defs>
<filter id="filter0_d_203_25" x="35" y="63" width="157" height="54" filterUnits="userSpaceOnUse" color-interpolation-filters="sRGB">
<feFlood flood-opacity="0" result="BackgroundImageFix"/>
<feColorMatrix in="SourceAlpha" type="matrix" values="0 0 0 0 0 0 0 0 0 0 0 0 0 0 0 0 0 0 127 0" result="hardAlpha"/>
<feOffset dy="4"/>
<feGaussianBlur stdDeviation="2"/>
<feComposite in2="hardAlpha" operator="out"/>
<feColorMatrix type="matrix" values="0 0 0 0 0 0 0 0 0 0 0 0 0 0 0 0 0 0 0.25 0"/>
<feBlend mode="normal" in2="BackgroundImageFix" result="effect1_dropShadow_203_25"/>
<feBlend mode="normal" in="SourceGraphic" in2="effect1_dropShadow_203_25" result="shape"/>
</filter>
<filter id="filter1_d_203_25" x="0" y="0" width="154" height="54" filterUnits="userSpaceOnUse" color-interpolation-filters="sRGB">
<feFlood flood-opacity="0" result="BackgroundImageFix"/>
<feColorMatrix in="SourceAlpha" type="matrix" values="0 0 0 0 0 0 0 0 0 0 0 0 0 0 0 0 0 0 127 0" result="hardAlpha"/>
<feOffset dy="4"/>
<feGaussianBlur stdDeviation="2"/>
<feComposite in2="hardAlpha" operator="out"/>
<feColorMatrix type="matrix" values="0 0 0 0 0 0 0 0 0 0 0 0 0 0 0 0 0 0 0.25 0"/>
<feBlend mode="normal" in2="BackgroundImageFix" result="effect1_dropShadow_203_25"/>
<feBlend mode="normal" in="SourceGraphic" in2="effect1_dropShadow_203_25" result="shape"/>
</filter>
<filter id="filter2_d_203_25" x="138.814" y="67.8046" width="32.6612" height="24.0453" filterUnits="userSpaceOnUse" color-interpolation-filters="sRGB">
<feFlood flood-opacity="0" result="BackgroundImageFix"/>
<feColorMatrix in="SourceAlpha" type="matrix" values="0 0 0 0 0 0 0 0 0 0 0 0 0 0 0 0 0 0 127 0" result="hardAlpha"/>
<feOffset dy="4"/>
<feGaussianBlur stdDeviation="2"/>
<feComposite in2="hardAlpha" operator="out"/>
<feColorMatrix type="matrix" values="0 0 0 0 0 0 0 0 0 0 0 0 0 0 0 0 0 0 0.25 0"/>
<feBlend mode="normal" in2="BackgroundImageFix" result="effect1_dropShadow_203_25"/>
<feBlend mode="normal" in="SourceGraphic" in2="effect1_dropShadow_203_25" result="shape"/>
</filter>
<filter id="filter3_d_203_25" x="12.8747" y="5.80457" width="38.2856" height="42.3063" filterUnits="userSpaceOnUse" color-interpolation-filters="sRGB">
<feFlood flood-opacity="0" result="BackgroundImageFix"/>
<feColorMatrix in="SourceAlpha" type="matrix" values="0 0 0 0 0 0 0 0 0 0 0 0 0 0 0 0 0 0 127 0" result="hardAlpha"/>
<feOffset dy="4"/>
<feGaussianBlur stdDeviation="2"/>
<feComposite in2="hardAlpha" operator="out"/>
<feColorMatrix type="matrix" values="0 0 0 0 0 0 0 0 0 0 0 0 0 0 0 0 0 0 0.25 0"/>
<feBlend mode="normal" in2="BackgroundImageFix" result="effect1_dropShadow_203_25"/>
<feBlend mode="normal" in="SourceGraphic" in2="effect1_dropShadow_203_25" result="shape"/>
</filter>
<linearGradient id="paint0_linear_203_25" x1="113.5" y1="63" x2="113.5" y2="109" gradientUnits="userSpaceOnUse">
<stop stop-color="white"/>
<stop offset="1" stop-color="white" stop-opacity="0"/>
</linearGradient>
<linearGradient id="paint1_linear_203_25" x1="77" y1="0" x2="77" y2="46" gradientUnits="userSpaceOnUse">
<stop stop-color="white"/>
<stop offset="1" stop-color="white" stop-opacity="0"/>
</linearGradient>
</defs>
</svg>
