<svg width="154" height="99" viewBox="0 0 154 99" fill="none" xmlns="http://www.w3.org/2000/svg">
<g filter="url(#filter0_dd_0_1)">
<path d="M15.4375 34.75C15.6875 34.5 16 34.2917 16.375 34.125C16.9583 33.875 17.375 33.7917 17.625 33.875C17.875 33.9583 18.125 34.0625 18.375 34.1875C18.5 34.3125 18.5417 34.4583 18.5 34.625C18.4583 34.75 18.4792 34.8958 18.5625 35.0625C18.3542 35.1875 18.2917 35.3542 18.375 35.5625C18.4583 35.7708 18.5 35.9792 18.5 36.1875C18.5833 36.8125 18.7292 37.1667 18.9375 37.25C18.9375 37.7083 19.1667 38 19.625 38.125C19.7083 38.375 19.875 38.5417 20.125 38.625C20.4167 38.6667 20.6458 38.7708 20.8125 38.9375C21.1875 39.0208 21.3958 39.0625 21.4375 39.0625C21.4792 39.0625 21.5 39.1042 21.5 39.1875C21.875 39.3125 22.125 39.375 22.25 39.375C23 39.75 23.5208 39.9792 23.8125 40.0625C24.3542 40.1042 24.7083 40.1667 24.875 40.25C25.0833 40.2917 25.2917 40.3333 25.5 40.375C25.9167 40.4167 26.2083 40.4375 26.375 40.4375C26.5417 40.3958 26.7292 40.375 26.9375 40.375C27.3542 40.375 27.7083 40.375 28 40.375C28.2917 40.375 28.5625 40.3542 28.8125 40.3125C29.3542 40.1875 29.75 40.1667 30 40.25C30.25 40.2917 30.5 40.2708 30.75 40.1875C31 40.0208 31.1458 39.9375 31.1875 39.9375C31.2292 39.9375 31.2917 39.9167 31.375 39.875C31.5833 39.7917 31.8333 39.7292 32.125 39.6875C32.4583 39.6042 32.7292 39.5 32.9375 39.375C32.9792 39 33 38.7917 33 38.75C33 38.7083 32.9583 38.6458 32.875 38.5625C32.9167 38.3542 32.9375 38.1042 32.9375 37.8125C32.9792 37.5208 33 37.2708 33 37.0625C33.0833 36.3958 33.0625 35.9375 32.9375 35.6875C33.0625 35.3125 33.1042 35.1042 33.0625 35.0625C33.0208 35.0208 33 34.9583 33 34.875C33.125 34.4167 33.1667 34.1458 33.125 34.0625C33.0833 33.9375 33.0417 33.8333 33 33.75C33.0417 33.4167 33.0625 33.0833 33.0625 32.75C33.1042 32.4167 33.1667 32.0833 33.25 31.75C33.1667 31.3333 33.125 31.0833 33.125 31C33.1667 30.9167 33.2292 30.8333 33.3125 30.75C33.1458 30.4583 33.1042 30.1667 33.1875 29.875C33.2708 29.5417 33.3542 29.2292 33.4375 28.9375C33.4375 28.3958 33.4583 28 33.5 27.75C33.5833 27.5 33.6667 27.2708 33.75 27.0625C33.75 26.5625 33.75 26.25 33.75 26.125C33.75 25.9583 33.7708 25.7917 33.8125 25.625C33.9375 25.3333 33.9792 25.1667 33.9375 25.125C33.8958 25.0417 33.875 24.9583 33.875 24.875C34 24.625 34.0417 24.4792 34 24.4375C33.9583 24.3542 33.9375 24.2708 33.9375 24.1875C33.9375 24.0625 33.9583 23.9167 34 23.75C34.0833 23.5833 34.125 23.4167 34.125 23.25C34.0833 22.875 34.1042 22.6042 34.1875 22.4375C34.3125 22.2292 34.3125 22.0208 34.1875 21.8125C34.2292 21.3125 34.4167 20.9583 34.75 20.75C34.75 20.25 34.7708 19.8958 34.8125 19.6875C34.9375 19.4375 35 19.25 35 19.125C35 19 35.0208 18.8958 35.0625 18.8125C35.1875 18.1875 35.2917 17.7917 35.375 17.625C35.4583 17.4583 35.4583 17.2917 35.375 17.125C35.4583 17 35.5417 16.8333 35.625 16.625C35.75 16.4167 35.75 16.2292 35.625 16.0625C36 15.4792 36.1875 15.0625 36.1875 14.8125C36.2292 14.5625 36.3125 14.3333 36.4375 14.125C36.7292 13.7083 36.875 13.25 36.875 12.75C36.9583 12.3333 37.0417 12.0625 37.125 11.9375C37.25 11.8125 37.2292 11.6667 37.0625 11.5C37.3958 11.125 37.5625 10.875 37.5625 10.75C37.5625 10.5833 37.5833 10.4375 37.625 10.3125C37.8333 9.97917 37.9167 9.79167 37.875 9.75C37.875 9.66667 37.8958 9.58333 37.9375 9.5C38.1042 9.125 38.3125 8.85417 38.5625 8.6875C38.5208 8.52083 38.5208 8.41667 38.5625 8.375C38.6458 8.29167 38.6667 8.14583 38.625 7.9375C38.9583 7.64583 39.1667 7.47917 39.25 7.4375C39.3333 7.35417 39.3958 7.27083 39.4375 7.1875C39.7292 6.8125 39.875 6.60417 39.875 6.5625C40.25 6.1875 40.4167 5.95833 40.375 5.875C40.375 5.79167 40.4375 5.66667 40.5625 5.5C40.8958 5.25 41.1667 4.95833 41.375 4.625C41.5833 4.58333 41.7292 4.52083 41.8125 4.4375C41.9375 4.35417 42.0417 4.25 42.125 4.125C42.2083 3.79167 42.3125 3.58333 42.4375 3.5C42.7708 3.45833 42.9375 3.41667 42.9375 3.375C42.9375 3.29167 42.9792 3.22917 43.0625 3.1875C43.3958 3.02083 43.6042 2.91667 43.6875 2.875C43.8125 2.83333 43.9375 2.77083 44.0625 2.6875C44.5208 2.39583 44.7917 2.22917 44.875 2.1875C45 2.10417 45.125 2.02083 45.25 1.9375C45.375 1.89583 45.4792 1.85417 45.5625 1.8125C45.6458 1.72917 45.75 1.66667 45.875 1.625C46.5417 1.375 47.0833 1.14583 47.5 0.9375C47.7917 0.8125 47.9583 0.770833 48 0.8125C48.0833 0.8125 48.1458 0.791667 48.1875 0.75C48.6458 0.666667 48.9375 0.5625 49.0625 0.4375C49.3542 0.520833 49.5625 0.5625 49.6875 0.5625C49.8542 0.520833 50.0625 0.479167 50.3125 0.4375C50.4375 0.395833 50.5417 0.395833 50.625 0.4375C50.7083 0.4375 50.875 0.4375 51.125 0.4375C51.25 0.479167 51.375 0.5 51.5 0.5C51.625 0.458333 51.7292 0.4375 51.8125 0.4375C52.2292 0.5625 52.4583 0.645833 52.5 0.6875C52.5833 0.6875 52.7917 0.75 53.125 0.875C53.5417 0.875 53.7708 0.895833 53.8125 0.9375C53.8958 0.9375 54.0417 0.916667 54.25 0.875C54.3333 0.958333 54.4375 1.04167 54.5625 1.125C54.6875 1.20833 54.8125 1.29167 54.9375 1.375C55.3542 1.58333 55.6042 1.8125 55.6875 2.0625C55.8125 2.27083 56.1042 2.4375 56.5625 2.5625C56.5625 2.6875 56.6042 2.79167 56.6875 2.875C56.8125 2.95833 56.9167 3.04167 57 3.125C57.4167 3.375 57.625 3.52083 57.625 3.5625C57.625 3.60417 57.6667 3.66667 57.75 3.75C57.9583 4.125 58.1042 4.3125 58.1875 4.3125C58.2708 4.3125 58.3542 4.33333 58.4375 4.375C58.5208 4.70833 58.625 4.97917 58.75 5.1875C58.9167 5.39583 58.9792 5.66667 58.9375 6C59.1875 6.29167 59.3125 6.5 59.3125 6.625C59.3542 6.75 59.4375 6.83333 59.5625 6.875C59.6458 7.29167 59.6458 7.625 59.5625 7.875C59.4792 8.125 59.5208 8.35417 59.6875 8.5625C59.6042 8.72917 59.5625 8.85417 59.5625 8.9375C59.5625 9.02083 59.5417 9.125 59.5 9.25C59.625 9.79167 59.6458 10.1042 59.5625 10.1875C59.4792 10.2292 59.3958 10.3125 59.3125 10.4375C59.3958 11.0208 59.5208 11.4375 59.6875 11.6875C59.6042 11.8542 59.5208 12 59.4375 12.125C59.3958 12.25 59.4167 12.375 59.5 12.5C59.375 12.75 59.2708 13.0208 59.1875 13.3125C59.1042 13.5625 59.1042 13.8333 59.1875 14.125C58.9792 14.2083 58.8542 14.375 58.8125 14.625C58.8125 14.8333 58.7083 15 58.5 15.125C58.5417 15.3333 58.5208 15.4792 58.4375 15.5625C58.3958 15.6458 58.3958 15.7708 58.4375 15.9375C58.2708 16.4375 58.1667 16.7708 58.125 16.9375C58.0833 17.0625 58 17.1667 57.875 17.25C57.7083 17.625 57.6667 17.875 57.75 18C57.8333 18.125 57.8542 18.2292 57.8125 18.3125C57.4375 18.8542 57.2083 19.3958 57.125 19.9375C56.8333 20.2708 56.6875 20.4583 56.6875 20.5C56.6875 20.5 56.6875 20.5833 56.6875 20.75C56.6042 20.875 56.5208 21 56.4375 21.125C56.3958 21.2083 56.3333 21.3125 56.25 21.4375C56.1667 21.5208 56.1042 21.625 56.0625 21.75C56.0208 21.875 55.8958 21.9583 55.6875 22C55.6458 22.2083 55.5 22.4375 55.25 22.6875C55.2083 22.9375 55.1875 23.125 55.1875 23.25C55.1875 23.375 55.125 23.4167 55 23.375C54.9583 23.9167 54.8958 24.2292 54.8125 24.3125C54.7708 24.3542 54.75 24.4375 54.75 24.5625C54.5 24.6875 54.3333 24.9167 54.25 25.25C53.9583 25.4167 53.7292 25.6458 53.5625 25.9375C53.4375 26.1875 53.25 26.3958 53 26.5625C52.8333 27.1042 52.6458 27.3958 52.4375 27.4375C52.3542 27.5625 52.25 27.6875 52.125 27.8125C52.0417 27.8958 52.0208 28.0417 52.0625 28.25C51.8958 28.25 51.7917 28.3125 51.75 28.4375C51.7083 28.5208 51.6458 28.625 51.5625 28.75C51.4792 28.8333 51.375 28.9375 51.25 29.0625C51.1667 29.1875 51.0417 29.2708 50.875 29.3125C50.8333 29.6042 50.75 29.7708 50.625 29.8125C50.5 29.8542 50.3958 29.9167 50.3125 30C50.3125 30.2083 50.25 30.3542 50.125 30.4375C50 30.5208 49.9167 30.6667 49.875 30.875C49.5417 31 49.25 31.1458 49 31.3125C48.75 31.4792 48.5 31.6667 48.25 31.875C48 32.3333 47.7708 32.625 47.5625 32.75C47.3542 32.875 47.2083 33.0417 47.125 33.25C46.625 33.625 46.2708 33.8542 46.0625 33.9375C45.8542 34.0208 45.7083 34.2083 45.625 34.5C45.125 34.625 44.8542 34.7292 44.8125 34.8125C44.8125 34.8958 44.7708 34.9792 44.6875 35.0625C44.4375 35.1458 44.2292 35.25 44.0625 35.375C43.9375 35.5 43.7917 35.6458 43.625 35.8125C43.4167 35.8542 43.25 35.9375 43.125 36.0625C43 36.1458 42.8958 36.2292 42.8125 36.3125C42.3542 36.3958 42.1042 36.5625 42.0625 36.8125C41.7708 36.8542 41.5417 36.9375 41.375 37.0625C41.25 37.1875 41.1042 37.3125 40.9375 37.4375C40.3542 37.4792 39.9375 37.7083 39.6875 38.125C39.2708 38.25 38.9583 38.4167 38.75 38.625C38.3333 38.7917 38.0208 38.9583 37.8125 39.125C37.6042 39.25 37.3333 39.3542 37 39.4375C37.0833 39.8125 37.0833 40.0625 37 40.1875C36.9583 40.3125 36.9167 40.4375 36.875 40.5625C36.8333 40.7708 36.8125 40.9583 36.8125 41.125C36.8542 41.2917 36.8333 41.4583 36.75 41.625C36.75 42.0833 36.6875 42.3125 36.5625 42.3125C36.4792 42.3125 36.4375 42.3542 36.4375 42.4375C36.5625 42.8542 36.5833 43.125 36.5 43.25C36.4583 43.3333 36.3958 43.4167 36.3125 43.5C36.3125 43.6667 36.3542 43.8125 36.4375 43.9375C36.5208 44.0625 36.5208 44.2083 36.4375 44.375C36.3125 44.625 36.2708 44.8333 36.3125 45C36.3958 45.125 36.375 45.25 36.25 45.375C36.2917 45.9583 36.2708 46.3333 36.1875 46.5C36.1042 46.625 36.0417 46.7708 36 46.9375C36.1667 47.2292 36.1875 47.4375 36.0625 47.5625C35.9792 47.6458 35.9375 47.7292 35.9375 47.8125C35.8125 48.1458 35.75 48.4167 35.75 48.625C35.7917 48.8333 35.7708 49.0417 35.6875 49.25C35.5625 49.75 35.4375 50.0625 35.3125 50.1875C35.1875 50.6875 35.1042 51 35.0625 51.125C35.0625 51.25 35.1042 51.3125 35.1875 51.3125C34.9792 51.3958 34.875 51.5417 34.875 51.75C34.875 51.9167 34.7917 52.0625 34.625 52.1875C34.625 52.4792 34.6042 52.6667 34.5625 52.75C34.5208 52.7917 34.4583 52.8542 34.375 52.9375C34.4167 53.2708 34.3958 53.4583 34.3125 53.5C34.2292 53.5 34.1458 53.5208 34.0625 53.5625C33.9375 54.0625 33.8333 54.3333 33.75 54.375C33.6667 54.4167 33.5833 54.4792 33.5 54.5625C33.5833 54.8125 33.5625 55.0417 33.4375 55.25C33.3125 55.4583 33.3125 55.6875 33.4375 55.9375C33.2708 56.0208 33.1667 56.1458 33.125 56.3125C33.125 56.5208 33.0417 56.6667 32.875 56.75C32.9583 57.0833 32.9167 57.3333 32.75 57.5C32.5833 57.6667 32.4583 57.8542 32.375 58.0625C32.5833 58.1042 32.5833 58.1875 32.375 58.3125C32.2083 58.4375 32.1458 58.6042 32.1875 58.8125C32.2292 59.3125 32.3125 59.5625 32.4375 59.5625C32.6875 59.8542 32.7917 60.0208 32.75 60.0625C32.75 60.1042 32.7708 60.1458 32.8125 60.1875C32.9375 60.2708 33.0625 60.375 33.1875 60.5C33.3125 60.625 33.4167 60.7708 33.5 60.9375C33.8333 61.3542 34 61.5625 34 61.5625C34.3333 61.9792 34.5208 62.1875 34.5625 62.1875C34.6875 62.3125 34.875 62.4167 35.125 62.5C35.375 62.625 35.5833 62.75 35.75 62.875C35.75 63.2917 35.9167 63.5417 36.25 63.625C36.25 63.8333 36.3333 63.9792 36.5 64.0625C36.6667 64.1875 36.8125 64.2917 36.9375 64.375C37.0625 64.5833 37.2083 64.7708 37.375 64.9375C37.4167 64.9792 37.4583 65.0417 37.5 65.125C37.5833 65.25 37.6458 65.3958 37.6875 65.5625C37.8958 65.7292 38.0833 65.8958 38.25 66.0625C38.4583 66.2708 38.6042 66.5 38.6875 66.75C39.1458 67.2083 39.4375 67.4792 39.5625 67.5625C39.6458 67.6458 39.7083 67.75 39.75 67.875C39.7917 68 39.9167 68.0625 40.125 68.0625C40.0833 68.1875 40.1042 68.2917 40.1875 68.375C40.3125 68.4583 40.4167 68.5833 40.5 68.75C40.625 68.9167 40.7292 69.0625 40.8125 69.1875C40.9375 69.3542 41.1458 69.4792 41.4375 69.5625C41.6458 69.9375 41.8125 70.1458 41.9375 70.1875C42.1042 70.5625 42.1875 70.7708 42.1875 70.8125C42.2292 70.8542 42.2708 70.8958 42.3125 70.9375C42.6042 71.2292 42.7708 71.4167 42.8125 71.5C42.8958 71.5833 43 71.6042 43.125 71.5625C43.375 71.7708 43.5208 71.9167 43.5625 72C43.6042 72.0833 43.7083 72.1042 43.875 72.0625C44.1667 72.6042 44.4583 72.875 44.75 72.875C45 73.1667 45.2083 73.3542 45.375 73.4375C45.5417 73.5625 45.7708 73.6458 46.0625 73.6875C46.1042 73.9792 46.4167 74.125 47 74.125C47.0833 74.3333 47.2292 74.4792 47.4375 74.5625C47.6875 74.6458 47.9167 74.75 48.125 74.875C48.625 74.875 48.875 74.9375 48.875 75.0625C49.0417 75.0208 49.1667 75.0417 49.25 75.125C49.375 75.2083 49.5 75.25 49.625 75.25C49.8333 75.3333 50.0417 75.3542 50.25 75.3125C50.4583 75.3125 50.6667 75.3542 50.875 75.4375C51.5833 75.3958 52.125 75.375 52.5 75.375C52.875 75.375 53.2083 75.2708 53.5 75.0625C53.75 75.0625 53.9792 75.0208 54.1875 74.9375C54.4375 74.8958 54.625 74.7708 54.75 74.5625C55.0417 74.5208 55.25 74.4792 55.375 74.4375C55.5417 74.4375 55.6875 74.3958 55.8125 74.3125C56.5625 73.9375 57.0625 73.5833 57.3125 73.25C57.5208 73.2917 57.6667 73.2708 57.75 73.1875C57.8333 73.1458 57.9167 73.125 58 73.125C58 73.5417 57.9583 73.7292 57.875 73.6875C57.8333 73.6875 57.7708 73.7292 57.6875 73.8125C57.3125 74.1458 57.0208 74.3542 56.8125 74.4375C56.6458 74.5625 56.4167 74.6458 56.125 74.6875C56.0417 74.8125 55.9583 74.9167 55.875 75C55.8333 75.125 55.7292 75.2083 55.5625 75.25C55.6042 75.4583 55.5625 75.5833 55.4375 75.625C55.3542 75.7083 55.2708 75.8125 55.1875 75.9375C54.7708 75.9375 54.5208 76.0208 54.4375 76.1875C53.8958 76.2708 53.5417 76.3125 53.375 76.3125C53.1667 76.3542 53 76.4167 52.875 76.5C52.7917 76.5833 52.6875 76.6875 52.5625 76.8125C51.9792 77.0208 51.5417 77.0833 51.25 77C51 76.9167 50.7083 76.9375 50.375 77.0625C50.1667 76.9792 49.9792 76.9792 49.8125 77.0625C49.6458 77.1458 49.4583 77.2083 49.25 77.25C48.8333 77.2083 48.6042 77.1458 48.5625 77.0625C48.5625 77.0208 48.5208 76.9583 48.4375 76.875C48.0208 76.9167 47.7708 76.9583 47.6875 77C47.6458 77.0833 47.5417 77.125 47.375 77.125C46.875 77.0833 46.5417 77 46.375 76.875C46.25 76.75 46.125 76.7917 46 77C45.5833 76.9167 45.25 76.7917 45 76.625C44.625 76.7083 44.2292 76.6875 43.8125 76.5625C43.3958 76.4792 43.1042 76.2917 42.9375 76C42.7292 76.0417 42.5625 76.0417 42.4375 76C42.3542 75.9583 42.25 75.9167 42.125 75.875L41.1875 75.6875C41.1042 75.5208 40.9583 75.3958 40.75 75.3125C40.5833 75.2292 40.4167 75.1458 40.25 75.0625C40.0417 74.8125 39.8958 74.6667 39.8125 74.625C39.7292 74.5833 39.7083 74.5208 39.75 74.4375C39.5 74.3958 39.3125 74.2917 39.1875 74.125C39.0625 74 38.8958 73.9167 38.6875 73.875C38.1458 73.4583 37.8125 73.1667 37.6875 73C37.6042 72.8333 37.4583 72.6458 37.25 72.4375C37.1667 72.3542 37.0833 72.2708 37 72.1875C36.9167 72.1042 36.7917 72.0417 36.625 72C36.4583 71.5 36.3333 71.25 36.25 71.25C36.2083 71.25 36.1458 71.2083 36.0625 71.125C35.8958 70.7917 35.7292 70.5625 35.5625 70.4375C35.3958 70.1875 35.2708 70 35.1875 69.875C35.1042 69.75 35.0208 69.6458 34.9375 69.5625C34.7708 69.4792 34.625 69.3542 34.5 69.1875C34.4167 69.0208 34.2708 68.8958 34.0625 68.8125L33.75 67.625C33.5 67.7083 33.3333 67.6458 33.25 67.4375C33.2083 67.2292 33.0625 67.0833 32.8125 67C32.7292 66.6667 32.5625 66.4375 32.3125 66.3125C32.0625 66.1875 31.8958 65.9583 31.8125 65.625C31.6042 65.4583 31.4375 65.2708 31.3125 65.0625C31.1875 64.8958 31 64.75 30.75 64.625C30.75 64.4167 30.6458 64.2708 30.4375 64.1875C30.2292 64.1458 30.0833 64.0417 30 63.875C29.9167 63.7083 29.8125 63.5 29.6875 63.25C29.5625 63.0417 29.3958 62.8958 29.1875 62.8125C28.9375 62.8958 28.75 63.0417 28.625 63.25C28.5417 63.5 28.3542 63.6458 28.0625 63.6875C27.4792 64.0208 27.0417 64.3542 26.75 64.6875C26.4583 65.0208 26.2083 65.2917 26 65.5C25.4583 65.75 25.0625 65.8958 24.8125 65.9375C24.6458 66.0208 24.5208 66.125 24.4375 66.25C24.3958 66.375 24.2292 66.4375 23.9375 66.4375C23.5208 66.7292 23.3542 66.875 23.4375 66.875C23.5208 66.9167 23.5208 66.9583 23.4375 67C23.2292 67.0833 23.0625 67.125 22.9375 67.125C22.8125 67.1667 22.6458 67.2083 22.4375 67.25C22.0208 67.5 21.7708 67.6458 21.6875 67.6875C21.6458 67.7292 21.5833 67.7708 21.5 67.8125C21.1667 67.7292 20.9167 67.7292 20.75 67.8125C20.5833 67.9375 20.4167 68.0625 20.25 68.1875C20.0417 68.1458 19.875 68.1458 19.75 68.1875C19.625 68.2708 19.5208 68.3542 19.4375 68.4375C18.9375 68.6875 18.625 68.8542 18.5 68.9375C18.375 69.0208 18.1875 69.0625 17.9375 69.0625C17.3125 69.1875 16.9792 69.1875 16.9375 69.0625C16.8958 68.9792 16.75 69.0208 16.5 69.1875C16.2917 69.1042 16.0417 69.0833 15.75 69.125C15.4583 69.1667 15.25 69.125 15.125 69C14.875 69.1667 14.5208 69.2292 14.0625 69.1875C13.6042 69.1875 13.2292 69.25 12.9375 69.375L12.125 69.1875C12.0417 69.0208 11.8958 68.9167 11.6875 68.875C11.4375 68.875 11.2708 68.7917 11.1875 68.625C10.8542 68.625 10.6458 68.6042 10.5625 68.5625C10.4375 68.5208 10.3125 68.4583 10.1875 68.375C9.6875 68.2083 9.35417 68.1042 9.1875 68.0625C9.02083 68.0208 8.83333 68 8.625 68C8.29167 67.75 8.0625 67.5833 7.9375 67.5C7.8125 67.4583 7.66667 67.3958 7.5 67.3125C7 67.1042 6.66667 66.9167 6.5 66.75C6.29167 66.625 6.1875 66.4583 6.1875 66.25C5.8125 66 5.58333 65.8333 5.5 65.75C5.41667 65.7083 5.33333 65.625 5.25 65.5C5.16667 65.25 5.10417 65.0833 5.0625 65C5.02083 64.9167 4.95833 64.8333 4.875 64.75C4.66667 64.2917 4.54167 64.0417 4.5 64C4.45833 64 4.41667 63.9583 4.375 63.875C4.33333 63.4583 4.29167 63.2292 4.25 63.1875C4.20833 63.1875 4.1875 63.1667 4.1875 63.125C4.1875 62.625 4.20833 62.3542 4.25 62.3125C4.29167 62.2708 4.3125 62.2083 4.3125 62.125C4.47917 61.5417 4.375 61.125 4 60.875C4.25 60.5417 4.45833 60.3125 4.625 60.1875C4.54167 59.9792 4.54167 59.8125 4.625 59.6875C4.66667 59.6042 4.6875 59.4583 4.6875 59.25C4.8125 58.8333 4.95833 58.5 5.125 58.25L5.5625 57.5C5.89583 57 6.1875 56.6667 6.4375 56.5C6.64583 56.375 6.79167 56.1667 6.875 55.875C7.16667 55.5417 7.35417 55.3333 7.4375 55.25C7.47917 55.1667 7.54167 55.125 7.625 55.125C7.95833 55 8.125 54.875 8.125 54.75C8.125 54.6667 8.1875 54.6458 8.3125 54.6875C8.60417 54.5208 8.77083 54.3958 8.8125 54.3125C8.85417 54.2708 8.9375 54.25 9.0625 54.25C9.47917 54 9.77083 53.8125 9.9375 53.6875C10.0625 53.5625 10.2292 53.4583 10.4375 53.375C10.7708 53.1667 11.0208 53.0208 11.1875 52.9375C11.3125 52.8125 11.4375 52.7083 11.5625 52.625L12.3125 52.25C12.4792 52.1667 12.6042 52.1042 12.6875 52.0625C12.8125 52.0208 12.9583 51.9583 13.125 51.875C13.5417 51.75 13.7917 51.6875 13.875 51.6875C13.9583 51.6875 14.0417 51.6667 14.125 51.625C14.4583 51.4583 14.6667 51.3958 14.75 51.4375C14.8333 51.4375 14.875 51.3958 14.875 51.3125C14.9583 51.3542 15.1042 51.375 15.3125 51.375C15.5208 51.375 15.7083 51.375 15.875 51.375C16.4583 51.2917 16.8333 51.3333 17 51.5C17.2083 51.625 17.3958 51.6458 17.5625 51.5625C18.1042 51.5208 18.4167 51.5833 18.5 51.75C18.875 51.6667 19.2083 51.6875 19.5 51.8125C19.7917 51.8958 20.125 51.9167 20.5 51.875C20.9583 52.0833 21.25 52.2083 21.375 52.25C21.5 52.2917 21.6042 52.3333 21.6875 52.375C21.8542 52.4583 21.9792 52.5625 22.0625 52.6875C22.1875 52.7708 22.3333 52.8333 22.5 52.875C22.6667 52.9583 22.7917 53.0417 22.875 53.125C23 53.2083 23.1458 53.25 23.3125 53.25C23.7708 53.4167 24.0417 53.5417 24.125 53.625C24.25 53.7083 24.4167 53.7708 24.625 53.8125C24.8333 53.9792 25 54.0625 25.125 54.0625C25.2917 54.1042 25.4375 54.125 25.5625 54.125C26.0625 54.625 26.6042 54.9375 27.1875 55.0625C27.2292 55.3958 27.3542 55.6667 27.5625 55.875C27.8125 56.125 28.1042 56.2917 28.4375 56.375C28.8542 56.625 29.1042 56.625 29.1875 56.375C29.3125 56.1667 29.4167 55.9792 29.5 55.8125C29.5833 55.6042 29.6458 55.4583 29.6875 55.375C29.7708 55.2917 29.8125 55.2083 29.8125 55.125C29.9792 54.5833 30.0833 54.2708 30.125 54.1875C30.1667 54.1458 30.1875 54.0208 30.1875 53.8125C30.2708 53.8125 30.3542 53.7292 30.4375 53.5625C30.5208 53.3958 30.6042 53.2917 30.6875 53.25C30.6042 53.0417 30.6042 52.7917 30.6875 52.5C30.7708 52.1667 30.8333 51.8958 30.875 51.6875C31.0417 51.0625 31.125 50.6458 31.125 50.4375C31.125 50.2292 31.2083 50.0417 31.375 49.875C31.2917 49.7083 31.2917 49.4375 31.375 49.0625C31.5 48.7708 31.5417 48.6042 31.5 48.5625C31.5 48.5208 31.5208 48.4583 31.5625 48.375C31.7708 48 31.8542 47.6875 31.8125 47.4375C32.0625 46.8125 32.1667 46.3542 32.125 46.0625C32.125 45.7292 32.1875 45.375 32.3125 45C32.2292 44.625 32.2083 44.375 32.25 44.25C32.2917 44.125 32.2708 44.0208 32.1875 43.9375C32.2708 43.4375 32.3542 43.0833 32.4375 42.875C32.5208 42.625 32.5625 42.3542 32.5625 42.0625C32.4375 41.9792 32.2708 42 32.0625 42.125C31.8542 42.25 31.6458 42.2708 31.4375 42.1875C31.0625 42.3542 30.7917 42.4375 30.625 42.4375C30.4583 42.4375 30.3125 42.4583 30.1875 42.5C29.9792 42.5417 29.75 42.5833 29.5 42.625C29.25 42.6667 29.1042 42.7292 29.0625 42.8125C28.8125 42.8542 28.5833 42.8958 28.375 42.9375C28.1667 42.9792 28 43.0417 27.875 43.125C27.1667 43.0417 26.7083 43.0208 26.5 43.0625C26.2917 43.0625 25.9792 43.0625 25.5625 43.0625C24.9792 43.2292 24.6458 43.2917 24.5625 43.25C24.5208 43.1667 24.4375 43.1042 24.3125 43.0625C23.8542 43.1458 23.5833 43.2292 23.5 43.3125L22.6875 43C22.5208 43 22.3542 43 22.1875 43C22.0208 42.9583 21.8958 42.9792 21.8125 43.0625C21.5208 42.8958 21.2708 42.8333 21.0625 42.875C20.8542 42.875 20.6458 42.7917 20.4375 42.625C20.2292 42.6667 20.0417 42.6667 19.875 42.625C19.75 42.5417 19.5833 42.5208 19.375 42.5625L18.3125 42.25L17.6875 41.875C17.0208 41.6667 16.625 41.4583 16.5 41.25C16.0417 41.0833 15.7708 41 15.6875 41C15.6458 41 15.6042 40.9792 15.5625 40.9375C15.3542 40.6042 15.2083 40.4167 15.125 40.375C15.0833 40.3333 15.0417 40.2917 15 40.25C14.875 39.75 14.7917 39.5208 14.75 39.5625C14.7083 39.5625 14.6667 39.5417 14.625 39.5C14.5 39.1667 14.3958 39 14.3125 39C14.2292 38.9583 14.1667 38.8958 14.125 38.8125C14.2083 38.4792 14.1875 38.2083 14.0625 38C13.9792 37.7917 14.0417 37.5208 14.25 37.1875C14.0833 37.0625 14.0208 36.8958 14.0625 36.6875C14.1042 36.4375 14.125 36.2083 14.125 36C14.4167 36 14.5833 35.9375 14.625 35.8125C14.6667 35.6458 14.7917 35.5208 15 35.4375L15.4375 34.75ZM54.375 16.1875C54.375 15.9792 54.4167 15.8125 54.5 15.6875C54.5833 15.5208 54.6042 15.2708 54.5625 14.9375C54.7708 14.2708 54.9792 13.6875 55.1875 13.1875C55.0625 12.9792 55.0208 12.8125 55.0625 12.6875C55.1042 12.5625 55.1667 12.3958 55.25 12.1875C55.25 11.8542 55.25 11.6042 55.25 11.4375C55.25 11.2292 55.2292 11.0417 55.1875 10.875C55.0625 10.5833 55.0208 10.375 55.0625 10.25C55.1458 10.125 55.1875 9.97917 55.1875 9.8125C55.1458 9.39583 55.0833 9.16667 55 9.125C54.9583 9.04167 54.9375 8.95833 54.9375 8.875C54.7708 8.33333 54.7292 7.85417 54.8125 7.4375C54.6875 7.3125 54.5833 7.14583 54.5 6.9375C54.4583 6.72917 54.4167 6.54167 54.375 6.375C54.3333 6.16667 54.25 5.97917 54.125 5.8125C54.0417 5.64583 53.8958 5.54167 53.6875 5.5C53.3125 5.04167 53.0625 4.79167 52.9375 4.75C52.8125 4.70833 52.7083 4.625 52.625 4.5C52.4583 4.33333 52.2917 4.27083 52.125 4.3125C52 4.3125 51.8958 4.27083 51.8125 4.1875C51.3542 3.97917 51.1042 3.85417 51.0625 3.8125C51.0208 3.77083 50.9375 3.77083 50.8125 3.8125C50.2708 3.47917 49.7917 3.27083 49.375 3.1875C48.875 3.27083 48.6042 3.27083 48.5625 3.1875C48.5625 3.0625 48.5 3.02083 48.375 3.0625C48.1667 3.27083 47.9583 3.39583 47.75 3.4375C47.5833 3.4375 47.4583 3.5 47.375 3.625C47.2083 3.54167 47.0625 3.54167 46.9375 3.625C46.8542 3.70833 46.7083 3.72917 46.5 3.6875C46.3333 3.8125 46.1667 3.95833 46 4.125C45.8333 4.25 45.5833 4.33333 45.25 4.375C45.3333 4.58333 45.2917 4.6875 45.125 4.6875C44.9583 4.6875 44.8542 4.77083 44.8125 4.9375C44.4792 5.3125 44.2292 5.54167 44.0625 5.625C44.1042 5.75 44.0833 5.875 44 6C43.9167 6.08333 43.8333 6.1875 43.75 6.3125C43.6667 6.39583 43.6042 6.47917 43.5625 6.5625C43.5208 6.64583 43.5625 6.75 43.6875 6.875C43.3542 7 43.125 7.20833 43 7.5C42.875 7.79167 42.6875 8.04167 42.4375 8.25C42.2292 8.83333 42.1042 9.25 42.0625 9.5C42.0208 9.75 41.9375 10 41.8125 10.25C41.8958 10.5 41.875 10.6875 41.75 10.8125C41.6667 10.9375 41.6667 11.1042 41.75 11.3125C41.5 11.5208 41.3333 11.8542 41.25 12.3125C41.2083 12.3958 41.1458 12.5 41.0625 12.625C40.9792 12.75 40.9167 12.8542 40.875 12.9375C40.8333 13.4375 40.8542 13.6875 40.9375 13.6875C41.0208 13.6458 41.0417 13.6667 41 13.75C40.875 14.125 40.7292 14.3542 40.5625 14.4375C40.4375 14.5208 40.3542 14.6667 40.3125 14.875C40.2292 15.2917 40.1667 15.6042 40.125 15.8125C40.125 15.9792 40.0208 16.1042 39.8125 16.1875C39.8125 16.5208 39.8125 16.8125 39.8125 17.0625C39.8125 17.2708 39.7708 17.4375 39.6875 17.5625C39.6042 17.7292 39.5417 17.9167 39.5 18.125C39.4583 18.3333 39.4792 18.5417 39.5625 18.75C39.3125 19 39.2083 19.1667 39.25 19.25C39.2917 19.3333 39.3125 19.4167 39.3125 19.5C39.2292 19.875 39.1458 20.1042 39.0625 20.1875C39.0208 20.3958 39.0208 20.6458 39.0625 20.9375C38.9792 21.1042 38.8958 21.2292 38.8125 21.3125C38.7708 21.3958 38.75 21.4792 38.75 21.5625C38.7083 22.0625 38.6875 22.4583 38.6875 22.75C38.7292 23.0417 38.7083 23.3333 38.625 23.625C38.5833 23.75 38.5208 23.875 38.4375 24C38.3958 24.125 38.375 24.25 38.375 24.375C38.4583 24.6667 38.4583 24.9167 38.375 25.125C38.3333 25.3333 38.3125 25.4792 38.3125 25.5625C38.2708 25.9375 38.25 26.2083 38.25 26.375C38.2917 26.5 38.3125 26.6042 38.3125 26.6875C38.2292 27.0625 38.1458 27.2708 38.0625 27.3125C38.0208 27.3542 38.0208 27.4167 38.0625 27.5C37.9792 27.9167 37.9167 28.1875 37.875 28.3125C37.8333 28.7708 37.8333 29.0417 37.875 29.125C37.9583 29.1667 38 29.2292 38 29.3125C37.9167 29.6042 37.8958 29.7917 37.9375 29.875C37.9792 29.9583 38 30.0417 38 30.125C37.7917 30.4583 37.7083 30.7083 37.75 30.875C37.7917 31 37.8125 31.1667 37.8125 31.375C37.8125 31.5833 37.7917 31.8125 37.75 32.0625C37.7083 32.3125 37.6875 32.5625 37.6875 32.8125C37.6458 33.0208 37.6458 33.2292 37.6875 33.4375C37.7292 33.6458 37.6875 33.8542 37.5625 34.0625C37.6458 34.5625 37.6458 34.8333 37.5625 34.875C37.5208 34.9167 37.4792 34.9792 37.4375 35.0625C37.4375 35.3542 37.4583 35.5417 37.5 35.625C37.5833 35.6667 37.6458 35.7292 37.6875 35.8125C37.6458 36.2708 37.5833 36.5417 37.5 36.625C37.4583 36.7083 37.4792 36.7917 37.5625 36.875C37.8542 36.9167 38.1458 36.7917 38.4375 36.5C38.6042 36.4167 38.75 36.3333 38.875 36.25C39 36.1667 39.1458 36.1042 39.3125 36.0625C39.5208 35.8125 39.6458 35.6667 39.6875 35.625C39.7708 35.5833 39.8542 35.5417 39.9375 35.5L40.625 35.3125C40.7083 35.1875 40.7917 35.1042 40.875 35.0625C41 34.9792 41.0833 34.875 41.125 34.75C41.25 34.7083 41.3333 34.6458 41.375 34.5625C41.4583 34.4792 41.5833 34.4167 41.75 34.375C42.0417 34.0833 42.25 33.875 42.375 33.75C42.5 33.625 42.6667 33.5208 42.875 33.4375C43.125 33.1458 43.3125 32.9583 43.4375 32.875C43.6042 32.75 43.7917 32.6458 44 32.5625C44.2917 32.1458 44.4792 31.9375 44.5625 31.9375C44.6458 31.9375 44.7292 31.9167 44.8125 31.875C45.1875 31.5833 45.375 31.4167 45.375 31.375C45.4167 31.2917 45.4583 31.2292 45.5 31.1875C45.7917 30.8542 46.0208 30.6875 46.1875 30.6875C46.3542 30.4375 46.4792 30.2917 46.5625 30.25C46.6458 30.1667 46.7292 30.0833 46.8125 30C46.7708 29.7917 46.7708 29.6458 46.8125 29.5625C46.8958 29.4792 46.9583 29.3542 47 29.1875C47.25 28.8125 47.4583 28.5833 47.625 28.5C47.7917 28.375 47.8542 28.1875 47.8125 27.9375C48.0208 27.8542 48.125 27.75 48.125 27.625C48.1667 27.5 48.2292 27.375 48.3125 27.25C48.7292 26.7083 49.0833 26.3333 49.375 26.125C49.4583 25.75 49.6042 25.4792 49.8125 25.3125C50.0625 25.1042 50.2083 24.8333 50.25 24.5C50.625 24.2917 50.8542 24 50.9375 23.625C51.0625 23.25 51.2292 22.8958 51.4375 22.5625C51.6875 22.1875 51.8125 21.9792 51.8125 21.9375C51.8542 21.8542 51.9167 21.8125 52 21.8125C52.2083 21.3958 52.3125 21.1042 52.3125 20.9375C52.3125 20.7292 52.3125 20.6667 52.3125 20.75C52.6458 20.2083 52.8333 19.8333 52.875 19.625C52.9583 19.4167 53.0417 19.2708 53.125 19.1875C53.2917 18.9792 53.3958 18.8333 53.4375 18.75C53.5208 18.625 53.5208 18.4792 53.4375 18.3125C53.4792 18.2292 53.5417 18.1458 53.625 18.0625C53.7083 17.9375 53.7917 17.8333 53.875 17.75C53.9583 17.3333 54.0208 17.1042 54.0625 17.0625C54.1042 17.0208 54.1458 16.9583 54.1875 16.875C54.2708 16.5 54.3333 16.2708 54.375 16.1875ZM25.75 61.5L26.3125 60.75C26.3125 60.5417 26.4167 60.4167 26.625 60.375C26.8333 60.375 26.8958 60.2708 26.8125 60.0625C26.3125 59.7292 26.0417 59.5417 26 59.5C25.9583 59.4583 25.8958 59.4167 25.8125 59.375C25.7708 59.375 25.7292 59.3542 25.6875 59.3125C25.6458 59.3125 25.5833 59.2292 25.5 59.0625C25.1667 58.8958 24.875 58.7083 24.625 58.5C24.375 58.2917 24.1042 58.0625 23.8125 57.8125C23.6875 57.6042 23.5833 57.5 23.5 57.5C23.4167 57.5417 23.3125 57.5208 23.1875 57.4375C23.0625 57.3125 22.8958 57.1875 22.6875 57.0625C22.5208 56.9792 22.375 56.8542 22.25 56.6875C21.875 56.4792 21.5833 56.3125 21.375 56.1875C20.8333 55.9375 20.3958 55.7708 20.0625 55.6875C19.5208 55.3125 19.2292 55.0833 19.1875 55C18.8125 54.9583 18.4583 54.9167 18.125 54.875C17.8333 54.8333 17.5625 54.7917 17.3125 54.75C16.8125 54.5833 16.4792 54.5 16.3125 54.5C16.1875 54.5417 16.0208 54.5625 15.8125 54.5625C15.5208 54.5208 15.25 54.4792 15 54.4375C14.75 54.4375 14.5208 54.4375 14.3125 54.4375C14.0625 54.4375 13.7917 54.4792 13.5 54.5625C13.25 54.6458 13.0208 54.6458 12.8125 54.5625C12.6875 54.6042 12.5833 54.6458 12.5 54.6875C12.4167 54.7292 12.3125 54.7917 12.1875 54.875C11.7292 54.9583 11.5 55.0208 11.5 55.0625C11.5 55.1042 11.4583 55.1458 11.375 55.1875C11.0833 55.4375 10.875 55.6042 10.75 55.6875C10.5833 55.8125 10.4375 55.9167 10.3125 56C9.97917 56.375 9.79167 56.6042 9.75 56.6875C9.66667 56.7708 9.58333 56.8333 9.5 56.875C9.33333 57.3333 9.20833 57.6042 9.125 57.6875C9.125 58.0625 9.10417 58.25 9.0625 58.25C9.02083 58.2917 9 58.3542 9 58.4375C8.95833 58.5625 8.95833 58.7083 9 58.875C9 59.0417 9 59.2083 9 59.375C8.875 59.9583 8.8125 60.25 8.8125 60.25C8.97917 60.75 9.02083 61.0208 8.9375 61.0625C8.8125 61.1042 8.77083 61.1875 8.8125 61.3125C8.89583 61.4375 8.97917 61.5833 9.0625 61.75C9.10417 61.9167 9.08333 62.0625 9 62.1875C9.54167 62.6042 9.8125 62.9583 9.8125 63.25C10.0208 63.375 10.2083 63.5 10.375 63.625C10.5417 63.75 10.7292 63.8542 10.9375 63.9375C11.3958 64.2292 11.6667 64.3958 11.75 64.4375C11.8333 64.4792 11.8958 64.5417 11.9375 64.625C12.6042 64.9167 13.1042 65.125 13.4375 65.25C13.7708 65.4167 14.1667 65.4583 14.625 65.375L15.3125 65.25C15.3958 65.2917 15.5208 65.2917 15.6875 65.25C15.8542 65.2083 16.0208 65.1875 16.1875 65.1875C16.5625 65.2292 16.875 65.2083 17.125 65.125C17.625 65.0833 17.9792 65.0625 18.1875 65.0625C18.3958 65.1042 18.625 65.1042 18.875 65.0625C19.5833 64.8958 20.0833 64.75 20.375 64.625C20.875 64.5 21.1458 64.4167 21.1875 64.375C21.2292 64.3333 21.2917 64.2917 21.375 64.25C21.9583 64.0833 22.3125 63.9375 22.4375 63.8125C22.5625 63.6875 22.7083 63.5833 22.875 63.5C23.2083 63.375 23.375 63.2708 23.375 63.1875C23.4167 63.1042 23.4792 63.0417 23.5625 63C23.8958 62.9583 24.1458 62.875 24.3125 62.75C24.4792 62.625 24.6667 62.5 24.875 62.375L25.75 61.5ZM67.8125 50.6875C67.6042 50.7708 67.4583 50.8542 67.375 50.9375C67.2917 50.9792 67.1458 50.9792 66.9375 50.9375C66.8125 51.1042 66.6458 51.2292 66.4375 51.3125C66.2292 51.3542 66.0833 51.4792 66 51.6875C65.375 51.8958 64.8958 52.0833 64.5625 52.25C63.8125 52.5833 63.2917 52.8125 63 52.9375C62.75 53.0625 62.5 53.1875 62.25 53.3125C61.9167 53.2292 61.625 53.25 61.375 53.375C61.1667 53.5 60.9792 53.625 60.8125 53.75C60.4375 53.7917 60.0625 53.7917 59.6875 53.75C59.3125 53.7083 59.0208 53.6875 58.8125 53.6875C58.3958 53.6042 58.125 53.5625 58 53.5625C57.9167 53.5625 57.875 53.5208 57.875 53.4375C57.7083 53.4792 57.5833 53.4792 57.5 53.4375C57.4167 53.3958 57.3125 53.375 57.1875 53.375C56.7708 53.125 56.5 53 56.375 53C56.25 52.9583 56.1458 52.8958 56.0625 52.8125C56.0625 52.7708 55.9583 52.7292 55.75 52.6875C55.5833 52.6458 55.4583 52.6667 55.375 52.75L54.5 52.1875C54.125 51.6875 53.875 51.4375 53.75 51.4375C53.4167 51.1042 53.25 50.8542 53.25 50.6875C53.0833 50.6458 52.9583 50.5833 52.875 50.5C52.7917 50.4167 52.6667 50.3542 52.5 50.3125C52.5 49.9792 52.4792 49.7917 52.4375 49.75C52.3958 49.6667 52.3542 49.5208 52.3125 49.3125C52.0625 48.7708 51.9375 48.5 51.9375 48.5C51.8958 48.3333 51.8333 48.2083 51.75 48.125C51.6667 48 51.6042 47.8958 51.5625 47.8125C51.5625 47.7292 51.5625 47.6458 51.5625 47.5625C51.6042 47.4375 51.6042 47.2917 51.5625 47.125C51.3958 46.875 51.3125 46.625 51.3125 46.375C51.2708 46.0833 51.2083 45.8333 51.125 45.625C51.0833 45.4583 51.0625 45.2917 51.0625 45.125C51.1042 44.9583 51.1042 44.8333 51.0625 44.75C50.9375 44.4167 50.875 44.2292 50.875 44.1875C50.875 44.1042 50.9167 44.0417 51 44C50.875 43.9167 50.8542 43.7708 50.9375 43.5625C51.0208 43.3542 50.9792 43.2083 50.8125 43.125C50.9792 42.9583 51.0417 42.75 51 42.5C50.9583 42.25 50.9792 42.0208 51.0625 41.8125C51.1875 41.5208 51.2917 41.2083 51.375 40.875C51.5 40.4583 51.5833 40.2083 51.625 40.125C51.7083 40 51.7708 39.8958 51.8125 39.8125C51.8958 39.4375 51.9583 39.2292 52 39.1875C52.0417 39.1042 52.0625 39.0208 52.0625 38.9375C52.1875 38.4375 52.3542 38.0833 52.5625 37.875C52.7708 37.625 52.8958 37.3333 52.9375 37C53.1042 36.9583 53.2083 36.8542 53.25 36.6875C53.3333 36.4792 53.4583 36.3333 53.625 36.25C53.75 35.9583 53.875 35.7917 54 35.75C54.1667 35.6667 54.2708 35.5417 54.3125 35.375C54.5625 35.3333 54.7292 35.25 54.8125 35.125C54.9375 35 55.0417 34.8542 55.125 34.6875C55.375 34.6458 55.5625 34.5625 55.6875 34.4375C55.8542 34.2708 56.0625 34.1667 56.3125 34.125C56.3958 33.7917 56.5625 33.5833 56.8125 33.5C57.1042 33.375 57.3333 33.2083 57.5 33C57.8333 33 58.0417 32.875 58.125 32.625C58.6667 32.5417 59.0208 32.4167 59.1875 32.25C59.3542 32.0833 59.5417 31.9583 59.75 31.875C60.0417 31.8333 60.2292 31.7917 60.3125 31.75C60.3958 31.6667 60.5208 31.6042 60.6875 31.5625C61.0625 31.2292 61.25 31.125 61.25 31.25C61.2917 31.3333 61.3542 31.3333 61.4375 31.25C61.6042 31.2083 61.75 31.1458 61.875 31.0625C62.0417 30.9792 62.2292 30.9167 62.4375 30.875C62.8125 30.8333 63.0417 30.8125 63.125 30.8125C63.25 30.7708 63.375 30.7292 63.5 30.6875C64.0833 30.6042 64.4792 30.5833 64.6875 30.625C64.8958 30.7083 65.1667 30.7917 65.5 30.875C65.8333 30.9583 66.1042 30.9792 66.3125 30.9375C66.3958 31.0208 66.5 31.1042 66.625 31.1875C66.75 31.2292 66.8542 31.3333 66.9375 31.5C67.3542 31.7917 67.6042 32 67.6875 32.125C67.7708 32.25 67.8958 32.3542 68.0625 32.4375C68.3542 32.9375 68.5417 33.3333 68.625 33.625C68.75 33.875 68.8958 34.1458 69.0625 34.4375C68.9375 34.7708 68.8958 34.9583 68.9375 35C68.9792 35 69 35.0417 69 35.125C69 35.2083 68.9792 35.3333 68.9375 35.5C68.8958 35.625 68.875 35.75 68.875 35.875C68.9167 36.2083 68.9167 36.4792 68.875 36.6875C68.8333 36.8958 68.8125 37.1042 68.8125 37.3125C68.3958 37.8958 68.0208 38.2708 67.6875 38.4375C67.3958 38.6042 67.1667 38.8542 67 39.1875C66.625 39.3125 66.4375 39.4167 66.4375 39.5C66.4792 39.5833 66.4583 39.6458 66.375 39.6875C66.0417 39.8958 65.8542 40.0417 65.8125 40.125C65.7708 40.1667 65.75 40.2292 65.75 40.3125C65.4167 40.5208 65.1042 40.6667 64.8125 40.75C64.4792 40.875 64.25 41.0208 64.125 41.1875C64 41.3125 63.8542 41.4167 63.6875 41.5C63.5625 41.5833 63.3958 41.6458 63.1875 41.6875C63.0208 41.7292 62.875 41.8542 62.75 42.0625C62.2917 42.1458 62 42.3333 61.875 42.625C61.375 42.625 61.0625 42.625 60.9375 42.625C60.8125 42.5833 60.7083 42.5625 60.625 42.5625C60.1667 42.8125 59.9375 42.9167 59.9375 42.875C59.9375 42.8333 59.9167 42.8333 59.875 42.875C59.75 42.9167 59.6042 42.9167 59.4375 42.875C59.2708 42.8333 59.0833 42.7917 58.875 42.75C58.7917 42.7083 58.6667 42.7292 58.5 42.8125C58.3333 42.8542 58.2083 42.875 58.125 42.875C57.875 42.9167 57.6667 42.875 57.5 42.75C57.3333 42.5833 57.0833 42.5417 56.75 42.625C56.625 42.5417 56.5 42.4583 56.375 42.375C56.2917 42.2917 56.1667 42.2917 56 42.375C55.9583 42.4167 55.9167 42.5625 55.875 42.8125C55.875 43.0625 55.9583 43.1458 56.125 43.0625C55.9583 43.2708 55.875 43.5208 55.875 43.8125C55.875 44.0625 55.9792 44.2708 56.1875 44.4375C56.0625 44.8958 56.1042 45.3125 56.3125 45.6875C56.5625 46.0208 56.7083 46.3958 56.75 46.8125C56.9583 47.1458 57.1875 47.4167 57.4375 47.625C57.7292 47.7917 57.9375 48.0417 58.0625 48.375C58.3958 48.5417 58.7083 48.7292 59 48.9375C59.3333 49.1458 59.6667 49.375 60 49.625C60.25 49.7083 60.4375 49.7917 60.5625 49.875C60.7292 49.9167 60.8958 49.9375 61.0625 49.9375C61.3958 50.2292 61.6667 50.375 61.875 50.375C62.375 50.5417 62.6667 50.6458 62.75 50.6875C62.8333 50.7292 62.9167 50.75 63 50.75C63.375 50.8333 63.6042 50.875 63.6875 50.875C64.1875 50.75 64.4792 50.6875 64.5625 50.6875C64.6875 50.6875 64.8125 50.6458 64.9375 50.5625C65.2708 50.3125 65.5208 50.1667 65.6875 50.125C65.8542 50.0417 66 49.9375 66.125 49.8125C66.4583 49.5625 66.625 49.4167 66.625 49.375C66.6667 49.2917 66.7292 49.2292 66.8125 49.1875C67.1042 48.7708 67.25 48.5417 67.25 48.5C67.4167 48.4583 67.5208 48.375 67.5625 48.25C67.6458 48.125 67.7292 48.0208 67.8125 47.9375C68.0625 47.6458 68.2083 47.5 68.25 47.5C68.3333 47.4583 68.4167 47.4167 68.5 47.375C68.7083 46.9583 68.8333 46.7292 68.875 46.6875C68.9583 46.6042 69.0625 46.5208 69.1875 46.4375C69.7708 46.1042 70.125 45.875 70.25 45.75C70.5833 45.8333 70.8333 45.7917 71 45.625C71.1667 45.4583 71.3542 45.4167 71.5625 45.5C71.6458 45.875 71.6875 46.0833 71.6875 46.125C71.6875 46.1667 71.7083 46.2083 71.75 46.25C71.7083 46.375 71.5833 46.4583 71.375 46.5C71.1667 46.5 71.0833 46.6042 71.125 46.8125C70.9167 47.3125 70.7708 47.6458 70.6875 47.8125C70.6458 47.9792 70.5417 48.125 70.375 48.25C70.2917 48.625 70.0625 48.8542 69.6875 48.9375C69.4375 49.1875 69.2708 49.3958 69.1875 49.5625C68.8125 49.6458 68.6042 49.8125 68.5625 50.0625L67.8125 50.6875ZM58.3125 39.375C58.4792 39.4167 58.6875 39.4792 58.9375 39.5625C59.1875 39.6458 59.3542 39.7292 59.4375 39.8125C59.6875 39.7708 59.9167 39.7708 60.125 39.8125C60.3333 39.8125 60.5208 39.8333 60.6875 39.875C61.2292 39.9583 61.5625 39.9583 61.6875 39.875C61.8125 39.7917 61.9583 39.75 62.125 39.75C62.5833 39.7917 62.8125 39.7917 62.8125 39.75C62.8542 39.6667 62.9167 39.6042 63 39.5625C63.5417 39.1458 63.9167 38.8958 64.125 38.8125C64.125 38.6875 64.1458 38.5833 64.1875 38.5C64.2708 38.375 64.3333 38.25 64.375 38.125C64.375 37.9583 64.3542 37.7917 64.3125 37.625C64.2708 37.4167 64.25 37.2292 64.25 37.0625C64.25 36.6458 64.2083 36.3958 64.125 36.3125C64.0417 36.1875 64.0417 36.0625 64.125 35.9375C63.9167 35.6042 63.7292 35.3958 63.5625 35.3125C63.4375 35.2292 63.375 35.0833 63.375 34.875C63.2083 34.7083 63.0833 34.6042 63 34.5625C62.9167 34.5208 62.875 34.4375 62.875 34.3125C62.2083 33.9375 61.6875 33.7708 61.3125 33.8125C60.8542 33.8542 60.625 33.875 60.625 33.875C60.625 33.8333 60.6042 33.8125 60.5625 33.8125C60.1458 33.9792 59.875 34.0625 59.75 34.0625C59.6667 34.0208 59.5625 34.0417 59.4375 34.125C59.1042 34.5417 58.8542 34.8125 58.6875 34.9375C58.5625 35.0208 58.4583 35.1667 58.375 35.375C58 35.8333 57.7083 36.1458 57.5 36.3125C57.3333 36.4792 57.2917 36.6458 57.375 36.8125C57.25 37.3542 57.2292 37.6875 57.3125 37.8125C57.4375 37.9375 57.4583 38.0833 57.375 38.25C57.5417 38.4167 57.7083 38.6042 57.875 38.8125C58.0417 38.9792 58.1875 39.1667 58.3125 39.375ZM91.9375 35.25C91.8542 35.75 91.8125 36.0208 91.8125 36.0625C91.8542 36.1042 91.875 36.1458 91.875 36.1875C91.8333 36.5208 91.8125 36.75 91.8125 36.875C91.8542 37 91.8542 37.125 91.8125 37.25C91.7708 37.3333 91.6875 37.4375 91.5625 37.5625C91.4792 37.6458 91.4792 37.7708 91.5625 37.9375C91.3125 38.2708 91.2292 38.4583 91.3125 38.5C91.3958 38.5417 91.4375 38.5833 91.4375 38.625C91.4792 39.0833 91.4792 39.375 91.4375 39.5C91.3958 39.625 91.375 39.7292 91.375 39.8125C91.375 40.3542 91.3333 40.6667 91.25 40.75C91.2917 41 91.2708 41.2292 91.1875 41.4375C91.1458 41.6458 91.1875 41.8125 91.3125 41.9375C91.3542 42.3958 91.3542 42.6875 91.3125 42.8125C91.3125 42.8958 91.3542 43 91.4375 43.125C91.2708 43.625 91.2083 43.9167 91.25 44C91.4167 44.4583 91.5 44.7917 91.5 45C91.5 45.1667 91.5625 45.3333 91.6875 45.5C91.5625 45.8333 91.5417 46.1458 91.625 46.4375C91.7083 46.7292 91.7708 47.0417 91.8125 47.375C91.7708 47.8333 91.7708 48.0833 91.8125 48.125C91.8542 48.125 91.875 48.1667 91.875 48.25C91.9583 48.4583 92 48.7083 92 49C92 49.25 92.0625 49.4583 92.1875 49.625C92.1875 50.2083 92.3333 50.5625 92.625 50.6875C92.5833 50.9792 92.6042 51.1458 92.6875 51.1875C92.7708 51.2292 92.8125 51.2917 92.8125 51.375C92.7292 51.5833 92.75 51.75 92.875 51.875C93 51.9583 93 52.0625 92.875 52.1875C93.0417 52.2708 93.2083 52.3333 93.375 52.375C93.5417 52.375 93.6667 52.4375 93.75 52.5625C94 52.5625 94.2083 52.6042 94.375 52.6875C94.5833 52.7708 94.7917 52.75 95 52.625C95.3333 52.4583 95.5417 52.2917 95.625 52.125C95.9167 52.125 96.125 52.0833 96.25 52C96.4167 51.9167 96.5833 51.8333 96.75 51.75C96.875 51.5833 96.9792 51.5 97.0625 51.5C97.1458 51.4583 97.25 51.4375 97.375 51.4375C97.2917 51.6042 97.2083 51.75 97.125 51.875C97.0417 52 97.0417 52.1875 97.125 52.4375C96.9167 52.5208 96.7083 52.625 96.5 52.75C96.3333 52.8333 96.1875 52.9792 96.0625 53.1875C95.6458 53.5208 95.3958 53.7292 95.3125 53.8125C95.2292 53.8958 95.1042 53.9375 94.9375 53.9375C94.5208 54.3125 94.3125 54.5833 94.3125 54.75C94.1875 54.8333 94.0417 54.875 93.875 54.875C93.75 54.9167 93.6458 54.9792 93.5625 55.0625C93.3125 55.3542 93.1458 55.5 93.0625 55.5C93.0208 55.5 92.9792 55.5625 92.9375 55.6875C92.3542 55.8125 91.9583 55.8542 91.75 55.8125C91.5833 55.8125 91.3958 55.8125 91.1875 55.8125C90.7708 55.7292 90.5 55.6042 90.375 55.4375C90.25 55.3125 90.1042 55.3125 89.9375 55.4375C89.8542 55.1458 89.6458 55.0208 89.3125 55.0625C89.1042 54.8125 88.9583 54.6042 88.875 54.4375C88.8333 54.3125 88.7292 54.2083 88.5625 54.125C88.5208 54.0417 88.5 53.9375 88.5 53.8125C88.5 53.6458 88.4792 53.5208 88.4375 53.4375C88.3958 53.3542 88.3333 53.2292 88.25 53.0625C88.2083 52.8542 88.2083 52.6667 88.25 52.5C88 51.7917 87.8125 51.2917 87.6875 51C87.6042 50.7083 87.6042 50.4375 87.6875 50.1875C87.6042 49.8542 87.5417 49.6458 87.5 49.5625C87.4583 49.4375 87.4375 49.3542 87.4375 49.3125C87.4375 49.0625 87.4167 48.8542 87.375 48.6875C87.375 48.5208 87.375 48.3125 87.375 48.0625C87.4167 47.5208 87.3958 47.1667 87.3125 47C87.2708 46.7917 87.25 46.5833 87.25 46.375C87.2917 45.9167 87.2917 45.6667 87.25 45.625C87.25 45.5833 87.25 45.5208 87.25 45.4375C87.2917 45.0625 87.2917 44.8333 87.25 44.75C87.2083 44.6667 87.1875 44.5833 87.1875 44.5C86.7292 44.75 86.4375 44.9375 86.3125 45.0625C86.2292 45.1458 86.1458 45.25 86.0625 45.375C85.9792 45.625 85.875 45.7917 85.75 45.875C85.625 45.9167 85.5208 45.9792 85.4375 46.0625C85.1875 46.2708 85.0417 46.4375 85 46.5625C85 46.6875 84.9583 46.7917 84.875 46.875C84.625 47.0417 84.4583 47.1667 84.375 47.25C84.3333 47.2917 84.3333 47.3958 84.375 47.5625C84.2083 47.6458 84.0833 47.75 84 47.875C83.9167 48 83.7708 48.1042 83.5625 48.1875C83.3542 48.4792 83.1458 48.7292 82.9375 48.9375C82.7292 49.1458 82.5417 49.2917 82.375 49.375C82.25 49.4167 82.1458 49.5208 82.0625 49.6875C81.7292 49.8958 81.5208 50.0625 81.4375 50.1875C81.3958 50.3125 81.3125 50.4167 81.1875 50.5C80.8125 50.7083 80.6042 50.8542 80.5625 50.9375C80.5208 50.9792 80.4583 50.9792 80.375 50.9375C79.8333 51.3958 79.5625 51.6875 79.5625 51.8125C79.1458 51.9792 78.8958 52.125 78.8125 52.25C78.7292 52.375 78.5625 52.4167 78.3125 52.375C77.8958 52.625 77.4792 52.7292 77.0625 52.6875C76.6458 52.6042 76.3125 52.5208 76.0625 52.4375C75.8958 52.3542 75.7708 52.2917 75.6875 52.25C75.6042 52.2083 75.4792 52.1667 75.3125 52.125C74.9375 51.9167 74.7083 51.75 74.625 51.625C74.5417 51.4583 74.3958 51.3333 74.1875 51.25C74.3125 51.0417 74.3125 50.8542 74.1875 50.6875C74.0625 50.4792 73.9583 50.3125 73.875 50.1875C73.9167 49.9792 73.9167 49.8333 73.875 49.75C73.8333 49.625 73.7917 49.5208 73.75 49.4375C73.7083 48.9375 73.7083 48.6667 73.75 48.625C73.7917 48.5833 73.8125 48.5417 73.8125 48.5C73.8125 48.3333 73.7917 48.1875 73.75 48.0625C73.7083 47.8958 73.7083 47.7292 73.75 47.5625C73.9167 47.1042 73.9792 46.7708 73.9375 46.5625C73.9375 46.3542 73.9792 46.1667 74.0625 46C74.1875 45.7917 74.2292 45.6458 74.1875 45.5625C74.1875 45.4375 74.2083 45.3333 74.25 45.25C74.4583 44.9167 74.5625 44.7083 74.5625 44.625C74.6458 44.1667 74.7083 43.9375 74.75 43.9375C74.8333 43.6458 74.9167 43.4792 75 43.4375C75.125 43.3542 75.1458 43.2292 75.0625 43.0625C75.2292 42.7708 75.3125 42.5833 75.3125 42.5C75.3542 42.4167 75.3958 42.3333 75.4375 42.25C75.6042 42.2083 75.7292 42.1042 75.8125 41.9375C75.8958 41.7708 75.8958 41.5833 75.8125 41.375C76.1875 41.2083 76.375 41.0625 76.375 40.9375C76.375 40.7708 76.4167 40.625 76.5 40.5C76.7917 40.2917 77.0625 40.125 77.3125 40C77.5625 39.8333 77.6875 39.5625 77.6875 39.1875C77.9375 38.8958 78.125 38.7292 78.25 38.6875C78.4167 38.6042 78.5208 38.4583 78.5625 38.25C78.6875 38.1667 78.7917 38.0833 78.875 38C78.9583 37.875 79.0417 37.7708 79.125 37.6875C79.3333 37.4792 79.4375 37.3542 79.4375 37.3125C79.4375 37.2708 79.4792 37.2083 79.5625 37.125C80.0208 36.875 80.2917 36.7083 80.375 36.625C80.6667 36.2917 80.8542 36.0833 80.9375 36C81.0208 35.9167 81.1458 35.8542 81.3125 35.8125C81.6458 35.5208 81.9792 35.2917 82.3125 35.125C82.4792 35.0417 82.6042 35 82.6875 35C82.8125 34.9583 82.9167 34.875 83 34.75C83.375 34.6667 83.7083 34.5833 84 34.5C84.5833 34.2083 85.0208 34.1042 85.3125 34.1875C85.6042 34.2292 85.9583 34.2292 86.375 34.1875C86.7917 34.3542 87.0417 34.4792 87.125 34.5625C87.25 34.6458 87.3542 34.7083 87.4375 34.75C87.5625 34.75 87.7083 34.7292 87.875 34.6875C88.0417 34.6458 88.1875 34.6667 88.3125 34.75C88.7292 35.0833 88.9583 35.25 89 35.25C89.0833 35.25 89.1667 35.2917 89.25 35.375C89.75 35.625 90.125 35.6667 90.375 35.5C90.625 35.3333 90.8542 35.1875 91.0625 35.0625C91.2292 35.1042 91.375 35.125 91.5 35.125C91.6667 35.0833 91.8125 35.125 91.9375 35.25ZM84.25 38C84.0417 38 83.8958 37.9583 83.8125 37.875C83.7708 37.7917 83.7083 37.7292 83.625 37.6875C83.25 37.6042 82.9375 37.625 82.6875 37.75C82.4375 37.875 82.1458 37.9375 81.8125 37.9375C81.3958 38.3125 81.1875 38.5208 81.1875 38.5625C80.9375 38.8958 80.75 39.125 80.625 39.25C80.5 39.375 80.4792 39.5417 80.5625 39.75C80.0625 39.9583 79.8125 40.2083 79.8125 40.5C79.8125 40.7917 79.6667 40.9792 79.375 41.0625C79.3333 41.2708 79.2708 41.4583 79.1875 41.625C79.1042 41.7917 79.0417 41.9792 79 42.1875C78.875 42.6875 78.8125 42.9583 78.8125 43C78.8542 43.0417 78.8542 43.1042 78.8125 43.1875C78.7292 43.3958 78.625 43.5833 78.5 43.75C78.4167 43.9167 78.4167 44.0625 78.5 44.1875C78.375 44.6458 78.2917 44.9583 78.25 45.125C78.2083 45.2917 78.1458 45.4792 78.0625 45.6875C78.1042 46.0625 78.125 46.3542 78.125 46.5625C78.125 46.7708 78.1458 47 78.1875 47.25C78.2708 47.5 78.3125 47.7292 78.3125 47.9375C78.6458 48.2708 78.8125 48.4375 78.8125 48.4375C78.8542 48.4375 78.875 48.4583 78.875 48.5C79.4583 48.5833 79.7708 48.6458 79.8125 48.6875C79.8958 48.7292 80.0208 48.7917 80.1875 48.875C80.3958 48.6667 80.6042 48.5 80.8125 48.375C81.0208 48.25 81.1667 48.0208 81.25 47.6875C81.6667 47.3125 81.9167 47.0625 82 46.9375C82.125 46.7708 82.2917 46.6458 82.5 46.5625C82.9167 46.0208 83.125 45.75 83.125 45.75C83.4583 45.5 83.6458 45.2917 83.6875 45.125C83.7708 44.9583 83.8542 44.7292 83.9375 44.4375C84.1458 44.2708 84.2708 44.1667 84.3125 44.125C84.3958 44.0417 84.4167 43.9167 84.375 43.75C84.4583 43.5833 84.5417 43.4375 84.625 43.3125C84.75 43.1458 84.8125 42.9583 84.8125 42.75C85.0208 42.6667 85.1458 42.5625 85.1875 42.4375C85.2708 42.2708 85.4167 42.1875 85.625 42.1875C85.6667 41.7708 85.7292 41.5417 85.8125 41.5C85.8958 41.4167 86.0208 41.375 86.1875 41.375C86.2708 40.9167 86.3542 40.5833 86.4375 40.375C86.5208 40.1667 86.6042 39.9583 86.6875 39.75C86.3958 39.4167 86.25 39.1667 86.25 39C85.9167 38.7917 85.7083 38.6875 85.625 38.6875C85.5833 38.6458 85.5417 38.5833 85.5 38.5C85.3333 38.4167 85.1667 38.3542 85 38.3125C84.875 38.2292 84.7292 38.1667 84.5625 38.125L84.25 38ZM107.625 49.875C107.75 50.3333 107.75 50.7708 107.625 51.1875C107.542 51.6042 107.625 52 107.875 52.375C107.792 52.5833 107.792 52.7917 107.875 53C107.958 53.1667 108 53.3542 108 53.5625C108.042 53.9375 108.104 54.1875 108.188 54.3125C108.312 54.4375 108.417 54.5833 108.5 54.75C108.333 55.0417 108.25 55.2292 108.25 55.3125C108.292 55.3958 108.312 55.4583 108.312 55.5C108.062 55.75 107.875 55.9167 107.75 56C107.333 56.375 107.042 56.5833 106.875 56.625L106.438 57.3125C106.104 57.6875 105.917 57.8542 105.875 57.8125C105.875 57.7708 105.833 57.75 105.75 57.75C105.667 57.8333 105.562 57.9375 105.438 58.0625C105.354 58.1875 105.271 58.2917 105.188 58.375C104.604 58.5 104.271 58.5625 104.188 58.5625C103.771 58.3542 103.542 58.1667 103.5 58C103.5 57.8333 103.458 57.6667 103.375 57.5C103.5 57.0833 103.521 56.7917 103.438 56.625C103.354 56.5 103.354 56.3542 103.438 56.1875C103.479 55.8542 103.396 55.4792 103.188 55.0625C103.271 54.8542 103.292 54.625 103.25 54.375C103.167 54.0833 103.104 53.8333 103.062 53.625C103.062 53.4167 103.104 53.25 103.188 53.125C103.104 53.0417 103.062 52.9167 103.062 52.75C103.062 52.5417 103.062 52.3333 103.062 52.125C102.979 51.625 102.938 51.3125 102.938 51.1875C102.979 51.0625 103 50.9375 103 50.8125C103 50.6875 102.958 50.5208 102.875 50.3125C102.833 50.1042 102.812 49.8958 102.812 49.6875C102.771 49.3125 102.75 49.0625 102.75 48.9375C102.792 48.7708 102.792 48.6042 102.75 48.4375C102.75 48.3542 102.75 48.25 102.75 48.125C102.75 48 102.729 47.8542 102.688 47.6875C102.688 47.6042 102.646 47.4792 102.562 47.3125C102.521 47.1458 102.5 46.9583 102.5 46.75C102.5 46.2083 102.458 45.8958 102.375 45.8125C102.333 45.6875 102.312 45.5625 102.312 45.4375C102.438 45.0625 102.479 44.8125 102.438 44.6875C102.396 44.5625 102.417 44.4583 102.5 44.375C102.375 44.1667 102.292 43.875 102.25 43.5C102.25 43.125 102.271 42.8125 102.312 42.5625C102.229 42.1042 102.188 41.8125 102.188 41.6875C102.188 41.5625 102.188 41.4167 102.188 41.25C102.062 40.9167 102 40.7292 102 40.6875C102.042 40.6458 102.062 40.5833 102.062 40.5C101.896 40.0417 101.812 39.7708 101.812 39.6875C101.854 39.5625 101.875 39.4583 101.875 39.375C101.625 38.75 101.5 38.3125 101.5 38.0625C101.542 37.8125 101.5 37.5833 101.375 37.375C101.458 37.1667 101.438 36.9792 101.312 36.8125C101.229 36.6458 101.167 36.5 101.125 36.375C101.042 35.75 100.917 35.3333 100.75 35.125C100.583 34.9167 100.458 34.6667 100.375 34.375C100.292 34.2917 100.208 34.2083 100.125 34.125C100.042 34.0417 99.9583 33.9167 99.875 33.75C99.375 33.6667 98.9583 33.6875 98.625 33.8125C98.2917 33.8958 97.9792 34.0417 97.6875 34.25C97.3542 34.5417 97.1042 34.7083 96.9375 34.75C96.7708 34.7917 96.6458 34.8958 96.5625 35.0625C96.3958 34.9792 96.25 34.8958 96.125 34.8125C96 34.6875 95.875 34.5833 95.75 34.5C95.7917 34.375 95.8333 34.25 95.875 34.125C95.9167 33.9583 95.9375 33.7917 95.9375 33.625C96.0208 33.5 96.1458 33.3958 96.3125 33.3125C96.4375 33.2292 96.5208 33.0833 96.5625 32.875C96.8125 32.75 96.9583 32.6458 97 32.5625C97 32.4792 97.0417 32.3958 97.125 32.3125C97.4167 31.9792 97.625 31.8125 97.75 31.8125C98 31.5625 98.1458 31.3958 98.1875 31.3125C98.2708 31.2292 98.3542 31.2083 98.4375 31.25C98.9375 30.7917 99.3333 30.4792 99.625 30.3125C99.9583 30.1458 100.292 30.0208 100.625 29.9375C100.75 29.9375 100.875 29.9375 101 29.9375C101.167 29.8958 101.292 29.9167 101.375 30C101.875 30 102.146 30.0417 102.188 30.125C102.271 30.1667 102.396 30.1458 102.562 30.0625C102.688 30.2292 102.896 30.3542 103.188 30.4375C103.271 30.6042 103.333 30.75 103.375 30.875C103.417 31 103.479 31.125 103.562 31.25C103.646 31.4167 103.75 31.5417 103.875 31.625C104 31.6667 104.104 31.75 104.188 31.875C104.438 32.2083 104.562 32.4583 104.562 32.625C104.729 33.0833 104.729 33.3125 104.562 33.3125C104.646 33.4375 104.729 33.5625 104.812 33.6875C104.938 33.8125 105 34 105 34.25C105.125 34.7083 105.229 35.1042 105.312 35.4375C105.396 35.7708 105.5 36.0417 105.625 36.25C105.75 36.75 105.854 37.0417 105.938 37.125L106.438 36.5C106.521 36.375 106.562 36.25 106.562 36.125C106.604 35.9583 106.667 35.8333 106.75 35.75C106.833 35.6667 106.917 35.5833 107 35.5C107.125 35.4167 107.229 35.3333 107.312 35.25C107.562 34.8333 107.688 34.5833 107.688 34.5C107.688 34.4167 107.75 34.3542 107.875 34.3125C107.917 34.1042 107.979 33.9583 108.062 33.875C108.146 33.7917 108.229 33.6875 108.312 33.5625C108.562 33.2708 108.729 32.9167 108.812 32.5C108.896 32.4167 108.958 32.3125 109 32.1875C109.083 32.0625 109.167 31.9583 109.25 31.875C109.333 31.75 109.417 31.6458 109.5 31.5625C109.583 31.4375 109.667 31.3125 109.75 31.1875C110.042 30.7292 110.229 30.4375 110.312 30.3125C110.396 30.1458 110.458 29.9583 110.5 29.75C110.667 29.5833 110.792 29.4792 110.875 29.4375C110.958 29.3542 111.021 29.25 111.062 29.125C111.479 28.6667 111.75 28.3958 111.875 28.3125C112.042 28.1875 112.125 28 112.125 27.75C112.667 27.5417 113.021 27.2292 113.188 26.8125C113.521 26.4375 113.771 26.2292 113.938 26.1875C114.146 26.1042 114.25 25.9167 114.25 25.625C114.5 25.6667 114.667 25.6458 114.75 25.5625C114.875 25.4375 115 25.3333 115.125 25.25C115.375 25.3333 115.542 25.2917 115.625 25.125C115.75 24.9167 115.896 24.7708 116.062 24.6875C116.688 24.5208 117.083 24.4167 117.25 24.375C117.458 24.2917 117.667 24.2292 117.875 24.1875C118.292 24.0625 118.604 23.9583 118.812 23.875C119.021 23.7917 119.208 23.7083 119.375 23.625C119.917 23.5833 120.25 23.5833 120.375 23.625C120.5 23.625 120.646 23.625 120.812 23.625C120.896 23.625 121.021 23.625 121.188 23.625C121.396 23.5833 121.542 23.6667 121.625 23.875C121.917 23.9167 122.125 24.0208 122.25 24.1875C122.417 24.3125 122.604 24.4167 122.812 24.5C122.854 24.7083 122.958 24.875 123.125 25C123.333 25.0833 123.417 25.2708 123.375 25.5625C123.458 25.6458 123.521 25.7917 123.562 26C123.604 26.2083 123.667 26.375 123.75 26.5C123.75 26.7917 123.708 26.9792 123.625 27.0625C123.583 27.1042 123.625 27.1458 123.75 27.1875C123.75 27.6458 123.729 27.875 123.688 27.875C123.688 27.8333 123.667 27.8542 123.625 27.9375C123.333 28.3542 123.188 28.6667 123.188 28.875C122.896 29.0833 122.729 29.25 122.688 29.375C122.604 29.625 122.542 29.7917 122.5 29.875C122.5 29.9167 122.458 29.9792 122.375 30.0625C122.042 30.4375 121.854 30.625 121.812 30.625C121.521 30.9583 121.354 31.1458 121.312 31.1875C121.146 31.4375 121.042 31.5833 121 31.625C121 31.6667 121 31.75 121 31.875C120.875 31.9583 120.75 32.0208 120.625 32.0625C120.5 32.1042 120.458 32.2292 120.5 32.4375C120.083 32.4792 119.812 32.6875 119.688 33.0625C119.188 33.4792 118.917 33.7292 118.875 33.8125C118.667 33.8125 118.5 33.8333 118.375 33.875C118.292 33.9167 118.167 33.9375 118 33.9375C118 34.2292 117.917 34.4375 117.75 34.5625C117.625 34.6875 117.521 34.8542 117.438 35.0625C117.104 35.2292 116.896 35.3542 116.812 35.4375C116.771 35.4792 116.771 35.5417 116.812 35.625C116.604 35.75 116.354 35.8542 116.062 35.9375C115.771 35.9792 115.562 36.1042 115.438 36.3125C115.521 35.8542 115.542 35.5417 115.5 35.375C115.792 35.0833 115.958 34.8958 116 34.8125C116.042 34.6875 116.125 34.5833 116.25 34.5C116.375 34.125 116.458 33.8958 116.5 33.8125C116.583 33.6875 116.667 33.5833 116.75 33.5C116.833 33.4167 116.896 33.3333 116.938 33.25C117.021 33.1667 117.062 33.0417 117.062 32.875C117.396 32.6667 117.583 32.5417 117.625 32.5C117.708 32.4167 117.75 32.3333 117.75 32.25C118.125 31.9583 118.333 31.8125 118.375 31.8125C118.417 31.7708 118.417 31.7083 118.375 31.625C118.708 31.2917 118.917 31.0625 119 30.9375C119.125 30.8125 119.229 30.6875 119.312 30.5625C119.354 30.2708 119.375 29.9792 119.375 29.6875C119.375 29.3958 119.396 29.125 119.438 28.875L119.062 28.1875C118.729 28.1458 118.479 28.0208 118.312 27.8125C118.188 27.8958 118.021 27.8958 117.812 27.8125C117.604 27.6875 117.417 27.6875 117.25 27.8125C116.292 27.6875 115.5 27.875 114.875 28.375C114.708 28.5 114.562 28.6042 114.438 28.6875C114.312 28.7292 114.229 28.8542 114.188 29.0625C113.854 29.0625 113.583 29.2083 113.375 29.5C113.25 29.9583 113.146 30.2292 113.062 30.3125C112.979 30.3958 112.979 30.4583 113.062 30.5C112.562 30.8333 112.312 31.0625 112.312 31.1875C112.312 31.2708 112.292 31.375 112.25 31.5C112.083 31.8333 111.958 32.0208 111.875 32.0625C111.792 32.0625 111.792 32.1042 111.875 32.1875C111.5 32.4375 111.292 32.6042 111.25 32.6875C111.25 32.7708 111.208 32.7917 111.125 32.75C111.083 32.9583 111 33.125 110.875 33.25C110.792 33.375 110.708 33.5 110.625 33.625C110.667 33.9583 110.625 34.2083 110.5 34.375C110.417 34.5417 110.354 34.75 110.312 35C109.896 35.5417 109.646 35.9167 109.562 36.125C109.479 36.2917 109.396 36.5 109.312 36.75C109.229 37 109.188 37.25 109.188 37.5C109.229 37.7083 109.188 37.8542 109.062 37.9375C109.021 38.2708 108.979 38.4792 108.938 38.5625C108.896 38.6458 108.833 38.7083 108.75 38.75C108.708 38.875 108.667 39.0208 108.625 39.1875C108.625 39.3125 108.583 39.3958 108.5 39.4375C108.542 39.8542 108.583 40.1875 108.625 40.4375C108.708 40.6458 108.667 40.8125 108.5 40.9375C108.417 41.3542 108.333 41.6875 108.25 41.9375C108.333 42.1458 108.375 42.3958 108.375 42.6875C108.25 42.9375 108.188 43.2083 108.188 43.5C108.021 43.8333 107.958 44.0833 108 44.25C108.042 44.375 108.042 44.5 108 44.625C108 44.7917 107.979 44.9375 107.938 45.0625C107.896 45.1875 107.854 45.3125 107.812 45.4375C107.812 45.6042 107.812 45.7708 107.812 45.9375C107.854 46.0625 107.854 46.2292 107.812 46.4375C107.812 46.7292 107.792 47.0208 107.75 47.3125C107.708 47.5625 107.688 47.8125 107.688 48.0625C107.646 48.3958 107.646 48.6042 107.688 48.6875C107.729 48.7292 107.75 48.7917 107.75 48.875L107.625 49.875ZM142.688 51.9375C142.771 52.3542 142.792 52.5833 142.75 52.625C142.708 52.625 142.708 52.6667 142.75 52.75L142.875 53.4375C143 53.6042 143.042 53.75 143 53.875C143 54 143.062 54.1042 143.188 54.1875C143.229 54.5625 143.271 54.7917 143.312 54.875C143.354 55 143.417 55.0833 143.5 55.125C143.458 55.3333 143.458 55.4792 143.5 55.5625C143.542 55.6458 143.583 55.7292 143.625 55.8125C143.875 56.1458 144.021 56.3125 144.062 56.3125C144.104 56.3542 144.125 56.4167 144.125 56.5C144.708 57.125 145.312 57.5417 145.938 57.75L147 58.0625C147.417 57.8542 147.625 57.75 147.625 57.75C148 57.5833 148.188 57.5208 148.188 57.5625C148.229 57.6458 148.292 57.6667 148.375 57.625C148.583 57.3333 148.708 57.1667 148.75 57.125C148.833 57.125 148.875 57.0833 148.875 57C149.083 57.3333 149.188 57.5417 149.188 57.625C149.188 57.75 149.125 57.8542 149 57.9375C149 58.1042 148.958 58.25 148.875 58.375C148.792 58.5417 148.729 58.6667 148.688 58.75C148.521 58.8333 148.375 58.9167 148.25 59C148.167 59.125 148.062 59.1875 147.938 59.1875C147.646 59.3958 147.479 59.5208 147.438 59.5625C147.438 59.6042 147.396 59.625 147.312 59.625C146.812 59.875 146.562 60 146.562 60C146.562 60.0417 146.521 60.1042 146.438 60.1875C146.188 60.1875 145.958 60.2708 145.75 60.4375C145.542 60.6042 145.333 60.6458 145.125 60.5625C144.5 60.6042 144.083 60.6667 143.875 60.75C143.708 60.875 143.542 60.9375 143.375 60.9375C143.042 60.8542 142.812 60.7292 142.688 60.5625C142.021 60.3958 141.479 60.3333 141.062 60.375C140.729 60.0417 140.542 59.8542 140.5 59.8125C140.458 59.7708 140.396 59.75 140.312 59.75C140.062 59.4583 139.771 59.2083 139.438 59C139.188 58.5 139.021 58.2083 138.938 58.125C138.854 58.0417 138.792 57.9167 138.75 57.75C138.667 57.4583 138.604 57.2708 138.562 57.1875C138.521 57.1458 138.5 57.0625 138.5 56.9375C138.458 56.5625 138.396 56.2708 138.312 56.0625C138.271 55.8958 138.229 55.7083 138.188 55.5C138.229 55.125 138.208 54.8542 138.125 54.6875C138.125 54.2292 138.083 53.875 138 53.625C137.958 53.375 137.938 53.1458 137.938 52.9375C137.938 52.7708 137.958 52.6042 138 52.4375C138.042 52.2292 138 52.0833 137.875 52C137.917 51.5417 137.938 51.3125 137.938 51.3125C137.979 51.2708 138 51.2083 138 51.125C138 51 137.979 50.875 137.938 50.75C137.896 50.625 137.854 50.4792 137.812 50.3125C137.771 50.1042 137.75 49.8958 137.75 49.6875C137.792 49.4375 137.792 49.2083 137.75 49C137.75 48.875 137.729 48.75 137.688 48.625C137.688 48.4583 137.688 48.3125 137.688 48.1875C137.729 47.7708 137.729 47.5208 137.688 47.4375C137.646 47.3542 137.625 47.25 137.625 47.125C137.625 46.75 137.604 46.5417 137.562 46.5C137.521 46.4583 137.5 46.4167 137.5 46.375C137.542 46.125 137.542 45.9792 137.5 45.9375C137.458 45.8542 137.438 45.7708 137.438 45.6875C137.354 45.3125 137.312 45.1042 137.312 45.0625C137.354 44.9792 137.375 44.8958 137.375 44.8125C137.292 44.4792 137.271 44.2708 137.312 44.1875C137.354 44.0625 137.333 43.9375 137.25 43.8125C137.25 43.3958 137.229 43.1667 137.188 43.125C137.146 43.0833 137.125 43.0417 137.125 43C137.167 42.75 137.167 42.5625 137.125 42.4375C137.125 42.3125 137.125 42.2083 137.125 42.125C136.958 41.625 136.875 41.2917 136.875 41.125C136.875 40.9583 136.854 40.7917 136.812 40.625C136.729 40.4167 136.646 40.2292 136.562 40.0625C136.521 39.8542 136.479 39.6458 136.438 39.4375C136.312 39.2292 136.188 39.0625 136.062 38.9375C135.938 38.7708 135.917 38.6042 136 38.4375C135.625 38.3125 135.438 38.2292 135.438 38.1875C135.479 38.1458 135.458 38.125 135.375 38.125C135 38.1667 134.75 38.2292 134.625 38.3125C134.458 38.7292 134.292 39 134.125 39.125C133.958 39.25 133.833 39.4375 133.75 39.6875C133.5 40.0208 133.354 40.2292 133.312 40.3125C133.271 40.3542 133.25 40.4792 133.25 40.6875C133 40.7292 132.833 40.8542 132.75 41.0625C132.708 41.2708 132.562 41.3958 132.312 41.4375C132.271 41.9375 132.208 42.2292 132.125 42.3125C132.083 42.3542 132.062 42.4583 132.062 42.625C131.854 42.7083 131.729 42.8333 131.688 43C131.646 43.1667 131.583 43.3542 131.5 43.5625C131.458 43.6875 131.375 43.8125 131.25 43.9375C131.167 44.0208 131.125 44.1667 131.125 44.375C130.917 44.625 130.792 44.7917 130.75 44.875C130.708 44.9167 130.708 45 130.75 45.125C130.5 45.5 130.375 45.7083 130.375 45.75C130.417 45.7917 130.417 45.8333 130.375 45.875C130.167 46.25 130.062 46.4583 130.062 46.5C129.979 46.6667 129.938 46.8125 129.938 46.9375C129.979 47.0625 129.979 47.2083 129.938 47.375C129.729 47.7917 129.604 48.0625 129.562 48.1875C129.521 48.2708 129.458 48.375 129.375 48.5C129.458 48.7083 129.458 48.8958 129.375 49.0625C129.333 49.1875 129.271 49.3125 129.188 49.4375C128.979 49.8958 128.875 50.25 128.875 50.5C128.875 50.7083 128.812 50.875 128.688 51C128.688 51.375 128.625 51.6458 128.5 51.8125C128.417 52.2292 128.396 52.4792 128.438 52.5625C128.479 52.6042 128.438 52.6042 128.312 52.5625C128.438 52.8125 128.542 53.1875 128.625 53.6875C128.625 53.8542 128.604 54.0417 128.562 54.25C128.562 54.4583 128.604 54.625 128.688 54.75C128.854 55.25 128.896 55.5417 128.812 55.625C128.771 55.7083 128.729 55.8125 128.688 55.9375C128.438 56.1875 128.25 56.375 128.125 56.5C127.708 56.7083 127.479 56.8333 127.438 56.875C127.104 57.1667 126.917 57.3542 126.875 57.4375C126.875 57.5208 126.833 57.6042 126.75 57.6875C126.333 57.8542 126.125 57.9792 126.125 58.0625C126.125 58.1458 126.083 58.1875 126 58.1875C125.667 58.4375 125.333 58.6042 125 58.6875C124.708 58.7708 124.458 58.7083 124.25 58.5C124.125 58.1667 124.021 57.9792 123.938 57.9375C123.896 57.8958 123.833 57.8333 123.75 57.75C124 57.375 124.083 57.1458 124 57.0625C123.958 56.9792 123.938 56.8958 123.938 56.8125C123.979 56.2292 123.979 55.7708 123.938 55.4375C123.938 55.1458 123.958 54.8958 124 54.6875C124.042 54.2708 124.042 54.0208 124 53.9375C123.958 53.8542 123.917 53.7708 123.875 53.6875C124 53.3125 124.021 53.0417 123.938 52.875C123.854 52.6667 123.812 52.4583 123.812 52.25C123.812 52.0833 123.833 51.9167 123.875 51.75C123.917 51.5833 123.875 51.4375 123.75 51.3125C123.708 50.8542 123.708 50.625 123.75 50.625C123.792 50.625 123.812 50.5833 123.812 50.5C123.854 50 123.812 49.5208 123.688 49.0625C123.604 48.5625 123.542 48.0625 123.5 47.5625C123.542 47.1042 123.542 46.8542 123.5 46.8125C123.5 46.7292 123.458 46.6667 123.375 46.625C123.458 46.4167 123.458 46.2292 123.375 46.0625C123.333 45.8542 123.333 45.625 123.375 45.375C123.25 44.8333 123.188 44.5208 123.188 44.4375C123.229 44.3542 123.208 44.2083 123.125 44C123.042 43.5 122.958 43.2083 122.875 43.125C122.833 43.0417 122.792 42.9583 122.75 42.875C122.75 42.6667 122.75 42.4375 122.75 42.1875C122.75 41.9375 122.708 41.7083 122.625 41.5L122.5 40.625C122.458 40.4583 122.396 40.3125 122.312 40.1875C122.229 40.0208 122.208 39.8542 122.25 39.6875C122.083 39.2292 121.979 38.9792 121.938 38.9375C121.896 38.8958 121.896 38.7917 121.938 38.625C121.729 38.3333 121.646 38.1667 121.688 38.125C121.771 38.0417 121.771 37.9583 121.688 37.875C121.188 37.6667 120.896 37.6458 120.812 37.8125C120.771 37.9375 120.646 37.9792 120.438 37.9375C120.021 38.1458 119.75 38.3125 119.625 38.4375C119.542 38.5208 119.438 38.6042 119.312 38.6875C119.104 38.6875 118.938 38.6667 118.812 38.625C118.688 38.5833 118.542 38.5417 118.375 38.5C118.292 38.2917 118.271 38.1042 118.312 37.9375C118.354 37.7708 118.417 37.5833 118.5 37.375C118.792 37.2083 118.958 37.1042 119 37.0625C119.042 37.0208 119.062 36.9375 119.062 36.8125C119.438 36.6042 119.667 36.4167 119.75 36.25C119.875 36.0833 119.979 35.8958 120.062 35.6875C120.479 35.6042 120.771 35.5 120.938 35.375C121.146 35.25 121.312 35.0833 121.438 34.875C121.646 34.8333 121.812 34.75 121.938 34.625C122.062 34.5 122.167 34.3542 122.25 34.1875C122.583 34.2292 122.771 34.2083 122.812 34.125C122.854 34.0417 122.917 33.9375 123 33.8125C123.208 33.8125 123.375 33.7708 123.5 33.6875C123.625 33.5625 123.729 33.4583 123.812 33.375C124.021 33.4583 124.208 33.5 124.375 33.5C124.542 33.5 124.688 33.5417 124.812 33.625C125.146 33.75 125.333 33.8542 125.375 33.9375C125.417 34.0208 125.479 34.0833 125.562 34.125C125.479 34.5417 125.542 34.8958 125.75 35.1875C126 35.4792 126.146 35.8542 126.188 36.3125C126.312 36.7292 126.417 37.0417 126.5 37.25C126.625 37.4583 126.708 37.6667 126.75 37.875C126.708 38.5833 126.729 39.0833 126.812 39.375C126.938 39.6667 127.021 39.9792 127.062 40.3125C126.938 40.6042 126.917 40.8125 127 40.9375C127.083 41.0208 127.146 41.125 127.188 41.25C127.188 41.6667 127.208 41.9375 127.25 42.0625C127.292 42.1458 127.271 42.1875 127.188 42.1875C127.271 42.7708 127.354 43.2083 127.438 43.5C127.521 43.7917 127.562 44.0625 127.562 44.3125C127.771 44.3125 127.896 44.2708 127.938 44.1875C127.979 44.0625 128.042 43.9583 128.125 43.875C128.167 43.7917 128.229 43.6458 128.312 43.4375C128.396 43.1875 128.479 43.0417 128.562 43C128.646 42.9167 128.729 42.7708 128.812 42.5625C128.896 42.3542 128.958 42.125 129 41.875C129.208 41.5 129.375 41.3125 129.5 41.3125C129.625 41.2708 129.708 41.1875 129.75 41.0625C129.875 40.8542 129.938 40.6875 129.938 40.5625C129.979 40.4375 130.083 40.3958 130.25 40.4375C130.417 40.1042 130.521 39.9167 130.562 39.875C130.646 39.8333 130.688 39.7917 130.688 39.75C130.729 39.5417 130.812 39.3958 130.938 39.3125C131.104 39.2292 131.146 39.1042 131.062 38.9375C131.479 38.5625 131.75 38.3333 131.875 38.25C132 38.1667 132.125 38.0625 132.25 37.9375C132.208 37.7292 132.25 37.625 132.375 37.625C132.5 37.625 132.562 37.5208 132.562 37.3125C133.021 36.9792 133.292 36.7708 133.375 36.6875C133.5 36.5625 133.625 36.4583 133.75 36.375C134.083 36.0833 134.25 35.9167 134.25 35.875C134.625 35.7917 134.854 35.6458 134.938 35.4375C135.354 35.3125 135.625 35.1875 135.75 35.0625C136.25 34.8542 136.583 34.7083 136.75 34.625C136.958 34.5417 137.125 34.4792 137.25 34.4375C137.625 34.4375 137.833 34.4583 137.875 34.5C137.958 34.5 138.062 34.5208 138.188 34.5625C138.688 34.6875 138.958 34.7292 139 34.6875C139.042 34.6458 139.104 34.625 139.188 34.625C139.438 35 139.604 35.1667 139.688 35.125C139.896 35.5417 140.062 35.7708 140.188 35.8125C140.229 36.0208 140.312 36.1875 140.438 36.3125C140.562 36.3958 140.625 36.5833 140.625 36.875C140.833 37.2917 140.938 37.5417 140.938 37.625C140.938 37.6667 140.958 37.7708 141 37.9375C141.125 38.2708 141.188 38.5208 141.188 38.6875C141.188 38.8125 141.208 38.9792 141.25 39.1875C141.375 39.5625 141.438 39.8542 141.438 40.0625C141.438 40.2292 141.458 40.4167 141.5 40.625C141.542 40.7917 141.583 40.9583 141.625 41.125C141.708 41.25 141.729 41.3958 141.688 41.5625L141.5 42.5625C141.708 43.0208 141.833 43.3542 141.875 43.5625C141.958 43.7292 142.021 43.9167 142.062 44.125C142.146 44.5833 142.208 44.9167 142.25 45.125C142.292 45.2917 142.292 45.4583 142.25 45.625C142.167 45.9583 142.125 46.2083 142.125 46.375C142.167 46.5417 142.188 46.6667 142.188 46.75C142.312 47.1667 142.354 47.5 142.312 47.75C142.312 47.9583 142.354 48.1458 142.438 48.3125C142.438 48.6458 142.438 48.875 142.438 49C142.438 49.125 142.438 49.25 142.438 49.375C142.479 49.7083 142.5 49.9375 142.5 50.0625C142.5 50.4792 142.5 50.7708 142.5 50.9375L142.688 51.9375Z" fill="white"/>
</g>
<path fill-rule="evenodd" clip-rule="evenodd" d="M71.5198 88.281C51.0041 90.5678 47.8329 90.9313 44.6606 91.2836C41.0781 91.6813 37.4941 92.0647 8.92721 95.1872C8.46688 95.2375 8.0539 94.8959 8.0048 94.4242C7.9557 93.9524 8.28906 93.5293 8.7494 93.4789C37.3153 90.3565 40.8987 89.9733 44.4805 89.5756C47.7132 89.2166 50.9447 88.846 72.5395 86.4393C73.548 86.3269 75.0254 86.1415 76.6317 85.94C78.2644 85.7352 80.0302 85.5137 81.5721 85.3351C83.0702 85.1615 84.3633 85.0279 85.0384 85.004C85.2007 84.9983 85.3739 84.9967 85.515 85.0129L85.5193 85.0134C85.5653 85.0186 85.7369 85.0378 85.9058 85.1335C85.9928 85.1828 86.2433 85.3446 86.3272 85.6939C86.4184 86.0736 86.2415 86.3545 86.1546 86.4626C86.0657 86.573 85.97 86.6377 85.9269 86.6652C85.8743 86.6989 85.8246 86.724 85.7868 86.7417C85.7112 86.777 85.6294 86.8073 85.5528 86.8332C85.3967 86.886 85.1901 86.9444 84.9375 87.0091C80.0641 88.2576 75.0709 89.296 70.0846 90.3329C67.8192 90.8041 65.5553 91.2749 63.3047 91.7649C56.5778 93.2297 49.9361 94.8729 43.5872 97.2256C43.7268 97.2148 43.868 97.2031 44.0116 97.1912L44.0292 97.1897C44.4163 97.1576 44.821 97.124 45.2242 97.1065C53.1844 96.7619 65.3512 95.5513 72.6576 94.8191C78.6324 94.2204 84.67 93.4183 90.7345 92.6127C101.063 91.2406 111.47 89.8582 121.778 89.4519C121.888 89.4476 121.974 89.4443 122.035 89.4426C122.064 89.4417 122.094 89.441 122.12 89.4409C122.128 89.4409 122.139 89.4409 122.152 89.4412C122.158 89.4413 122.166 89.4415 122.173 89.4418C122.184 89.4422 122.202 89.4431 122.224 89.4453L122.225 89.4454C122.239 89.4467 122.295 89.452 122.362 89.4701C122.389 89.4774 122.482 89.5027 122.586 89.568C122.657 89.612 123.013 89.8541 122.987 90.3482C122.965 90.7631 122.679 90.971 122.638 91.0006L122.636 91.002C122.556 91.0602 122.484 91.0902 122.46 91.1002C122.402 91.1237 122.355 91.1354 122.342 91.1386L122.341 91.1387C122.321 91.1436 122.305 91.147 122.295 91.1489C122.26 91.1555 122.225 91.1602 122.206 91.1626C122.161 91.1687 122.095 91.1765 122.021 91.1851L122.017 91.1856C121.713 91.2215 121.145 91.2883 120.491 91.3983C120.316 91.4277 120.136 91.46 119.955 91.4952C123.319 91.5441 126.707 91.4847 130.078 91.407C133.252 91.334 136.424 90.888 139.643 90.4355C139.777 90.4167 139.911 90.3978 140.046 90.3789C143.385 89.9102 146.773 89.4513 150.162 89.4513C150.625 89.4513 151 89.8359 151 90.3103C151 90.7847 150.625 91.1693 150.162 91.1693C146.904 91.1693 143.624 91.6106 140.273 92.081C140.129 92.1013 139.984 92.1216 139.84 92.1419C136.646 92.5911 133.388 93.0492 130.116 93.1246C126.202 93.2147 122.235 93.2812 118.299 93.1804C118.266 93.1795 118.227 93.1787 118.183 93.1778C117.9 93.1721 117.421 93.1623 117.035 93.1065C116.846 93.0793 116.512 93.0223 116.247 92.8463C116.101 92.7491 115.841 92.523 115.793 92.1233C115.762 91.8667 115.833 91.6557 115.919 91.502C107.643 92.0978 99.364 93.1987 91.0782 94.3006C84.9967 95.1093 78.9114 95.9185 72.8208 96.5289C65.53 97.2595 53.3115 98.4758 45.295 98.8229C44.9243 98.839 44.547 98.8703 44.1491 98.9033L44.1469 98.9035C43.7539 98.9361 43.341 98.9704 42.927 98.9879C42.1002 99.0229 41.2141 98.9947 40.3369 98.7338C40.2167 98.698 39.84 98.569 39.6782 98.1447C39.5026 97.684 39.7379 97.3166 39.8191 97.2062C39.9213 97.0674 40.0453 96.9651 40.1305 96.9009C40.2254 96.8293 40.3285 96.7634 40.4269 96.7054C40.8101 96.4793 41.3114 96.2615 41.5808 96.1563C48.4769 93.4643 55.7069 91.6631 62.9562 90.0845C65.24 89.5872 67.5219 89.1127 69.7962 88.6398C70.3713 88.5202 70.9458 88.4007 71.5198 88.281ZM41.1069 98.2984C41.107 98.2983 41.108 98.2973 41.1102 98.2955C41.108 98.2975 41.1069 98.2985 41.1069 98.2984Z" fill="#0081DE"/>
<defs>
<filter id="filter0_dd_0_1" x="0" y="0.375" width="153.188" height="84.875" filterUnits="userSpaceOnUse" color-interpolation-filters="sRGB">
<feFlood flood-opacity="0" result="BackgroundImageFix"/>
<feColorMatrix in="SourceAlpha" type="matrix" values="0 0 0 0 0 0 0 0 0 0 0 0 0 0 0 0 0 0 127 0" result="hardAlpha"/>
<feOffset dy="4"/>
<feGaussianBlur stdDeviation="2"/>
<feComposite in2="hardAlpha" operator="out"/>
<feColorMatrix type="matrix" values="0 0 0 0 0.5 0 0 0 0 0.5 0 0 0 0 0.5 0 0 0 0.25 0"/>
<feBlend mode="normal" in2="BackgroundImageFix" result="effect1_dropShadow_0_1"/>
<feColorMatrix in="SourceAlpha" type="matrix" values="0 0 0 0 0 0 0 0 0 0 0 0 0 0 0 0 0 0 127 0" result="hardAlpha"/>
<feOffset dy="4"/>
<feGaussianBlur stdDeviation="2"/>
<feComposite in2="hardAlpha" operator="out"/>
<feColorMatrix type="matrix" values="0 0 0 0 0 0 0 0 0 0 0 0 0 0 0 0 0 0 0.25 0"/>
<feBlend mode="normal" in2="effect1_dropShadow_0_1" result="effect2_dropShadow_0_1"/>
<feBlend mode="normal" in="SourceGraphic" in2="effect2_dropShadow_0_1" result="shape"/>
</filter>
</defs>
</svg>
