<svg width="8" height="8" viewBox="0 0 8 8" fill="none" xmlns="http://www.w3.org/2000/svg">
<path d="M3.86675 0.328192L3.73301 0.0770292L3.86634 0.328192H3.86675ZM0.307699 3.34289L0.614168 3.31907C0.607105 3.2476 0.569956 3.18134 0.510437 3.13406C0.450918 3.08678 0.373604 3.06211 0.294554 3.06517C0.215504 3.06824 0.140794 3.0988 0.0859417 3.15052C0.0310895 3.20223 0.000311237 3.27113 0 3.34289H0.307699ZM7.37904 4.02121L7.08939 5.53935L7.69617 5.63461L7.98541 4.11647L7.37904 4.02121ZM4.51087 7.44186H2.60355V8H4.51087V7.44186ZM2.22979 7.13042L1.89666 3.63535L1.28331 3.68335L1.61686 7.17842L2.22979 7.13042ZM7.08939 5.53935C6.88139 6.62958 5.79746 7.44186 4.51087 7.44186V8C6.08055 8 7.43442 7.00688 7.69617 5.63461L7.08939 5.53935ZM4.51497 1.43256L4.24297 2.93768L4.85016 3.02772L5.12217 1.52298L4.51497 1.43256ZM2.02589 3.34735L2.61626 2.88596L2.2142 2.46326L1.62465 2.92465L2.02589 3.34735ZM3.68993 1.38494L3.88522 0.702517L3.28951 0.56261L3.09422 1.24466L3.68993 1.38494ZM4.17979 0.568564L4.23927 0.586052L4.42759 0.0547036L4.3681 0.0372152L4.17979 0.568564ZM3.39413 2.07107C3.52228 1.85377 3.62158 1.62345 3.68993 1.38494L3.09422 1.24466C3.03813 1.44061 2.9566 1.62984 2.85135 1.80838L3.39454 2.07107H3.39413ZM4.23927 0.586052C4.29781 0.602143 4.35092 0.631385 4.39367 0.671066C4.43641 0.710746 4.46742 0.759578 4.48379 0.813029L5.0795 0.673122C5.03711 0.528566 4.95511 0.396073 4.84114 0.287955C4.72717 0.179837 4.58491 0.0996013 4.42759 0.0547036L4.23927 0.586052ZM3.88522 0.702517C3.89339 0.675716 3.9079 0.650851 3.92774 0.629647C3.94758 0.608443 3.97227 0.591408 4.00009 0.579726L3.73301 0.0770292C3.51475 0.172285 3.35064 0.348657 3.28951 0.56261L3.88522 0.702517ZM4.00009 0.579726C4.05624 0.555404 4.1205 0.551412 4.17979 0.568564L4.3681 0.0372152C4.15858 -0.023689 3.93129 -0.00944035 3.73301 0.0770292L3.99968 0.579726H4.00009ZM4.8838 3.62196H7.00898V3.06382H4.8838V3.62196ZM1.01295 7.49991L0.614168 3.31907L0.00123081 3.36707L0.399188 7.54791L1.01295 7.49991ZM0.615398 7.53972V3.34289H0V7.53972H0.615398ZM0.399188 7.54791C0.397937 7.53438 0.40021 7.52077 0.405069 7.50794C0.409928 7.4951 0.417678 7.48333 0.427825 7.47335C0.437972 7.46338 0.450294 7.45543 0.464011 7.45001C0.477727 7.44459 0.492536 7.44181 0.507499 7.44186V8C0.805351 8 1.03838 7.76856 1.01295 7.49991L0.399599 7.54828L0.399188 7.54791ZM5.12217 1.52298C5.17334 1.24009 5.1588 0.950625 5.0795 0.673122L4.48379 0.813401C4.54162 1.01557 4.55224 1.22646 4.51497 1.43256L5.12217 1.52298ZM2.60355 7.44186C2.5096 7.44171 2.41912 7.40966 2.34994 7.35201C2.28076 7.29436 2.2379 7.21531 2.22979 7.13042L1.61686 7.17842C1.63821 7.40248 1.75138 7.61114 1.93404 7.76324C2.1167 7.91533 2.35558 7.99981 2.60355 8V7.44186ZM2.61626 2.88596C2.89524 2.66791 3.19556 2.40856 3.39454 2.07107L2.85135 1.80838C2.70939 2.04986 2.48334 2.2534 2.2142 2.46326L2.61626 2.88596ZM7.98541 4.11647C8.01011 3.98735 8.00339 3.85489 7.96571 3.72837C7.92803 3.60186 7.86031 3.48434 7.76729 3.38406C7.67426 3.28378 7.55819 3.20315 7.4272 3.14784C7.29621 3.09252 7.15347 3.06384 7.00898 3.06382V3.62196C7.2416 3.62196 7.41924 3.81247 7.37904 4.02121L7.98541 4.11647ZM0.507499 7.44186C0.567397 7.44186 0.615398 7.48577 0.615398 7.53972H0C0 7.79349 0.226877 8 0.507499 8V7.44186ZM4.24297 2.93768C4.22767 3.02199 4.23278 3.1083 4.25795 3.19064C4.28311 3.27298 4.32773 3.34937 4.38869 3.4145C4.44966 3.47964 4.52553 3.53197 4.61102 3.56785C4.69651 3.60374 4.7896 3.62196 4.8838 3.62196V3.06382C4.8788 3.06384 4.87385 3.06323 4.86931 3.06132C4.86477 3.0594 4.86075 3.05661 4.85754 3.05313C4.85432 3.04964 4.852 3.04556 4.85072 3.04117C4.84945 3.03678 4.84926 3.03219 4.85016 3.02772L4.24297 2.93768ZM1.89666 3.63535C1.89159 3.58147 1.90028 3.52726 1.92282 3.47719C1.94536 3.42712 1.98069 3.38262 2.02589 3.34735L1.62383 2.92428C1.50486 3.01732 1.41195 3.13465 1.35275 3.26661C1.29355 3.39858 1.26975 3.54141 1.28331 3.68335L1.89666 3.63498V3.63535Z" fill="white"/>
</svg>

