<svg width="52" height="52" viewBox="0 0 52 52" fill="none" xmlns="http://www.w3.org/2000/svg">
<g clip-path="url(#clip0_597_1283)">
<path d="M31.7119 19.422C30.6102 19.422 29.7944 19.6998 29.1558 20.0508C29.0534 19.6868 28.7171 19.4203 28.3206 19.5H23.4716C22.9922 19.4203 22.6038 19.8087 22.7517 20.3125V38.1875C22.6038 38.6425 22.9922 39.0325 23.4716 39H28.3206C28.7999 39.0325 29.1883 38.6425 29.1883 38.1631L29.1867 27.3601C29.1851 27.3552 29.1672 26.8385 29.4938 26.4826C29.7554 26.1998 30.2056 26.0552 30.828 26.0552C31.8647 26.0552 32.3262 26.4793 32.4985 27.4283V38.1631C32.3278 38.6425 32.7162 39.0325 33.1956 39H38.3062C38.7856 39.0325 39.1739 38.6425 39.0017 38.1631V27.0676C39.1723 21.4256 35.1537 19.422 31.7119 19.422ZM37.4368 37.375H34.0633V27.4283C34.0633 25.5092 32.8235 24.3197 30.8296 24.3197C29.7018 24.3197 28.8243 24.6512 28.2198 25.3045C27.3797 26.2145 27.4447 27.3682 27.6251 27.625V37.375H24.3393V21.1575H27.4528V21.7035C27.4516 21.8661 27.4962 22.0258 27.5816 22.1642C27.667 22.3026 27.7898 22.4142 27.9357 22.4859C28.0817 22.5577 28.2449 22.5869 28.4067 22.5701C28.5685 22.5532 28.7223 22.4911 28.8503 22.3908L29.0778 22.2153C29.7359 21.697 30.4168 21.1591 31.7136 21.1591C33.0558 21.1591 37.4384 21.5865 37.4384 27.0692L37.4368 37.375ZM17.8751 11.3197C16.0518 11.3197 14.5698 12.8017 14.5698 14.625C14.5698 16.4482 16.0518 17.9302 17.8751 17.9302C19.6983 17.9302 21.1803 16.4482 21.1803 14.625C21.1803 12.8017 19.6983 11.3197 17.8751 11.3197ZM17.8751 16.1947C17.0106 16.1947 16.3053 15.4895 16.3053 14.625C16.3053 13.7605 17.0106 13.0552 17.8751 13.0552C18.7396 13.0552 19.4448 13.7605 19.4448 14.625C19.4448 15.4895 18.7396 16.1947 17.8751 16.1947ZM20.1956 19.4203H15.3726C14.8932 19.4203 14.5048 19.8087 14.6251 20.3125V38.1875C14.5048 38.6425 14.8932 39.0325 15.3726 39H20.1956C20.675 39.0325 21.0633 38.6425 21.0633 38.1631V20.2881C21.0633 20.0579 20.9719 19.8372 20.8092 19.6745C20.6464 19.5118 20.4257 19.4203 20.1956 19.4203ZM19.5001 37.375H16.2403V21.1575H19.5001V37.375Z" fill="white"/>
<path d="M26.0001 -0.0552979C11.6318 -0.0552979 -0.0551758 11.6317 -0.0551758 26C-0.0551758 40.3682 11.6318 52.0552 26.0001 52.0552C40.3683 52.0552 52.0553 40.3682 52.0553 26C52.0553 11.6317 40.3683 -0.0552979 26.0001 -0.0552979ZM26.0001 50.3197C12.5906 50.3197 1.68032 39.4095 1.68032 26C1.68032 12.5905 12.5906 1.6802 26.0001 1.6802C39.4096 1.6802 50.3198 12.5905 50.3198 26C50.3198 39.4095 39.4096 50.3197 26.0001 50.3197Z" fill="white"/>
</g>
<defs>
<clipPath id="clip0_597_1283">
<rect width="52" height="52" fill="white"/>
</clipPath>
</defs>
</svg>
