<svg width="55" height="54" viewBox="0 0 55 54" fill="none" xmlns="http://www.w3.org/2000/svg">
<g id="INNOX2.0 1" clip-path="url(#clip0_64_110)">
<g id="Layer 2">
<g id="Layer 1">
<g id="Group">
<g id="Group_2">
<g id="Clip path group">
<mask id="mask0_64_110" style="mask-type:luminance" maskUnits="userSpaceOnUse" x="17" y="26" width="12" height="18">
<g id="clip-path">
<path id="Vector" d="M28.6519 43.5554L26.3223 41.5074C26.2223 41.4179 26.1351 41.3122 26.064 41.1937C24.7119 38.9271 23.3771 36.651 22.0336 34.3796L17.6544 27.0095C17.6204 26.9393 17.5915 26.8662 17.5683 26.7909L19.8979 28.8389C19.9195 28.915 19.9483 28.9882 19.984 29.0575L24.3674 36.4276C25.7109 38.7038 27.0414 40.9752 28.3935 43.2418C28.4659 43.3592 28.5529 43.4647 28.6519 43.5554Z" fill="white"/>
</g>
</mask>
<g mask="url(#mask0_64_110)">
<g id="Group_3">
<g id="Group_4">
<path id="Vector_2" d="M28.6519 43.5554L26.3223 41.5074C26.2223 41.4179 26.1351 41.3122 26.064 41.1937C24.7119 38.9271 23.3771 36.651 22.0336 34.3796L17.6544 27.0095C17.6204 26.9393 17.5915 26.8662 17.5683 26.7909L19.8979 28.8389C19.9195 28.915 19.9483 28.9882 19.984 29.0575L24.3674 36.4276C25.7109 38.7038 27.0414 40.9752 28.3935 43.2418C28.4659 43.3592 28.5529 43.4647 28.6519 43.5554Z" fill="#858585"/>
</g>
</g>
</g>
</g>
</g>
<g id="Group_5">
<g id="Clip path group_2">
<mask id="mask1_64_110" style="mask-type:luminance" maskUnits="userSpaceOnUse" x="17" y="24" width="4" height="5">
<g id="clip-path-2">
<path id="Vector_3" d="M17.9688 24.2344L20.3026 26.2872C20.6643 26.6056 20.9313 27.019 20.7332 27.5084C20.4975 27.9779 20.2221 28.4218 19.9108 28.8342L17.5813 26.7861C17.8927 26.3722 18.1681 25.9267 18.4037 25.4556C18.5975 24.9757 18.3348 24.5623 17.9688 24.2344Z" fill="white"/>
</g>
</mask>
<g mask="url(#mask1_64_110)">
<g id="Group_6">
<g id="Group_7">
<path id="Vector_4" d="M19.9108 28.8394L17.5813 26.7914C17.8927 26.3774 18.1681 25.9319 18.4037 25.4609C18.5975 24.9857 18.3348 24.5627 17.9731 24.2396L20.3069 26.2924C20.6686 26.6108 20.9356 27.0242 20.7375 27.5136C20.5018 27.9832 20.2265 28.427 19.9151 28.8394" fill="#858585"/>
</g>
</g>
</g>
</g>
</g>
<g id="Group_8">
<g id="Clip path group_3">
<mask id="mask2_64_110" style="mask-type:luminance" maskUnits="userSpaceOnUse" x="16" y="23" width="5" height="3">
<g id="clip-path-3">
<path id="Vector_5" d="M19.0711 25.5174L16.7373 23.4646C16.913 23.452 17.0894 23.4631 17.2626 23.4979C17.6504 23.611 18.0291 23.7588 18.3951 23.9398L20.7246 25.9926C20.3594 25.8095 19.9805 25.6617 19.5922 25.5507C19.4209 25.5115 19.2453 25.5003 19.0711 25.5174Z" fill="white"/>
</g>
</mask>
<g mask="url(#mask2_64_110)">
<g id="Group_9">
<g id="Group_10">
<path id="Vector_6" d="M19.0711 25.5179L16.7373 23.4651H16.832L19.1659 25.5132H19.0711" fill="#949494"/>
<path id="Vector_7" d="M19.1659 25.5078L16.832 23.4598C16.9458 23.4559 17.0597 23.4638 17.1722 23.4836L19.5017 25.5316C19.3899 25.5222 19.2777 25.5222 19.1659 25.5316" fill="#999999"/>
<path id="Vector_8" d="M19.5017 25.5317L17.1722 23.4836H17.2626C17.4691 23.5323 17.6709 23.6023 17.8655 23.6927L20.195 25.755C20.001 25.664 19.799 25.5956 19.5922 25.5507H19.5017" fill="#9E9E9E"/>
<path id="Vector_9" d="M20.195 25.755L17.8655 23.7069L18.2358 23.8733L20.5653 25.9261L20.195 25.755Z" fill="#A3A3A3"/>
<path id="Vector_10" d="M20.5653 25.9261L18.2358 23.8733L18.3951 23.9398L20.7246 25.9926L20.5653 25.9261Z" fill="#9E9E9E"/>
</g>
</g>
</g>
</g>
</g>
<path id="Vector_11" d="M19.0711 25.5174C19.2453 25.5003 19.4209 25.5115 19.5921 25.5507C19.9805 25.6617 20.3594 25.8095 20.7246 25.9926C20.7634 26.0544 20.8064 26.1066 20.8452 26.1684C21.7279 27.6272 22.6192 29.0813 23.4933 30.5449C25.7755 34.397 28.0533 38.2492 30.3269 42.1014C30.4119 42.2246 30.4706 42.3675 30.4987 42.5192C30.5269 42.671 30.5236 42.8278 30.4893 42.978C30.455 43.1282 30.3904 43.2679 30.3004 43.3868C30.2104 43.5057 30.0973 43.6007 29.9695 43.6647C29.8166 43.7564 29.6478 43.8115 29.4743 43.8263C29.2628 43.8486 29.0498 43.8058 28.8591 43.7026C28.6683 43.5994 28.5071 43.4399 28.3935 43.2418C27.0414 40.9752 25.7109 38.7038 24.3674 36.4277L19.9969 29.0575C19.9613 28.9882 19.9324 28.915 19.9108 28.8389C20.2221 28.4266 20.4975 27.9827 20.7332 27.5132C20.9442 26.9857 20.6169 26.5628 20.2079 26.2159C19.9651 26.0003 19.6576 25.8934 19.3467 25.9166C19.1863 25.9334 19.0309 25.9868 18.8903 26.0734C18.7188 26.1605 18.5418 26.2335 18.3606 26.292L18.1841 25.9118C18.4323 25.676 18.7441 25.5374 19.0711 25.5174Z" fill="#DEDEDE"/>
<g id="Group_11">
<g id="Clip path group_4">
<mask id="mask3_64_110" style="mask-type:luminance" maskUnits="userSpaceOnUse" x="15" y="23" width="4" height="4">
<g id="clip-path-4">
<path id="Vector_12" d="M18.3822 26.292L16.0526 24.2344L15.8761 23.8543L18.2056 25.9023L18.3822 26.292Z" fill="white"/>
</g>
</mask>
<g mask="url(#mask3_64_110)">
<g id="Group_12">
<g id="Group_13">
<path id="Vector_13" d="M18.3822 26.292L16.0526 24.2344L15.8761 23.8543L18.2056 25.9023L18.3822 26.2825" fill="#858585"/>
</g>
</g>
</g>
</g>
</g>
<g id="Group_14">
<g id="Clip path group_5">
<mask id="mask4_64_110" style="mask-type:luminance" maskUnits="userSpaceOnUse" x="15" y="23" width="5" height="3">
<g id="clip-path-5">
<path id="Vector_14" d="M18.2056 25.9123L15.8761 23.8643C16.1158 23.6307 16.4184 23.4905 16.7373 23.4651L19.0711 25.5179C18.7516 25.543 18.448 25.6813 18.2056 25.9123Z" fill="white"/>
</g>
</mask>
<g mask="url(#mask4_64_110)">
<g id="Group_15">
<g id="Group_16">
<path id="Vector_15" d="M18.2056 25.9118L15.8761 23.8638C15.9424 23.7953 16.0162 23.7363 16.0957 23.688L18.4252 25.736C18.3476 25.7876 18.2741 25.8464 18.2056 25.9118Z" fill="#858585"/>
<path id="Vector_16" d="M18.4252 25.736L16.0957 23.688C16.1721 23.6367 16.2529 23.5937 16.3368 23.5597L18.6664 25.6125C18.5825 25.6448 18.5017 25.6862 18.4252 25.736Z" fill="#8A8A8A"/>
<path id="Vector_17" d="M18.6663 25.6124L16.3368 23.5597L16.5693 23.4884L18.9032 25.5412C18.8221 25.5554 18.7427 25.5793 18.6663 25.6124Z" fill="#8F8F8F"/>
<path id="Vector_18" d="M18.9032 25.5412L16.5694 23.4884H16.7373L19.0711 25.5412C19.0152 25.5362 18.9591 25.5362 18.9032 25.5412Z" fill="#949494"/>
</g>
</g>
</g>
</g>
</g>
</g>
<g id="Group_17">
<g id="Group_18">
<g id="Clip path group_6">
<mask id="mask5_64_110" style="mask-type:luminance" maskUnits="userSpaceOnUse" x="19" y="40" width="24" height="14">
<g id="clip-path-6">
<path id="Vector_19" d="M22.3479 53.7814L20.0141 51.7334C19.8611 51.5777 19.7604 51.3694 19.7283 51.1425C19.6963 50.9155 19.7348 50.6833 19.8376 50.4836C19.9624 50.2457 20.1326 50.0405 20.3362 49.8821C20.5399 49.7238 20.7723 49.6161 21.0174 49.5665C22.0681 49.4287 23.123 49.3194 24.178 49.2244C25.2329 49.1293 26.3998 49.0296 27.5108 48.925L32.6263 48.4498C33.763 48.3453 34.8955 48.236 36.0323 48.1172C36.6988 48.045 37.3425 47.8102 37.9166 47.4296C38.4908 47.0491 38.9811 46.5325 39.352 45.9171C39.7229 45.3017 39.9652 44.603 40.0613 43.8716C40.1574 43.1401 40.1049 42.3942 39.9076 41.6879C39.8086 41.3221 39.4168 41.056 39.1584 40.7376L41.4879 42.7904C41.7463 43.0992 42.1381 43.3606 42.2415 43.7407C42.4379 44.447 42.4898 45.1927 42.3934 45.9238C42.2969 46.6549 42.0546 47.3532 41.6838 47.9684C41.313 48.5835 40.823 49.1001 40.2493 49.4809C39.6755 49.8616 39.0323 50.097 38.3661 50.17C37.2322 50.2904 36.0969 50.4013 34.9601 50.5026C33.2377 50.6642 31.5498 50.8115 29.8446 50.9778L26.5118 51.2724C25.4568 51.3722 24.4019 51.4768 23.3512 51.6146C23.1062 51.6642 22.8738 51.7718 22.6701 51.9302C22.4664 52.0885 22.2962 52.2937 22.1714 52.5317C22.0694 52.7316 22.0313 52.9636 22.0633 53.1903C22.0954 53.417 22.1956 53.6252 22.3479 53.7814Z" fill="white"/>
</g>
</mask>
<g mask="url(#mask5_64_110)">
<g id="Group_19">
<g id="Group_20">
<path id="Vector_20" d="M22.3479 53.7814L20.0141 51.7333C19.8611 51.5776 19.7604 51.3694 19.7283 51.1424C19.6963 50.9155 19.7348 50.6833 19.8376 50.4836C19.9808 50.192 20.1977 49.9526 20.4619 49.7946L22.7915 51.8426C22.5281 52.002 22.3115 52.241 22.1671 52.5317C22.0656 52.7321 22.0282 52.9644 22.061 53.1911C22.0939 53.4179 22.1949 53.6258 22.3479 53.7814Z" fill="#858585"/>
<path id="Vector_21" d="M22.7914 51.8426L20.4619 49.7946C20.5556 49.7309 20.6552 49.6783 20.759 49.6378L23.0885 51.6858C22.9855 51.7283 22.8861 51.7808 22.7914 51.8426Z" fill="#8A8A8A"/>
<path id="Vector_22" d="M23.0886 51.6858L20.759 49.6378C20.8218 49.6107 20.8866 49.59 20.9528 49.576L23.2823 51.6288C23.2165 51.6423 23.1517 51.6613 23.0886 51.6858Z" fill="#8F8F8F"/>
<path id="Vector_23" d="M23.2823 51.6288L20.9528 49.576H21.0174C22.0681 49.4382 23.123 49.3289 24.178 49.2339C25.2329 49.1389 26.3999 49.0391 27.5108 48.9345L32.6263 48.4593C33.763 48.3548 34.8955 48.2455 36.0323 48.1267C36.1744 48.1267 36.3122 48.0887 36.4629 48.0602L38.7924 50.113C38.6546 50.1415 38.5168 50.1605 38.3618 50.1748C37.2279 50.2951 36.0926 50.406 34.9558 50.5074C33.2334 50.6689 31.5455 50.8163 29.8403 50.9826L26.5075 51.2772C25.4525 51.377 24.3976 51.4815 23.3469 51.6193H23.2823" fill="#949494"/>
<path id="Vector_24" d="M38.7795 50.1177L36.45 48.0649C36.6875 48.0177 36.9209 47.9477 37.1475 47.8558L39.477 49.8944C39.2499 49.9856 39.0167 50.0571 38.7795 50.1082" fill="#8F8F8F"/>
<path id="Vector_25" d="M39.477 49.8944L37.1475 47.8463C37.4056 47.7444 37.6549 47.6172 37.8925 47.4662L40.222 49.5142C39.9847 49.6716 39.7337 49.8021 39.4727 49.9039" fill="#8A8A8A"/>
<path id="Vector_26" d="M40.2263 49.5142L37.8925 47.4662C38.7683 46.8969 39.4445 46.0182 39.8118 44.9722C40.179 43.9262 40.2158 42.7741 39.9163 41.7022C39.8172 41.3363 39.4254 41.0702 39.167 40.7518L41.4965 42.8046C41.7549 43.1135 42.1467 43.3749 42.2501 43.755C42.5493 44.8274 42.5118 45.9799 42.1438 47.026C41.7757 48.072 41.0986 48.9504 40.222 49.519" fill="#858585"/>
</g>
</g>
</g>
</g>
</g>
<g id="Group_21">
<g id="Clip path group_7">
<mask id="mask6_64_110" style="mask-type:luminance" maskUnits="userSpaceOnUse" x="21" y="12" width="21" height="31">
<g id="clip-path-7">
<path id="Vector_27" d="M21.9604 12.7254L24.2942 14.7782C24.895 15.3481 25.4146 16.0145 25.8357 16.755C30.9713 25.0581 36.1055 33.3564 41.2382 41.6499C41.3854 42.0186 41.4743 42.4123 41.5008 42.8141L39.1842 40.7613C39.1535 40.3603 39.0648 39.9673 38.9216 39.5971C33.7889 31.2909 28.6518 23.0021 23.5105 14.7307C23.0884 13.9799 22.5658 13.3038 21.9604 12.7254Z" fill="white"/>
</g>
</mask>
<g mask="url(#mask6_64_110)">
<g id="Group_22">
<g id="Group_23">
<path id="Vector_28" d="M41.5008 42.8141L39.1842 40.7613C39.1535 40.3603 39.0648 39.9673 38.9216 39.5971C33.7889 31.2909 28.6518 23.0021 23.5105 14.7307C23.0884 13.9799 22.5658 13.3038 21.9604 12.7254L24.2942 14.7782C24.895 15.3481 25.4146 16.0145 25.8357 16.755C30.9713 25.0581 36.1055 33.3564 41.2382 41.6499C41.3854 42.0186 41.4743 42.4123 41.5008 42.8141Z" fill="#858585"/>
</g>
</g>
</g>
</g>
</g>
<g id="Group_24">
<g id="Clip path group_8">
<mask id="mask7_64_110" style="mask-type:luminance" maskUnits="userSpaceOnUse" x="18" y="9" width="8" height="4">
<g id="clip-path-8">
<path id="Vector_29" d="M23.4589 10.7962L25.7927 12.83C24.4595 11.6424 22.7638 11.0657 21.0562 11.2191L18.7223 9.17106C20.4318 9.02067 22.128 9.60267 23.4589 10.7962Z" fill="white"/>
</g>
</mask>
<g mask="url(#mask7_64_110)">
<g id="Group_25">
<g id="Group_26">
<path id="Vector_30" d="M21.0562 11.2333L18.7223 9.1853C18.8429 9.1853 18.9635 9.1853 19.084 9.1853L21.4135 11.2333L21.0562 11.2571" fill="#949494"/>
<path id="Vector_31" d="M21.4135 11.2093L19.084 9.16128C19.4655 9.14934 19.8473 9.17319 20.2251 9.23256L22.5546 11.2854C22.1769 11.2243 21.7952 11.1988 21.4135 11.2093Z" fill="#999999"/>
<path id="Vector_32" d="M22.5546 11.2856L20.238 9.23282C20.7584 9.32492 21.2672 9.48441 21.7537 9.708L24.0703 11.737C23.5836 11.5191 23.0746 11.3675 22.5546 11.2856Z" fill="#9E9E9E"/>
<path id="Vector_33" d="M24.0703 11.737L21.7408 9.689C22.3619 9.96077 22.9425 10.334 23.4632 10.7962L25.7927 12.83C25.2691 12.3725 24.6892 11.9997 24.0703 11.7228" fill="#A3A3A3"/>
</g>
</g>
</g>
</g>
</g>
<path id="Vector_34" d="M21.0561 11.2334C22.2765 11.1341 23.4987 11.3978 24.5954 11.997C25.692 12.5963 26.6229 13.5091 27.2912 14.6404L43.2835 40.3907C45.9403 44.6674 44.8982 49.7281 40.8635 52.0137C40.2773 52.2914 39.6709 52.5139 39.0507 52.679C38.7452 52.6185 38.4354 52.5883 38.1249 52.5887L33.6295 53.0021L22.7828 54.0095C22.6369 53.9902 22.4979 53.9301 22.379 53.8348C22.2601 53.7395 22.1653 53.6122 22.1036 53.465C22.0418 53.3178 22.0153 53.1557 22.0264 52.994C22.0375 52.8323 22.0859 52.6764 22.1671 52.5412C22.2919 52.3032 22.4621 52.098 22.6657 51.9397C22.8694 51.7813 23.1018 51.6737 23.3469 51.6241C24.3975 51.4863 25.4525 51.3817 26.5075 51.2819L29.8403 50.9873C31.5627 50.8305 33.2506 50.6832 34.9558 50.5121C36.104 50.4076 37.2393 50.2967 38.3618 50.1795C39.028 50.1065 39.6712 49.8711 40.2449 49.4904C40.8187 49.1096 41.3086 48.593 41.6794 47.9779C42.0502 47.3627 42.2926 46.6644 42.389 45.9333C42.4855 45.2022 42.4336 44.4565 42.2371 43.7503C42.1338 43.3844 41.7419 43.123 41.4836 42.7999C41.457 42.3981 41.3682 42.0043 41.2209 41.6357C36.1083 33.339 30.9799 25.0454 25.8357 16.755C25.0219 15.434 24.1134 14.2508 22.6192 13.9039C22.1528 13.7916 21.674 13.7564 21.1982 13.7994C20.5067 13.8612 19.837 14.0962 19.2401 14.4864C18.6432 14.8767 18.1348 15.4121 17.7535 16.0517C17.2517 16.8943 16.9876 17.8821 16.9945 18.8903C17.0014 19.8985 17.279 20.8818 17.7922 21.7159C19.9969 25.2957 22.2116 28.8801 24.4363 32.4694C24.4363 32.5549 24.4363 32.6404 24.4363 32.726C24.4363 34.085 24.4363 35.4424 24.4363 36.7983C22.5675 33.8189 20.6686 30.8395 18.8041 27.8506C17.8568 26.3395 16.931 24.8094 15.988 23.2935C15.2867 22.1913 14.8605 20.9048 14.7521 19.5633C14.6436 18.2217 14.8569 16.8723 15.3703 15.6505C15.8838 14.4286 16.6794 13.3773 17.6774 12.602C18.6754 11.8267 19.8406 11.3547 21.0561 11.2334Z" fill="#DEDEDE"/>
<g id="Group_27">
<g id="Clip path group_9">
<mask id="mask8_64_110" style="mask-type:luminance" maskUnits="userSpaceOnUse" x="12" y="9" width="13" height="28">
<g id="clip-path-9">
<path id="Vector_35" d="M24.4492 36.7983L22.1197 34.7502C20.238 31.7661 18.3477 28.7867 16.4746 25.8025C15.5273 24.2914 14.5972 22.7613 13.6585 21.2407C13.1264 20.4122 12.7493 19.4749 12.5492 18.4836C12.3492 17.4924 12.3301 16.4671 12.4933 15.4676C12.6565 14.4682 12.9986 13.5147 13.4995 12.6628C14.0005 11.8109 14.6503 11.0778 15.411 10.5063C16.3917 9.75534 17.5332 9.29998 18.7223 9.1853L21.0561 11.2333C19.842 11.3556 18.6784 11.8278 17.6816 12.6026C16.6849 13.3773 15.8901 14.4274 15.3769 15.6478C14.8637 16.8682 14.65 18.2159 14.7572 19.5561C14.8645 20.8963 15.2889 22.1818 15.988 23.284C16.931 24.7999 17.8568 26.33 18.8041 27.8411C20.6686 30.8395 22.5675 33.8189 24.4492 36.7983Z" fill="white"/>
</g>
</mask>
<g mask="url(#mask8_64_110)">
<g id="Group_28">
<g id="Group_29">
<path id="Vector_36" d="M24.4492 36.7983L22.1197 34.7503C20.238 31.7661 18.3477 28.7867 16.4746 25.8025C15.5273 24.2914 14.5972 22.7613 13.6585 21.2407C13.1264 20.4122 12.7493 19.4749 12.5492 18.4837C12.3492 17.4924 12.3301 16.4671 12.4933 15.4676C12.6565 14.4682 12.9986 13.5147 13.4995 12.6628C14.0005 11.8109 14.6503 11.0778 15.411 10.5063C15.5445 10.4018 15.6823 10.3067 15.8416 10.2165L18.1711 12.2693C18.0334 12.3595 17.8956 12.4546 17.7621 12.5544C17.0012 13.1249 16.3509 13.8568 15.8489 14.7074C15.3469 15.5581 15.0034 16.5104 14.8382 17.5091C14.6731 18.5077 14.6898 19.5326 14.8872 20.5241C15.0846 21.5156 15.4588 22.4538 15.988 23.284C16.931 24.7999 17.8568 26.33 18.8041 27.8411C20.6686 30.8395 22.5675 33.8189 24.4492 36.7983Z" fill="#858585"/>
<path id="Vector_37" d="M18.1496 12.2693L15.8201 10.2165C16.1961 9.96952 16.5926 9.76267 17.0042 9.59872L19.3338 11.6515C18.9229 11.8174 18.5265 12.0241 18.1496 12.2693Z" fill="#8A8A8A"/>
<path id="Vector_38" d="M19.3338 11.6515L17.0042 9.59872C17.3438 9.46497 17.6922 9.36013 18.0463 9.2851L20.3801 11.3331C20.0244 11.4092 19.6745 11.5156 19.3338 11.6515Z" fill="#8F8F8F"/>
<path id="Vector_39" d="M20.3801 11.3331L18.0463 9.28509C18.2698 9.23816 18.4955 9.20484 18.7223 9.1853L21.0561 11.2333C20.8279 11.2333 20.6255 11.2904 20.3801 11.3331Z" fill="#949494"/>
</g>
</g>
</g>
</g>
</g>
</g>
<g id="Group_30">
<g id="Group_31">
<g id="Clip path group_10">
<mask id="mask9_64_110" style="mask-type:luminance" maskUnits="userSpaceOnUse" x="3" y="39" width="19" height="11">
<g id="clip-path-10">
<path id="Vector_40" d="M5.72696 48.5021L3.39313 46.4541C4.12815 47.0979 5.05372 47.4175 5.99022 47.3508C6.92672 47.2841 7.80736 46.8358 8.46124 46.0929C9.61093 44.7862 10.6788 43.3939 11.7854 42.0396C12.9234 40.5573 14.5413 39.6246 16.2938 39.4403C16.9123 39.3872 17.5344 39.4208 18.1453 39.5401C18.3646 39.5696 18.5727 39.6631 18.7482 39.811L21.0992 41.8163C20.9213 41.673 20.7144 41.58 20.4964 41.5454C19.8853 41.4276 19.2632 41.3957 18.6448 41.4504C16.8783 41.6369 15.2509 42.5887 14.1193 44.0971C13.0083 45.4514 11.9448 46.8437 10.7908 48.1457C10.1386 48.8904 9.25797 49.3397 8.32137 49.4056C7.38478 49.4715 6.45961 49.1493 5.72696 48.5021Z" fill="white"/>
</g>
</mask>
<g mask="url(#mask9_64_110)">
<g id="Group_32">
<g id="Group_33">
<path id="Vector_41" d="M5.72696 48.5021L3.39313 46.454C3.68281 46.7003 4.00336 46.8987 4.34474 47.0433L6.67427 49.0961C6.33342 48.9431 6.01436 48.7366 5.72696 48.4831" fill="#005FA3"/>
<path id="Vector_42" d="M6.67425 49.1151L4.34473 47.0433C4.62152 47.1663 4.91063 47.2525 5.20592 47.2999L7.53544 49.3527C7.24026 49.3047 6.95121 49.2186 6.67425 49.0961" fill="#005C9E"/>
<path id="Vector_43" d="M7.53546 49.3717L5.20593 47.3189C5.42273 47.3522 5.64159 47.3665 5.86044 47.3616L8.18135 49.4192C7.96259 49.4277 7.74358 49.415 7.52684 49.3812" fill="#005999"/>
<path id="Vector_44" d="M8.18133 49.4192L5.85181 47.3711C5.92064 47.3759 5.98966 47.3759 6.05849 47.3711C6.18726 47.3618 6.31531 47.3427 6.44172 47.3141L8.77125 49.3669C8.64637 49.3669 8.51719 49.4097 8.38802 49.4239L8.18133 49.4192Z" fill="#005694"/>
<path id="Vector_45" d="M8.7799 49.3432L6.45898 47.2904C6.65706 47.2508 6.85159 47.1919 7.04029 47.1146L9.36981 49.1674C9.18047 49.2425 8.98612 49.3013 8.78851 49.3432" fill="#00538F"/>
<path id="Vector_46" d="M9.3612 49.1674L7.03168 47.1146C7.25025 47.0277 7.46077 46.9179 7.66035 46.7867L9.98987 48.8395C9.79029 48.9707 9.57977 49.0805 9.3612 49.1674Z" fill="#00508A"/>
<path id="Vector_47" d="M9.98986 48.8395L7.66034 46.7867C7.95284 46.5937 8.22196 46.3606 8.46125 46.0929C9.61094 44.7861 10.6788 43.3938 11.7854 42.0396C12.3189 41.3795 12.9386 40.8109 13.6241 40.3527L15.9536 42.4055C15.2677 42.8611 14.6491 43.43 14.1193 44.0924C13.0083 45.4466 11.9448 46.8389 10.7908 48.1409C10.5522 48.4095 10.283 48.6427 9.98986 48.8347" fill="#004D85"/>
<path id="Vector_48" d="M15.9536 42.4102L13.6241 40.3574C13.9636 40.1359 14.3211 39.9498 14.692 39.8015L17.0215 41.8543C16.6507 42.0026 16.2932 42.1887 15.9536 42.4102Z" fill="#00508A"/>
<path id="Vector_49" d="M17.0215 41.8543L14.692 39.8015C15.0013 39.677 15.3197 39.5817 15.6436 39.5164L17.9731 41.5644C17.6492 41.6319 17.3309 41.7289 17.0215 41.8543Z" fill="#00538F"/>
<path id="Vector_50" d="M17.9731 41.5644L15.6436 39.5163C15.8588 39.4768 16.0759 39.4514 16.2938 39.4403H16.6598L18.9936 41.4931C18.8687 41.4931 18.7482 41.4931 18.6276 41.4931C18.4081 41.5125 18.1897 41.5442 17.9731 41.5881" fill="#005694"/>
<path id="Vector_51" d="M18.9936 41.4456L16.6598 39.3928C17.0919 39.3838 17.524 39.4139 17.9516 39.4831L20.2811 41.5311C19.8536 41.4609 19.4213 41.4323 18.9893 41.4456" fill="#005999"/>
<path id="Vector_52" d="M20.2854 41.5311L17.9559 39.4831L18.1453 39.5164C18.2594 39.5332 18.3709 39.5667 18.4769 39.6161L20.8107 41.6642C20.7034 41.6191 20.5924 41.5857 20.4792 41.5644L20.2854 41.5311Z" fill="#005C9E"/>
<path id="Vector_53" d="M20.8107 41.6642L18.4769 39.6161C18.5754 39.6559 18.6671 39.7137 18.7482 39.7872L21.0992 41.8163C21.0161 41.7462 20.9249 41.6886 20.828 41.6452" fill="#005FA3"/>
</g>
</g>
</g>
</g>
</g>
<g id="Group_34">
<g id="Clip path group_11">
<mask id="mask10_64_110" style="mask-type:luminance" maskUnits="userSpaceOnUse" x="11" y="27" width="4" height="3">
<g id="clip-path-11">
<path id="Vector_54" d="M12.2117 27.2614L14.5455 29.3094C14.4602 29.2258 14.3607 29.1618 14.2528 29.121C14.1449 29.0802 14.0307 29.0635 13.9169 29.0718L11.5873 27.0238C11.7005 27.0161 11.8138 27.0331 11.921 27.0739C12.0281 27.1147 12.1269 27.1784 12.2117 27.2614Z" fill="white"/>
</g>
</mask>
<g mask="url(#mask10_64_110)">
<g id="Group_35">
<g id="Group_36">
<path id="Vector_55" d="M13.9169 29.0721L11.5873 27.024H11.6261L13.9556 29.0768H13.9126" fill="#005694"/>
<path id="Vector_56" d="M13.9599 29.0716L11.6261 27.0188H11.7553L14.0891 29.0668C14.0447 29.0621 14 29.0621 13.9556 29.0668" fill="#005999"/>
<path id="Vector_57" d="M14.0934 29.0765L11.7596 27.0285C11.8234 27.038 11.8857 27.0572 11.9447 27.0855L14.2786 29.1336C14.2185 29.1086 14.1565 29.0895 14.0934 29.0765Z" fill="#005C9E"/>
<path id="Vector_58" d="M14.2786 29.1336L11.9447 27.0855C12.0422 27.1269 12.1325 27.1863 12.2117 27.2614L14.5455 29.3094C14.464 29.2381 14.3742 29.1789 14.2786 29.1336Z" fill="#005FA3"/>
</g>
</g>
</g>
</g>
</g>
<g id="Group_37">
<g id="Clip path group_12">
<mask id="mask11_64_110" style="mask-type:luminance" maskUnits="userSpaceOnUse" x="1" y="38" width="3" height="4">
<g id="clip-path-12">
<path id="Vector_59" d="M3.52227 41.2983L1.19275 39.2502C1.27456 39.1315 1.35638 39.0127 1.42958 38.8939L3.76341 40.9419L3.52227 41.2983Z" fill="white"/>
</g>
</mask>
<g mask="url(#mask11_64_110)">
<g id="Group_38">
<g id="Group_39">
<path id="Vector_60" d="M3.52227 41.2983L1.19275 39.2502C1.27456 39.1315 1.35638 39.0127 1.42958 38.8939L3.76341 40.9419L3.52227 41.2983Z" fill="#004D85"/>
</g>
</g>
</g>
</g>
</g>
<g id="Group_40">
<g id="Clip path group_13">
<mask id="mask12_64_110" style="mask-type:luminance" maskUnits="userSpaceOnUse" x="1" y="27" width="13" height="14">
<g id="clip-path-13">
<path id="Vector_61" d="M3.76346 40.9421L1.42963 38.894C4.0132 35.7863 6.58242 32.6786 9.13729 29.5709C9.65831 28.9341 10.1836 28.2974 10.6917 27.6416C10.9079 27.3171 11.2283 27.0961 11.5874 27.0239L13.9169 29.0719C13.5581 29.1446 13.2387 29.3677 13.0256 29.6944C12.5175 30.3454 11.9878 30.9869 11.4668 31.6237L3.76346 40.9421Z" fill="white"/>
</g>
</mask>
<g mask="url(#mask12_64_110)">
<g id="Group_41">
<g id="Group_42">
<path id="Vector_62" d="M3.76346 40.9419L1.42963 38.8938C4.0132 35.7861 6.58242 32.6784 9.13729 29.5707C9.65831 28.9339 10.1836 28.2972 10.6917 27.6414C10.8303 27.4558 10.9945 27.2954 11.1783 27.1663L13.5078 29.2191C13.3245 29.3471 13.1615 29.5077 13.0256 29.6942C12.5175 30.3452 11.9878 30.9867 11.4668 31.6235L3.76346 40.9419Z" fill="#004D85"/>
<path id="Vector_63" d="M13.5078 29.2286L11.1955 27.1758C11.2555 27.1387 11.3173 27.1054 11.3807 27.076L13.7145 29.1288C13.6479 29.1534 13.5843 29.1869 13.525 29.2286" fill="#00508A"/>
<path id="Vector_64" d="M13.6973 29.1288L11.3635 27.0855C11.4096 27.0668 11.4572 27.0525 11.5056 27.0428L13.8351 29.0956C13.788 29.1047 13.7418 29.1191 13.6973 29.1383" fill="#00538F"/>
<path id="Vector_65" d="M13.8351 29.0858L11.5056 27.033H11.5874L13.9169 29.0811H13.8351" fill="#005694"/>
</g>
</g>
</g>
</g>
</g>
<g id="Group_43">
<g id="Clip path group_14">
<mask id="mask13_64_110" style="mask-type:luminance" maskUnits="userSpaceOnUse" x="0" y="39" width="5" height="12">
<g id="clip-path-14">
<path id="Vector_66" d="M4.50814 50.2035L2.17431 48.1507C1.32628 47.3972 0.687554 46.3955 0.33118 45.2602C-0.0251929 44.1249 -0.0848181 42.9018 0.159125 41.7309C0.391474 40.9473 0.672013 40.182 0.998787 39.4405L3.33262 41.4886C3.00236 42.2283 2.72172 42.9939 2.49295 43.779C2.24711 44.9506 2.30579 46.175 2.66227 47.3114C3.01875 48.4479 3.65855 49.4503 4.50814 50.2035Z" fill="white"/>
</g>
</mask>
<g mask="url(#mask13_64_110)">
<g id="Group_44">
<g id="Group_45">
<path id="Vector_67" d="M4.50814 50.2035L2.17431 48.1507C1.32628 47.3972 0.687554 46.3955 0.33118 45.2602C-0.0251929 44.1249 -0.0848181 42.9018 0.159125 41.7309C0.391474 40.9473 0.672013 40.182 0.998787 39.4405L3.33262 41.4886C3.00236 42.2283 2.72172 42.9939 2.49295 43.779C2.24797 44.9499 2.3071 46.1733 2.66354 47.3088C3.01999 48.4443 3.65931 49.4459 4.50814 50.1987" fill="#004D85"/>
</g>
</g>
</g>
</g>
</g>
<path id="Vector_68" d="M13.9169 29.0718C14.0521 29.0662 14.1868 29.093 14.3117 29.1504C14.4366 29.2078 14.5487 29.2945 14.6403 29.4044C15.1958 29.9842 14.89 30.6114 14.4551 31.1436L5.70113 41.8163C4.10792 43.7598 3.84095 45.7603 4.94328 47.5565C5.25743 48.0716 5.67192 48.5028 6.15645 48.8184C6.64098 49.1341 7.1833 49.3262 7.74377 49.3809C8.30424 49.4356 8.86869 49.3513 9.39587 49.1343C9.92305 48.9173 10.3996 48.5731 10.7908 48.1267C11.9448 46.8247 13.0083 45.4324 14.1193 44.0782C15.2498 42.5812 16.8699 41.6369 18.6276 41.4504C19.246 41.3957 19.8681 41.4276 20.4792 41.5454C21.1122 41.6642 21.4695 42.0824 21.3748 42.7619C21.3552 43.0026 21.2571 43.2273 21.0987 43.3942C20.9403 43.5611 20.7324 43.659 20.5136 43.6695C20.3964 43.6857 20.2778 43.6857 20.1605 43.6695C19.7178 43.5781 19.2662 43.5509 18.8171 43.5887C17.409 43.717 16.2636 44.5391 15.2604 45.8411C14.2571 47.1431 13.3227 48.2788 12.3151 49.462C11.3242 50.653 9.9675 51.3948 8.50861 51.5433C7.6083 51.6246 6.70335 51.4694 5.86788 51.0903C5.03242 50.7113 4.29021 50.1192 3.70206 49.3626C3.11391 48.606 2.69656 47.7064 2.48419 46.7375C2.27182 45.7685 2.27048 44.7579 2.48027 43.7883C2.71601 43.0025 3.00386 42.237 3.34146 41.4979C3.39582 41.4233 3.45963 41.3576 3.53092 41.3031L3.77206 40.9467L11.4668 31.6236C11.9878 30.9868 12.5175 30.3453 13.0256 29.6943C13.2387 29.3676 13.5581 29.1445 13.9169 29.0718Z" fill="#0081DE"/>
<g id="Group_46">
<g id="Clip path group_15">
<mask id="mask14_64_110" style="mask-type:luminance" maskUnits="userSpaceOnUse" x="0" y="39" width="4" height="3">
<g id="clip-path-15">
<path id="Vector_69" d="M3.33285 41.4931L0.999023 39.4403C1.05491 39.3656 1.12016 39.3 1.19279 39.2455L3.52232 41.2936C3.45072 41.3496 3.38689 41.4168 3.33285 41.4931Z" fill="white"/>
</g>
</mask>
<g mask="url(#mask14_64_110)">
<g id="Group_47">
<g id="Group_48">
<path id="Vector_70" d="M3.33285 41.4931L0.999023 39.4403C1.05491 39.3656 1.12016 39.3 1.19279 39.2455L3.52232 41.2936C3.45102 41.3481 3.38721 41.4137 3.33285 41.4884" fill="#004D85"/>
</g>
</g>
</g>
</g>
</g>
</g>
<g id="Group_49">
<g id="Group_50">
<g id="Clip path group_16">
<mask id="mask15_64_110" style="mask-type:luminance" maskUnits="userSpaceOnUse" x="11" y="-1" width="5" height="4">
<g id="clip-path-16">
<path id="Vector_71" d="M13.3485 0.712774L15.6823 2.76557C15.092 2.24424 14.343 1.99253 13.5896 2.0623L11.2558 -2.71481e-06C12.0103 -0.0666157 12.7592 0.188476 13.3485 0.712774Z" fill="white"/>
</g>
</mask>
<g mask="url(#mask15_64_110)">
<g id="Group_51">
<g id="Group_52">
<path id="Vector_72" d="M13.5896 2.06212L11.2558 -0.000183105H11.4237L13.7532 2.05262H13.5896" fill="#949494"/>
<path id="Vector_73" d="M13.7532 2.05256L11.4237 -0.000233675C11.5936 -0.00351142 11.7635 0.0076089 11.9318 0.0330293L14.2613 2.08583C14.0932 2.05791 13.9232 2.04678 13.7532 2.05256Z" fill="#999999"/>
<path id="Vector_74" d="M14.2613 2.08606L11.9318 0.0332642C12.164 0.0699412 12.3911 0.138586 12.6078 0.237594L14.9374 2.28564C14.7206 2.18758 14.4934 2.12051 14.2613 2.08606Z" fill="#9E9E9E"/>
<path id="Vector_75" d="M14.9374 2.28566L12.6078 0.23761C12.874 0.356282 13.1234 0.516293 13.3485 0.712795L15.6823 2.76559C15.4571 2.5667 15.206 2.40649 14.9374 2.29041" fill="#A3A3A3"/>
</g>
</g>
</g>
</g>
</g>
<g id="Group_53">
<g id="Clip path group_17">
<mask id="mask16_64_110" style="mask-type:luminance" maskUnits="userSpaceOnUse" x="8" y="0" width="6" height="8">
<g id="clip-path-17">
<path id="Vector_76" d="M11.9232 7.96428L9.59368 5.91623C9.01457 5.40823 8.62896 4.67921 8.51289 3.87294C8.3943 3.00661 8.58798 2.12348 9.05242 1.41287C9.51685 0.702252 10.2151 0.220709 10.9974 0.0714621L11.2558 0.0334473L13.5896 2.08625C13.5035 2.08625 13.4131 2.08625 13.3269 2.12426C12.542 2.26775 11.8403 2.74792 11.3749 3.46005C10.9095 4.17218 10.7181 5.0585 10.8424 5.92574C10.9611 6.72967 11.3463 7.45622 11.9232 7.96428Z" fill="white"/>
</g>
</mask>
<g mask="url(#mask16_64_110)">
<g id="Group_54">
<g id="Group_55">
<path id="Vector_77" d="M11.9235 7.96428L9.59393 5.91624C9.01482 5.40824 8.62921 4.67922 8.51313 3.87294C8.42028 3.21149 8.50884 2.5345 8.76743 1.92904C9.02603 1.32358 9.44283 0.817323 9.96424 0.475372L12.2938 2.52342C11.7708 2.866 11.353 3.37379 11.0943 3.98116C10.8356 4.58853 10.748 5.26756 10.8427 5.93049C10.9603 6.73614 11.3456 7.46456 11.9235 7.97379" fill="#858585"/>
<path id="Vector_78" d="M12.2935 2.51373L9.96399 0.475192C10.1248 0.365242 10.295 0.272932 10.4721 0.199585L12.8016 2.25238C12.6253 2.32189 12.4552 2.40939 12.2935 2.51373Z" fill="#8A8A8A"/>
<path id="Vector_79" d="M12.8016 2.25237L10.4721 0.199571C10.6252 0.140837 10.7821 0.0947752 10.9415 0.0617676L13.271 2.10981C13.1111 2.14218 12.954 2.18988 12.8016 2.25237Z" fill="#8F8F8F"/>
<path id="Vector_80" d="M13.2711 2.11005L10.9415 0.0620016H10.9975L11.2559 0.0239868L13.5897 2.07679C13.5036 2.07679 13.4131 2.07678 13.327 2.1148H13.2711" fill="#949494"/>
</g>
</g>
</g>
</g>
</g>
<path id="Vector_81" d="M13.5896 2.06229C14.3342 1.99434 15.0747 2.23894 15.663 2.74724C16.2513 3.25553 16.6442 3.99007 16.7631 4.80411C16.8879 5.67469 16.6973 6.56451 16.2323 7.2812C15.7674 7.99789 15.0656 8.48388 14.2786 8.6341L14.0245 8.66736C13.2778 8.73769 12.5347 8.49359 11.9444 7.9841C11.3541 7.4746 10.9604 6.73747 10.8424 5.92079C10.7181 5.05355 10.9095 4.16723 11.3749 3.4551C11.8403 2.74297 12.542 2.2628 13.327 2.11931C13.4131 2.0813 13.5035 2.07179 13.5896 2.06229Z" fill="#DEDEDE"/>
</g>
<g id="Group_56">
<g id="Group_57">
<g id="Clip path group_18">
<mask id="mask17_64_110" style="mask-type:luminance" maskUnits="userSpaceOnUse" x="40" y="10" width="14" height="20">
<g id="clip-path-18">
<path id="Vector_82" d="M43.2017 29.4614L40.8722 27.4086C40.742 27.2765 40.6447 27.1096 40.5896 26.9241C40.5346 26.7386 40.5237 26.5405 40.5578 26.349C40.8033 23.4979 42.1338 21.4878 44.4074 20.1716C45.8714 19.3353 47.3655 18.556 48.7908 17.6579C49.2823 17.3528 49.7063 16.9311 50.032 16.4232C50.3578 15.9153 50.5772 15.3338 50.6745 14.7209C50.7717 14.1079 50.7443 13.4788 50.5943 12.8789C50.4443 12.2791 50.1754 11.7235 49.807 11.2524C49.6362 11.028 49.4458 10.8227 49.2386 10.6394L51.5682 12.6874C51.7769 12.8721 51.9688 13.079 52.1409 13.3052C52.5077 13.777 52.7753 14.3327 52.9245 14.9322C53.0736 15.5318 53.1005 16.1603 53.0034 16.7727C52.9062 17.3851 52.6874 17.9662 52.3625 18.4742C52.0377 18.9821 51.6149 19.4044 51.1246 19.7107C49.6951 20.6135 48.2009 21.3881 46.7369 22.2244C44.4633 23.5264 43.1328 25.5507 42.8873 28.4018C42.8552 28.5933 42.8672 28.7907 42.9221 28.9758C42.977 29.161 43.0731 29.3279 43.2017 29.4614Z" fill="white"/>
</g>
</mask>
<g mask="url(#mask17_64_110)">
<g id="Group_58">
<g id="Group_59">
<path id="Vector_83" d="M43.2017 29.4614L40.8722 27.4086C40.742 27.2765 40.6447 27.1096 40.5896 26.9241C40.5346 26.7385 40.5237 26.5405 40.5578 26.349C40.6326 25.1329 40.9828 23.9571 41.5764 22.9293C42.17 21.9014 42.988 21.0545 43.9552 20.4662L46.2847 22.5142C45.3181 23.1021 44.5005 23.9483 43.9069 24.9752C43.3134 26.0022 42.9628 27.1771 42.8873 28.3923C42.8545 28.5845 42.866 28.7829 42.921 28.9689C42.9759 29.155 43.0725 29.3227 43.2017 29.4567" fill="#004D85"/>
<path id="Vector_84" d="M46.2848 22.5095L43.9552 20.4614C44.1016 20.3664 44.2523 20.2761 44.3858 20.1858C45.8499 19.3495 47.344 18.5702 48.7693 17.6721L48.8339 17.6293L51.1634 19.6821L51.1031 19.7201C49.6735 20.623 48.1794 21.3976 46.7153 22.2339C46.5603 22.3242 46.4096 22.4144 46.2632 22.5095" fill="#00508A"/>
<path id="Vector_85" d="M51.1849 19.6821L48.8554 17.6293C49.3357 17.3172 49.7481 16.8926 50.0633 16.3853C50.3786 15.878 50.589 15.3005 50.6798 14.6936C50.7705 14.0867 50.7394 13.4652 50.5886 12.873C50.4378 12.2809 50.171 11.7325 49.807 11.2666C49.6362 11.0422 49.4458 10.8369 49.2386 10.6536L51.5682 12.7017C51.7763 12.8819 51.9681 13.084 52.1409 13.3052C52.504 13.7721 52.7699 14.3212 52.92 14.9138C53.0701 15.5064 53.1006 16.1281 53.0095 16.7351C52.9183 17.3421 52.7078 17.9197 52.3925 18.4272C52.0773 18.9348 51.6651 19.3599 51.1849 19.6726" fill="#004D85"/>
</g>
</g>
</g>
</g>
</g>
<g id="Group_60">
<g id="Clip path group_19">
<mask id="mask18_64_110" style="mask-type:luminance" maskUnits="userSpaceOnUse" x="46" y="7" width="7" height="5">
<g id="clip-path-19">
<path id="Vector_86" d="M50.496 9.0287L52.8255 11.0815C51.8754 10.2289 50.6954 9.74915 49.4712 9.71772C49.3162 9.71772 49.1611 9.71772 49.0104 9.71772L46.6766 7.66967C46.8301 7.66028 46.9839 7.66028 47.1373 7.66967C48.3622 7.70086 49.5432 8.17874 50.496 9.0287Z" fill="white"/>
</g>
</mask>
<g mask="url(#mask18_64_110)">
<g id="Group_61">
<g id="Group_62">
<path id="Vector_87" d="M49.0104 9.72248L46.6766 7.67444H46.9651L49.2946 9.72724C49.1999 9.72724 49.1052 9.72724 49.0104 9.72724" fill="#005694"/>
<path id="Vector_88" d="M49.2946 9.70822L46.9651 7.65543H47.1374C47.3665 7.65752 47.5952 7.67657 47.822 7.71245L50.1515 9.76525C49.9262 9.72796 49.699 9.70732 49.4712 9.70347H49.2946" fill="#005999"/>
<path id="Vector_89" d="M50.1515 9.76508L47.822 7.71228C48.2418 7.78032 48.6525 7.9048 49.0449 8.08292L51.3787 10.131C50.9845 9.95495 50.5724 9.83209 50.1515 9.76508Z" fill="#005C9E"/>
<path id="Vector_90" d="M51.3787 10.131L49.0449 8.07816C49.5678 8.31568 50.0566 8.63581 50.496 9.02853L52.8255 11.0813C52.3875 10.6889 51.9001 10.3688 51.3787 10.131Z" fill="#005FA3"/>
</g>
</g>
</g>
</g>
</g>
<g id="Group_63">
<g id="Clip path group_20">
<mask id="mask19_64_110" style="mask-type:luminance" maskUnits="userSpaceOnUse" x="44" y="7" width="6" height="3">
<g id="clip-path-20">
<path id="Vector_91" d="M47.2364 9.97887L44.9025 7.92608C45.5097 7.8643 46.0953 7.71224 46.6766 7.65997L49.0104 9.70802C48.4248 9.7793 47.8392 9.9266 47.2364 9.97887Z" fill="white"/>
</g>
</mask>
<g mask="url(#mask19_64_110)">
<g id="Group_64">
<g id="Group_65">
<path id="Vector_92" d="M47.2364 9.97887L44.9025 7.92608C45.5097 7.8643 46.0953 7.71224 46.6766 7.65997L49.0104 9.70802C48.4248 9.76504 47.8392 9.91235 47.2364 9.97887Z" fill="#005694"/>
</g>
</g>
</g>
</g>
</g>
<g id="Group_66">
<g id="Clip path group_21">
<mask id="mask20_64_110" style="mask-type:luminance" maskUnits="userSpaceOnUse" x="44" y="7" width="4" height="4">
<g id="clip-path-21">
<path id="Vector_93" d="M47.0383 10.169L44.7088 8.11616L44.9025 7.94034L47.2364 9.97888L47.0383 10.169Z" fill="white"/>
</g>
</mask>
<g mask="url(#mask20_64_110)">
<g id="Group_67">
<g id="Group_68">
<path id="Vector_94" d="M47.0383 10.169L44.7088 8.11616L44.9025 7.94034L47.2364 9.97888L47.0383 10.1547" fill="#004D85"/>
</g>
</g>
</g>
</g>
</g>
<g id="Group_69">
<g id="Clip path group_22">
<mask id="mask21_64_110" style="mask-type:luminance" maskUnits="userSpaceOnUse" x="44" y="8" width="4" height="3">
<g id="clip-path-22">
<path id="Vector_95" d="M46.668 10.3305L44.3514 8.28246L44.726 8.11615L47.0555 10.1689L46.668 10.3305Z" fill="white"/>
</g>
</mask>
<g mask="url(#mask21_64_110)">
<g id="Group_70">
<g id="Group_71">
<path id="Vector_96" d="M46.668 10.3305L44.3514 8.28246L44.726 8.11615L47.0555 10.1689L46.6852 10.3305" fill="#00508A"/>
</g>
</g>
</g>
</g>
</g>
<path id="Vector_97" d="M49.0104 9.72226C49.1611 9.72226 49.3162 9.72226 49.4712 9.72226C50.745 9.77338 51.9674 10.2899 52.9463 11.1908C53.9253 12.0917 54.6054 13.3258 54.8799 14.6995C55.1544 16.0732 55.0077 17.5085 54.4628 18.7802C53.918 20.0519 53.0058 21.0878 51.8696 21.7254C50.5835 22.4952 49.2774 23.2333 47.9512 23.9398C46.1513 24.8902 44.9671 26.3157 44.7949 28.6346C44.7992 28.8986 44.7127 29.1546 44.553 29.3512C44.3932 29.5477 44.172 29.6703 43.9337 29.6943C43.8578 29.7014 43.7814 29.7014 43.7055 29.6943C43.0897 29.6182 42.8185 29.1336 42.8788 28.416C43.1242 25.5649 44.4547 23.5596 46.7283 22.2386C48.1923 21.4023 49.6865 20.6278 51.116 19.7249C51.6091 19.4198 52.0346 18.9976 52.3617 18.4888C52.6887 17.9801 52.9093 17.3975 53.0074 16.7831C53.1054 16.1687 53.0786 15.538 52.9287 14.9365C52.7789 14.335 52.5098 13.7778 52.1409 13.3052C51.7799 12.8057 51.3115 12.4137 50.7784 12.1647C50.2452 11.9158 49.6641 11.8178 49.0879 11.8796C48.3326 11.9686 47.6008 12.2222 46.935 12.6256L35.3649 19.2497C35.1346 19.3928 34.8818 19.4863 34.6199 19.5253C34.4509 19.5452 34.2805 19.5059 34.1329 19.4129C33.9853 19.3199 33.8679 19.1781 33.7975 19.0074C33.4229 18.2376 33.7975 17.7006 34.4735 17.349C35.1496 16.9973 35.86 16.5744 36.5533 16.18L46.668 10.3352L47.0383 10.1737L47.2364 9.99787C47.8392 9.92659 48.4248 9.77928 49.0104 9.72226Z" fill="#0081DE"/>
<g id="Group_72">
<g id="Clip path group_23">
<mask id="mask22_64_110" style="mask-type:luminance" maskUnits="userSpaceOnUse" x="31" y="8" width="16" height="12">
<g id="clip-path-23">
<path id="Vector_98" d="M34.0515 19.3495L31.722 17.3015C31.6168 17.2042 31.5304 17.0846 31.468 16.9498C31.0933 16.18 31.4679 15.6478 32.1397 15.2962C32.8114 14.9446 33.5305 14.5216 34.2238 14.1225L44.3514 8.28247L46.6852 10.3305L36.5533 16.1563C35.86 16.5507 35.1711 16.9451 34.4735 17.3252C33.7759 17.7054 33.4229 18.2328 33.7975 19.0074C33.862 19.138 33.9482 19.254 34.0515 19.3495Z" fill="white"/>
</g>
</mask>
<g mask="url(#mask22_64_110)">
<g id="Group_73">
<g id="Group_74">
<path id="Vector_99" d="M34.0514 19.3495L31.7219 17.3015C31.6167 17.2042 31.5303 17.0846 31.4678 16.9498C31.1277 16.2608 31.4118 15.7571 31.9501 15.4055L34.2796 17.4583C33.7414 17.8052 33.4615 18.3089 33.7973 19.0026C33.8614 19.1349 33.9476 19.2526 34.0514 19.3495Z" fill="#004D85"/>
<path id="Vector_100" d="M34.2798 17.4583L31.9502 15.4055L32.1397 15.2962C32.8373 14.916 33.5305 14.5216 34.2238 14.1225L44.3514 8.28247L46.6852 10.3305L36.5533 16.1563C35.86 16.5507 35.1711 16.9451 34.4735 17.3252L34.2798 17.4393" fill="#00508A"/>
</g>
</g>
</g>
</g>
</g>
</g>
</g>
</g>
</g>
<defs>
<clipPath id="clip0_64_110">
<rect width="55" height="54" fill="white"/>
</clipPath>
</defs>
</svg>
