<svg width="19" height="15" viewBox="0 0 19 15" fill="none" xmlns="http://www.w3.org/2000/svg">
<path d="M15.3826 0.151245H4.20933C2.15158 0.151245 0.484894 1.72694 0.484894 3.67236V10.7146C0.484894 12.66 2.15158 14.2357 4.20933 14.2357H15.3826C17.4404 14.2357 19.1071 12.66 19.1071 10.7146V3.67236C19.1071 1.72694 17.4404 0.151245 15.3826 0.151245ZM13.6508 8.75156C13.4273 8.92762 13.12 8.99804 12.8314 8.92762L2.48678 6.53326C2.76611 5.89066 3.4272 5.43291 4.20933 5.43291H15.3826C16.0065 5.43291 16.5558 5.73221 16.9004 6.17235L13.6508 8.75156ZM4.20933 1.9118H15.3826C16.4069 1.9118 17.2449 2.70405 17.2449 3.67236V4.15651C16.6955 3.85721 16.0624 3.67236 15.3826 3.67236H4.20933C3.52962 3.67236 2.89647 3.85721 2.34711 4.15651V3.67236C2.34711 2.70405 3.18511 1.9118 4.20933 1.9118Z" fill="#004D85"/>
</svg>
