<svg width="154" height="54" viewBox="0 0 154 54" fill="none" xmlns="http://www.w3.org/2000/svg">
<g filter="url(#filter0_d_203_26)">
<rect x="4" width="146" height="46" rx="11" fill="url(#paint0_linear_203_26)" shape-rendering="crispEdges"/>
</g>
<path d="M20.24 12.05V12.98H18.39V19H17.25V12.98H15.39V12.05H20.24ZM23.7845 19.09C23.2645 19.09 22.7945 18.9733 22.3745 18.74C21.9545 18.5 21.6245 18.1667 21.3845 17.74C21.1445 17.3067 21.0245 16.8067 21.0245 16.24C21.0245 15.68 21.1479 15.1833 21.3945 14.75C21.6412 14.3167 21.9779 13.9833 22.4045 13.75C22.8312 13.5167 23.3079 13.4 23.8345 13.4C24.3612 13.4 24.8379 13.5167 25.2645 13.75C25.6912 13.9833 26.0279 14.3167 26.2745 14.75C26.5212 15.1833 26.6445 15.68 26.6445 16.24C26.6445 16.8 26.5179 17.2967 26.2645 17.73C26.0112 18.1633 25.6645 18.5 25.2245 18.74C24.7912 18.9733 24.3112 19.09 23.7845 19.09ZM23.7845 18.1C24.0779 18.1 24.3512 18.03 24.6045 17.89C24.8645 17.75 25.0745 17.54 25.2345 17.26C25.3945 16.98 25.4745 16.64 25.4745 16.24C25.4745 15.84 25.3979 15.5033 25.2445 15.23C25.0912 14.95 24.8879 14.74 24.6345 14.6C24.3812 14.46 24.1079 14.39 23.8145 14.39C23.5212 14.39 23.2479 14.46 22.9945 14.6C22.7479 14.74 22.5512 14.95 22.4045 15.23C22.2579 15.5033 22.1845 15.84 22.1845 16.24C22.1845 16.8333 22.3345 17.2933 22.6345 17.62C22.9412 17.94 23.3245 18.1 23.7845 18.1ZM29.1015 14.42V17.47C29.1015 17.6767 29.1482 17.8267 29.2415 17.92C29.3415 18.0067 29.5082 18.05 29.7415 18.05H30.4415V19H29.5415C29.0282 19 28.6348 18.88 28.3615 18.64C28.0882 18.4 27.9515 18.01 27.9515 17.47V14.42H27.3015V13.49H27.9515V12.12H29.1015V13.49H30.4415V14.42H29.1015ZM31.1122 16.22C31.1122 15.6667 31.2255 15.1767 31.4522 14.75C31.6855 14.3233 31.9989 13.9933 32.3922 13.76C32.7922 13.52 33.2322 13.4 33.7122 13.4C34.1455 13.4 34.5222 13.4867 34.8422 13.66C35.1689 13.8267 35.4289 14.0367 35.6222 14.29V13.49H36.7722V19H35.6222V18.18C35.4289 18.44 35.1655 18.6567 34.8322 18.83C34.4989 19.0033 34.1189 19.09 33.6922 19.09C33.2189 19.09 32.7855 18.97 32.3922 18.73C31.9989 18.4833 31.6855 18.1433 31.4522 17.71C31.2255 17.27 31.1122 16.7733 31.1122 16.22ZM35.6222 16.24C35.6222 15.86 35.5422 15.53 35.3822 15.25C35.2289 14.97 35.0255 14.7567 34.7722 14.61C34.5189 14.4633 34.2455 14.39 33.9522 14.39C33.6589 14.39 33.3855 14.4633 33.1322 14.61C32.8789 14.75 32.6722 14.96 32.5122 15.24C32.3589 15.5133 32.2822 15.84 32.2822 16.22C32.2822 16.6 32.3589 16.9333 32.5122 17.22C32.6722 17.5067 32.8789 17.7267 33.1322 17.88C33.3922 18.0267 33.6655 18.1 33.9522 18.1C34.2455 18.1 34.5189 18.0267 34.7722 17.88C35.0255 17.7333 35.2289 17.52 35.3822 17.24C35.5422 16.9533 35.6222 16.62 35.6222 16.24ZM39.4095 11.6V19H38.2695V11.6H39.4095ZM47.1139 19L45.5139 16.22H44.6439V19H43.5039V12.05H45.9039C46.4372 12.05 46.8872 12.1433 47.2539 12.33C47.6272 12.5167 47.9039 12.7667 48.0839 13.08C48.2706 13.3933 48.3639 13.7433 48.3639 14.13C48.3639 14.5833 48.2306 14.9967 47.9639 15.37C47.7039 15.7367 47.3006 15.9867 46.7539 16.12L48.4739 19H47.1139ZM44.6439 15.31H45.9039C46.3306 15.31 46.6506 15.2033 46.8639 14.99C47.0839 14.7767 47.1939 14.49 47.1939 14.13C47.1939 13.77 47.0872 13.49 46.8739 13.29C46.6606 13.0833 46.3372 12.98 45.9039 12.98H44.6439V15.31ZM49.4423 16.22C49.4423 15.6667 49.5556 15.1767 49.7823 14.75C50.0156 14.3233 50.3289 13.9933 50.7223 13.76C51.1223 13.52 51.5623 13.4 52.0423 13.4C52.4756 13.4 52.8523 13.4867 53.1723 13.66C53.4989 13.8267 53.7589 14.0367 53.9523 14.29V13.49H55.1023V19H53.9523V18.18C53.7589 18.44 53.4956 18.6567 53.1623 18.83C52.8289 19.0033 52.4489 19.09 52.0223 19.09C51.5489 19.09 51.1156 18.97 50.7223 18.73C50.3289 18.4833 50.0156 18.1433 49.7823 17.71C49.5556 17.27 49.4423 16.7733 49.4423 16.22ZM53.9523 16.24C53.9523 15.86 53.8723 15.53 53.7123 15.25C53.5589 14.97 53.3556 14.7567 53.1023 14.61C52.8489 14.4633 52.5756 14.39 52.2823 14.39C51.9889 14.39 51.7156 14.4633 51.4623 14.61C51.2089 14.75 51.0023 14.96 50.8423 15.24C50.6889 15.5133 50.6123 15.84 50.6123 16.22C50.6123 16.6 50.6889 16.9333 50.8423 17.22C51.0023 17.5067 51.2089 17.7267 51.4623 17.88C51.7223 18.0267 51.9956 18.1 52.2823 18.1C52.5756 18.1 52.8489 18.0267 53.1023 17.88C53.3556 17.7333 53.5589 17.52 53.7123 17.24C53.8723 16.9533 53.9523 16.62 53.9523 16.24ZM57.1796 12.76C56.9729 12.76 56.7996 12.69 56.6596 12.55C56.5196 12.41 56.4496 12.2367 56.4496 12.03C56.4496 11.8233 56.5196 11.65 56.6596 11.51C56.7996 11.37 56.9729 11.3 57.1796 11.3C57.3796 11.3 57.5496 11.37 57.6896 11.51C57.8296 11.65 57.8996 11.8233 57.8996 12.03C57.8996 12.2367 57.8296 12.41 57.6896 12.55C57.5496 12.69 57.3796 12.76 57.1796 12.76ZM57.7396 13.49V19H56.5996V13.49H57.7396ZM61.2363 19.09C60.803 19.09 60.413 19.0133 60.0663 18.86C59.7263 18.7 59.4563 18.4867 59.2563 18.22C59.0563 17.9467 58.9497 17.6433 58.9363 17.31H60.1163C60.1363 17.5433 60.2463 17.74 60.4463 17.9C60.653 18.0533 60.9097 18.13 61.2163 18.13C61.5363 18.13 61.783 18.07 61.9563 17.95C62.1363 17.8233 62.2263 17.6633 62.2263 17.47C62.2263 17.2633 62.1263 17.11 61.9263 17.01C61.733 16.91 61.423 16.8 60.9963 16.68C60.583 16.5667 60.2463 16.4567 59.9863 16.35C59.7263 16.2433 59.4997 16.08 59.3063 15.86C59.1197 15.64 59.0263 15.35 59.0263 14.99C59.0263 14.6967 59.113 14.43 59.2863 14.19C59.4597 13.9433 59.7063 13.75 60.0263 13.61C60.353 13.47 60.7263 13.4 61.1463 13.4C61.773 13.4 62.2763 13.56 62.6563 13.88C63.043 14.1933 63.2497 14.6233 63.2763 15.17H62.1363C62.1163 14.9233 62.0163 14.7267 61.8363 14.58C61.6563 14.4333 61.413 14.36 61.1063 14.36C60.8063 14.36 60.5763 14.4167 60.4163 14.53C60.2563 14.6433 60.1763 14.7933 60.1763 14.98C60.1763 15.1267 60.2297 15.25 60.3363 15.35C60.443 15.45 60.573 15.53 60.7263 15.59C60.8797 15.6433 61.1063 15.7133 61.4063 15.8C61.8063 15.9067 62.133 16.0167 62.3863 16.13C62.6463 16.2367 62.8697 16.3967 63.0563 16.61C63.243 16.8233 63.3397 17.1067 63.3463 17.46C63.3463 17.7733 63.2597 18.0533 63.0863 18.3C62.913 18.5467 62.6663 18.74 62.3463 18.88C62.033 19.02 61.663 19.09 61.2363 19.09ZM69.6281 16.11C69.6281 16.3167 69.6148 16.5033 69.5881 16.67H65.3781C65.4115 17.11 65.5748 17.4633 65.8681 17.73C66.1615 17.9967 66.5215 18.13 66.9481 18.13C67.5615 18.13 67.9948 17.8733 68.2481 17.36H69.4781C69.3115 17.8667 69.0081 18.2833 68.5681 18.61C68.1348 18.93 67.5948 19.09 66.9481 19.09C66.4215 19.09 65.9481 18.9733 65.5281 18.74C65.1148 18.5 64.7881 18.1667 64.5481 17.74C64.3148 17.3067 64.1981 16.8067 64.1981 16.24C64.1981 15.6733 64.3115 15.1767 64.5381 14.75C64.7715 14.3167 65.0948 13.9833 65.5081 13.75C65.9281 13.5167 66.4081 13.4 66.9481 13.4C67.4681 13.4 67.9315 13.5133 68.3381 13.74C68.7448 13.9667 69.0615 14.2867 69.2881 14.7C69.5148 15.1067 69.6281 15.5767 69.6281 16.11ZM68.4381 15.75C68.4315 15.33 68.2815 14.9933 67.9881 14.74C67.6948 14.4867 67.3315 14.36 66.8981 14.36C66.5048 14.36 66.1681 14.4867 65.8881 14.74C65.6081 14.9867 65.4415 15.3233 65.3881 15.75H68.4381ZM70.37 16.22C70.37 15.6667 70.4833 15.1767 70.71 14.75C70.9433 14.3233 71.2567 13.9933 71.65 13.76C72.05 13.52 72.4933 13.4 72.98 13.4C73.34 13.4 73.6933 13.48 74.04 13.64C74.3933 13.7933 74.6733 14 74.88 14.26V11.6H76.03V19H74.88V18.17C74.6933 18.4367 74.4333 18.6567 74.1 18.83C73.7733 19.0033 73.3967 19.09 72.97 19.09C72.49 19.09 72.05 18.97 71.65 18.73C71.2567 18.4833 70.9433 18.1433 70.71 17.71C70.4833 17.27 70.37 16.7733 70.37 16.22ZM74.88 16.24C74.88 15.86 74.8 15.53 74.64 15.25C74.4867 14.97 74.2833 14.7567 74.03 14.61C73.7767 14.4633 73.5033 14.39 73.21 14.39C72.9167 14.39 72.6433 14.4633 72.39 14.61C72.1367 14.75 71.93 14.96 71.77 15.24C71.6167 15.5133 71.54 15.84 71.54 16.22C71.54 16.6 71.6167 16.9333 71.77 17.22C71.93 17.5067 72.1367 17.7267 72.39 17.88C72.65 18.0267 72.9233 18.1 73.21 18.1C73.5033 18.1 73.7767 18.0267 74.03 17.88C74.2833 17.7333 74.4867 17.52 74.64 17.24C74.8 16.9533 74.88 16.62 74.88 16.24Z" fill="#2D405A"/>
<path d="M21.072 33.426C21.072 33.8593 20.9637 34.2667 20.747 34.648C20.539 35.0293 20.227 35.35 19.811 35.61C19.4037 35.87 18.9183 36.026 18.355 36.078V37.131H17.51V36.078C16.6953 36 16.0367 35.7443 15.534 35.311C15.0313 34.8777 14.78 34.3057 14.78 33.595H16.366C16.392 33.933 16.5003 34.2147 16.691 34.44C16.8817 34.6567 17.1547 34.7953 17.51 34.856V31.996C16.9293 31.8487 16.457 31.7013 16.093 31.554C15.729 31.398 15.417 31.1553 15.157 30.826C14.9057 30.4967 14.78 30.046 14.78 29.474C14.78 28.7547 15.0313 28.161 15.534 27.693C16.0367 27.2163 16.6953 26.939 17.51 26.861V25.808H18.355V26.861C19.1177 26.9303 19.7287 27.173 20.188 27.589C20.656 27.9963 20.9203 28.5597 20.981 29.279H19.395C19.369 29.0103 19.265 28.772 19.083 28.564C18.901 28.3473 18.6583 28.2 18.355 28.122V30.93C18.9357 31.0687 19.408 31.216 19.772 31.372C20.136 31.5193 20.4437 31.7577 20.695 32.087C20.9463 32.4077 21.072 32.854 21.072 33.426ZM16.288 29.396C16.288 29.7513 16.392 30.0287 16.6 30.228C16.8167 30.4273 17.12 30.5877 17.51 30.709V28.083C17.1373 28.1263 16.8383 28.2607 16.613 28.486C16.3963 28.7113 16.288 29.0147 16.288 29.396ZM18.355 34.856C18.7363 34.7953 19.0353 34.6437 19.252 34.401C19.4687 34.1497 19.577 33.8507 19.577 33.504C19.577 33.1573 19.4687 32.8887 19.252 32.698C19.044 32.4987 18.745 32.3383 18.355 32.217V34.856ZM23.2091 28.863C23.2611 28.057 23.5687 27.4287 24.1321 26.978C24.7041 26.5273 25.4321 26.302 26.3161 26.302C26.9227 26.302 27.4471 26.4103 27.8891 26.627C28.3311 26.8437 28.6647 27.1383 28.8901 27.511C29.1154 27.8837 29.2281 28.304 29.2281 28.772C29.2281 29.3093 29.0851 29.7687 28.7991 30.15C28.5131 30.5313 28.1707 30.787 27.7721 30.917V30.969C28.2834 31.125 28.6821 31.411 28.9681 31.827C29.2541 32.2343 29.3971 32.7587 29.3971 33.4C29.3971 33.9113 29.2801 34.3663 29.0461 34.765C28.8121 35.1637 28.4654 35.48 28.0061 35.714C27.5467 35.9393 26.9964 36.052 26.3551 36.052C25.4191 36.052 24.6477 35.8137 24.0411 35.337C23.4431 34.8517 23.1224 34.1583 23.0791 33.257H24.5091C24.5437 33.7163 24.7214 34.0933 25.0421 34.388C25.3627 34.674 25.7961 34.817 26.3421 34.817C26.8707 34.817 27.2781 34.674 27.5641 34.388C27.8501 34.0933 27.9931 33.7163 27.9931 33.257C27.9931 32.6503 27.7981 32.2213 27.4081 31.97C27.0267 31.71 26.4374 31.58 25.6401 31.58H25.3021V30.358H25.6531C26.3551 30.3493 26.8881 30.2323 27.2521 30.007C27.6247 29.7817 27.8111 29.4263 27.8111 28.941C27.8111 28.525 27.6767 28.1957 27.4081 27.953C27.1394 27.7017 26.7581 27.576 26.2641 27.576C25.7787 27.576 25.4017 27.7017 25.1331 27.953C24.8644 28.1957 24.7041 28.499 24.6521 28.863H23.2091ZM30.7718 34.024V32.906L35.1398 26.64H36.9338V32.737H38.1428V34.024H36.9338V36H35.4778V34.024H30.7718ZM35.5428 28.148L32.4748 32.737H35.5428V28.148ZM40.1638 36.091C39.8952 36.091 39.6698 36 39.4878 35.818C39.3058 35.636 39.2148 35.4107 39.2148 35.142C39.2148 34.8733 39.3058 34.648 39.4878 34.466C39.6698 34.284 39.8952 34.193 40.1638 34.193C40.4238 34.193 40.6448 34.284 40.8268 34.466C41.0088 34.648 41.0998 34.8733 41.0998 35.142C41.0998 35.4107 41.0088 35.636 40.8268 35.818C40.6448 36 40.4238 36.091 40.1638 36.091ZM43.3256 33.985C44.1576 33.2657 44.8119 32.6763 45.2886 32.217C45.7739 31.749 46.1769 31.2637 46.4976 30.761C46.8182 30.2583 46.9786 29.7557 46.9786 29.253C46.9786 28.733 46.8529 28.3257 46.6016 28.031C46.3589 27.7363 45.9732 27.589 45.4446 27.589C44.9332 27.589 44.5346 27.7537 44.2486 28.083C43.9712 28.4037 43.8239 28.837 43.8066 29.383H42.3766C42.4026 28.395 42.6972 27.641 43.2606 27.121C43.8326 26.5923 44.5562 26.328 45.4316 26.328C46.3762 26.328 47.1129 26.588 47.6416 27.108C48.1789 27.628 48.4476 28.3213 48.4476 29.188C48.4476 29.812 48.2872 30.4143 47.9666 30.995C47.6546 31.567 47.2776 32.0827 46.8356 32.542C46.4022 32.9927 45.8476 33.517 45.1716 34.115L44.5866 34.635H48.7076V35.87H42.3896V34.791L43.3256 33.985ZM51.6085 31.047C50.7072 30.5963 50.2565 29.8857 50.2565 28.915C50.2565 28.447 50.3735 28.018 50.6075 27.628C50.8415 27.238 51.1925 26.9303 51.6605 26.705C52.1285 26.471 52.7005 26.354 53.3765 26.354C54.0438 26.354 54.6115 26.471 55.0795 26.705C55.5562 26.9303 55.9115 27.238 56.1455 27.628C56.3795 28.018 56.4965 28.447 56.4965 28.915C56.4965 29.4003 56.3708 29.8293 56.1195 30.202C55.8768 30.566 55.5518 30.8477 55.1445 31.047C55.6385 31.229 56.0285 31.528 56.3145 31.944C56.6005 32.3513 56.7435 32.8323 56.7435 33.387C56.7435 33.9503 56.6005 34.4487 56.3145 34.882C56.0285 35.3153 55.6298 35.649 55.1185 35.883C54.6072 36.117 54.0265 36.234 53.3765 36.234C52.7265 36.234 52.1458 36.117 51.6345 35.883C51.1318 35.649 50.7375 35.3153 50.4515 34.882C50.1655 34.4487 50.0225 33.9503 50.0225 33.387C50.0225 32.8237 50.1655 32.3383 50.4515 31.931C50.7375 31.5237 51.1232 31.229 51.6085 31.047ZM55.0795 29.097C55.0795 28.6117 54.9278 28.239 54.6245 27.979C54.3212 27.719 53.9052 27.589 53.3765 27.589C52.8565 27.589 52.4448 27.719 52.1415 27.979C51.8382 28.239 51.6865 28.616 51.6865 29.11C51.6865 29.5433 51.8425 29.8987 52.1545 30.176C52.4752 30.4447 52.8825 30.579 53.3765 30.579C53.8705 30.579 54.2778 30.4403 54.5985 30.163C54.9192 29.8857 55.0795 29.5303 55.0795 29.097ZM53.3765 31.697C52.8045 31.697 52.3365 31.84 51.9725 32.126C51.6172 32.4033 51.4395 32.8063 51.4395 33.335C51.4395 33.829 51.6128 34.232 51.9595 34.544C52.3062 34.8473 52.7785 34.999 53.3765 34.999C53.9658 34.999 54.4295 34.843 54.7675 34.531C55.1142 34.219 55.2875 33.8203 55.2875 33.335C55.2875 32.815 55.1098 32.412 54.7545 32.126C54.4078 31.84 53.9485 31.697 53.3765 31.697ZM59.8985 31.047C58.9972 30.5963 58.5465 29.8857 58.5465 28.915C58.5465 28.447 58.6635 28.018 58.8975 27.628C59.1315 27.238 59.4825 26.9303 59.9505 26.705C60.4185 26.471 60.9905 26.354 61.6665 26.354C62.3339 26.354 62.9015 26.471 63.3695 26.705C63.8462 26.9303 64.2015 27.238 64.4355 27.628C64.6695 28.018 64.7865 28.447 64.7865 28.915C64.7865 29.4003 64.6609 29.8293 64.4095 30.202C64.1669 30.566 63.8419 30.8477 63.4345 31.047C63.9285 31.229 64.3185 31.528 64.6045 31.944C64.8905 32.3513 65.0335 32.8323 65.0335 33.387C65.0335 33.9503 64.8905 34.4487 64.6045 34.882C64.3185 35.3153 63.9199 35.649 63.4085 35.883C62.8972 36.117 62.3165 36.234 61.6665 36.234C61.0165 36.234 60.4359 36.117 59.9245 35.883C59.4219 35.649 59.0275 35.3153 58.7415 34.882C58.4555 34.4487 58.3125 33.9503 58.3125 33.387C58.3125 32.8237 58.4555 32.3383 58.7415 31.931C59.0275 31.5237 59.4132 31.229 59.8985 31.047ZM63.3695 29.097C63.3695 28.6117 63.2179 28.239 62.9145 27.979C62.6112 27.719 62.1952 27.589 61.6665 27.589C61.1465 27.589 60.7349 27.719 60.4315 27.979C60.1282 28.239 59.9765 28.616 59.9765 29.11C59.9765 29.5433 60.1325 29.8987 60.4445 30.176C60.7652 30.4447 61.1725 30.579 61.6665 30.579C62.1605 30.579 62.5679 30.4403 62.8885 30.163C63.2092 29.8857 63.3695 29.5303 63.3695 29.097ZM61.6665 31.697C61.0945 31.697 60.6265 31.84 60.2625 32.126C59.9072 32.4033 59.7295 32.8063 59.7295 33.335C59.7295 33.829 59.9029 34.232 60.2495 34.544C60.5962 34.8473 61.0685 34.999 61.6665 34.999C62.2559 34.999 62.7195 34.843 63.0575 34.531C63.4042 34.219 63.5775 33.8203 63.5775 33.335C63.5775 32.815 63.3999 32.412 63.0445 32.126C62.6979 31.84 62.2385 31.697 61.6665 31.697ZM68.4096 34.219L66.8366 37.807H65.8746L66.7976 34.219H68.4096ZM74.6055 28.72C74.5102 28.3213 74.3368 28.0223 74.0855 27.823C73.8342 27.6237 73.4832 27.524 73.0325 27.524C72.3478 27.524 71.8365 27.7883 71.4985 28.317C71.1605 28.837 70.9828 29.7037 70.9655 30.917C71.1908 30.5357 71.5202 30.241 71.9535 30.033C72.3868 29.825 72.8548 29.721 73.3575 29.721C73.9295 29.721 74.4322 29.8467 74.8655 30.098C75.3075 30.3407 75.6498 30.696 75.8925 31.164C76.1438 31.632 76.2695 32.191 76.2695 32.841C76.2695 33.4477 76.1482 33.9893 75.9055 34.466C75.6715 34.9427 75.3205 35.3197 74.8525 35.597C74.3845 35.8657 73.8212 36 73.1625 36C72.2698 36 71.5678 35.805 71.0565 35.415C70.5538 35.0163 70.1985 34.4573 69.9905 33.738C69.7912 33.0187 69.6915 32.1217 69.6915 31.047C69.6915 27.875 70.8095 26.289 73.0455 26.289C73.9122 26.289 74.5925 26.523 75.0865 26.991C75.5892 27.459 75.8838 28.0353 75.9705 28.72H74.6055ZM73.0325 30.969C72.5038 30.969 72.0532 31.1293 71.6805 31.45C71.3165 31.762 71.1345 32.217 71.1345 32.815C71.1345 33.413 71.3035 33.8897 71.6415 34.245C71.9882 34.5917 72.4692 34.765 73.0845 34.765C73.6305 34.765 74.0595 34.596 74.3715 34.258C74.6922 33.92 74.8525 33.4693 74.8525 32.906C74.8525 32.3167 74.6965 31.8487 74.3845 31.502C74.0812 31.1467 73.6305 30.969 73.0325 30.969ZM78.6693 33.985C79.5013 33.2657 80.1556 32.6763 80.6323 32.217C81.1176 31.749 81.5206 31.2637 81.8413 30.761C82.162 30.2583 82.3223 29.7557 82.3223 29.253C82.3223 28.733 82.1966 28.3257 81.9453 28.031C81.7026 27.7363 81.317 27.589 80.7883 27.589C80.277 27.589 79.8783 27.7537 79.5923 28.083C79.315 28.4037 79.1676 28.837 79.1503 29.383H77.7203C77.7463 28.395 78.041 27.641 78.6043 27.121C79.1763 26.5923 79.9 26.328 80.7753 26.328C81.72 26.328 82.4566 26.588 82.9853 27.108C83.5226 27.628 83.7913 28.3213 83.7913 29.188C83.7913 29.812 83.631 30.4143 83.3103 30.995C82.9983 31.567 82.6213 32.0827 82.1793 32.542C81.746 32.9927 81.1913 33.517 80.5153 34.115L79.9303 34.635H84.0513V35.87H77.7333V34.791L78.6693 33.985Z" fill="#004D85"/>
<path d="M127.879 21.9507C128.305 24.0068 128.08 26.1448 127.233 28.0666C126.387 29.9883 124.962 31.5981 123.157 32.6714C121.352 33.7446 119.257 34.228 117.165 34.0539C115.072 33.8799 113.086 33.0571 111.483 31.7004C109.88 30.3438 108.74 28.5207 108.223 26.4855C107.706 24.4503 107.836 22.3044 108.597 20.347C109.357 18.3896 110.709 16.7183 112.465 15.566C114.221 14.4137 116.292 13.838 118.39 13.9191" stroke="#004D85" stroke-opacity="0.46" stroke-width="7"/>
<g filter="url(#filter1_d_203_26)">
<path d="M120.478 14.2204C118.721 13.7753 116.877 13.8116 115.14 14.3252C115.118 14.3316 115.106 14.3544 115.113 14.3761V14.3761C115.119 14.3978 115.142 14.41 115.164 14.4036C116.887 13.8943 118.716 13.8583 120.458 14.2998C122.213 14.7446 123.815 15.6575 125.093 16.9412C126.37 18.2248 127.275 19.8311 127.712 21.5887C128.148 23.3464 128.099 25.1895 127.571 26.9216C127.042 28.6537 126.053 30.2098 124.709 31.424C123.366 32.6383 121.718 33.4651 119.941 33.8164C118.165 34.1677 116.326 34.0303 114.621 33.4188C112.929 32.812 111.433 31.7607 110.288 30.3759C110.273 30.3584 110.247 30.3559 110.23 30.3702V30.3702C110.212 30.3845 110.21 30.4104 110.224 30.4278C111.379 31.8241 112.888 32.884 114.594 33.4959C116.312 34.1124 118.166 34.251 119.957 33.8968C121.748 33.5426 123.41 32.709 124.764 31.4848C126.119 30.2606 127.116 28.6917 127.649 26.9455C128.182 25.1992 128.231 23.341 127.791 21.569C127.351 19.797 126.439 18.1776 125.151 16.8834C123.863 15.5892 122.248 14.6689 120.478 14.2204Z" stroke="#004D85" stroke-width="7" shape-rendering="crispEdges"/>
</g>
<defs>
<filter id="filter0_d_203_26" x="0" y="0" width="154" height="54" filterUnits="userSpaceOnUse" color-interpolation-filters="sRGB">
<feFlood flood-opacity="0" result="BackgroundImageFix"/>
<feColorMatrix in="SourceAlpha" type="matrix" values="0 0 0 0 0 0 0 0 0 0 0 0 0 0 0 0 0 0 127 0" result="hardAlpha"/>
<feOffset dy="4"/>
<feGaussianBlur stdDeviation="2"/>
<feComposite in2="hardAlpha" operator="out"/>
<feColorMatrix type="matrix" values="0 0 0 0 0 0 0 0 0 0 0 0 0 0 0 0 0 0 0.25 0"/>
<feBlend mode="normal" in2="BackgroundImageFix" result="effect1_dropShadow_203_26"/>
<feBlend mode="normal" in="SourceGraphic" in2="effect1_dropShadow_203_26" result="shape"/>
</filter>
<filter id="filter1_d_203_26" x="102.715" y="10.4114" width="32.8737" height="35.177" filterUnits="userSpaceOnUse" color-interpolation-filters="sRGB">
<feFlood flood-opacity="0" result="BackgroundImageFix"/>
<feColorMatrix in="SourceAlpha" type="matrix" values="0 0 0 0 0 0 0 0 0 0 0 0 0 0 0 0 0 0 127 0" result="hardAlpha"/>
<feOffset dy="4"/>
<feGaussianBlur stdDeviation="2"/>
<feComposite in2="hardAlpha" operator="out"/>
<feColorMatrix type="matrix" values="0 0 0 0 0 0 0 0 0 0 0 0 0 0 0 0 0 0 0.25 0"/>
<feBlend mode="normal" in2="BackgroundImageFix" result="effect1_dropShadow_203_26"/>
<feBlend mode="normal" in="SourceGraphic" in2="effect1_dropShadow_203_26" result="shape"/>
</filter>
<linearGradient id="paint0_linear_203_26" x1="77" y1="0" x2="77" y2="46" gradientUnits="userSpaceOnUse">
<stop stop-color="white"/>
<stop offset="1" stop-color="white" stop-opacity="0"/>
</linearGradient>
</defs>
</svg>
