<svg width="52" height="52" viewBox="0 0 52 52" fill="none" xmlns="http://www.w3.org/2000/svg">
<g clip-path="url(#clip0_597_1287)">
<path d="M26.0002 -0.0552979C11.6336 -0.0552979 -0.0566406 11.6317 -0.0566406 26C-0.0566406 40.3682 11.6336 52.0552 26.0002 52.0552C40.3669 52.0552 52.0571 40.3682 52.0571 26C52.0571 11.6317 40.3669 -0.0552979 26.0002 -0.0552979ZM26.0002 50.3197C12.5907 50.3197 1.68211 39.4095 1.68211 26C1.68211 12.5905 12.5907 1.6802 26.0002 1.6802C39.4097 1.6802 50.3184 12.5905 50.3184 26C50.3184 39.4095 39.4097 50.3197 26.0002 50.3197Z" fill="white"/>
<path d="M40.2906 17.9497C40.4709 17.6161 40.6194 17.2662 40.7342 16.9048C40.7874 16.7372 40.7885 16.5574 40.7373 16.3891C40.6862 16.2208 40.5852 16.072 40.4477 15.9624C40.3102 15.8527 40.1427 15.7873 39.9673 15.7748C39.7918 15.7623 39.6167 15.8034 39.4651 15.8925C38.6324 16.3871 37.7311 16.7557 36.7904 16.9861C35.6484 15.9555 34.1654 15.3841 32.6271 15.3822C31.7914 15.3828 30.9644 15.5522 30.1958 15.8802C29.4271 16.2082 28.7326 16.688 28.1538 17.2909C27.5751 17.8937 27.124 18.6073 26.8277 19.3887C26.5314 20.1701 26.3959 21.0033 26.4294 21.8383C22.7748 21.3783 19.4375 19.529 17.11 16.6741C17.0208 16.5659 16.9068 16.4809 16.7778 16.4262C16.6487 16.3715 16.5083 16.3488 16.3686 16.36C16.2289 16.3711 16.0939 16.4158 15.9751 16.4903C15.8564 16.5648 15.7574 16.6669 15.6865 16.7878C15.1535 17.7026 14.8638 18.7386 14.8451 19.7972C14.8263 20.8557 15.0791 21.9014 15.5792 22.8345C15.4566 22.8552 15.3387 22.8981 15.2315 22.9612C15.1001 23.045 14.9919 23.1605 14.917 23.2971C14.842 23.4337 14.8026 23.587 14.8025 23.7428C14.8025 25.5872 15.6231 27.2805 16.9459 28.431L16.889 28.4878C16.7891 28.6008 16.7204 28.7378 16.6897 28.8854C16.6589 29.033 16.6671 29.1861 16.7135 29.3296C16.9893 30.1901 17.4499 30.9799 18.0629 31.6437C18.6759 32.3075 19.4267 32.8294 20.2625 33.1727C18.5458 34.0101 16.6247 34.3367 14.7277 34.1136C14.5328 34.0937 14.3367 34.1391 14.1702 34.2426C14.0038 34.3461 13.8764 34.5019 13.808 34.6856C13.7423 34.8706 13.7411 35.0724 13.8045 35.2583C13.8679 35.4441 13.9923 35.603 14.1574 35.7093C16.7363 37.3645 19.7364 38.2438 22.8007 38.2427C32.8432 38.2427 38.846 30.0852 38.846 22.1991L38.8444 21.9326C39.8176 21.1727 40.663 20.2621 41.3485 19.2351C41.4523 19.0798 41.5033 18.8953 41.4941 18.7087C41.4848 18.5222 41.4157 18.3436 41.297 18.1994C41.1784 18.0552 41.0164 17.9531 40.8351 17.9081C40.6539 17.8631 40.4629 17.8777 40.2906 17.9497ZM37.455 20.8016C37.3371 20.8864 37.2423 20.9994 37.1793 21.1302C37.1162 21.2611 37.087 21.4056 37.0942 21.5507C37.104 21.7652 37.1089 21.983 37.1089 22.1975C37.1089 29.2305 31.7577 36.5056 22.8024 36.5056C21.2052 36.5063 19.6192 36.2382 18.111 35.7126C19.9173 35.3664 21.6142 34.5918 23.0591 33.4538C23.1998 33.3429 23.3027 33.1913 23.3539 33.0197C23.4051 32.848 23.4021 32.6648 23.3452 32.4949C23.2883 32.3251 23.1803 32.177 23.036 32.0708C22.8917 31.9647 22.7182 31.9057 22.5391 31.902C21.8385 31.8886 21.1508 31.7107 20.5315 31.3827C19.9122 31.0547 19.3786 30.5858 18.9739 30.0137C19.385 29.9861 19.788 29.9178 20.1796 29.8122C20.3692 29.7615 20.5359 29.648 20.6527 29.4903C20.7694 29.3326 20.8293 29.14 20.8225 28.9439C20.8157 28.7478 20.7427 28.5598 20.6153 28.4106C20.4879 28.2614 20.3137 28.1597 20.1211 28.1222C19.3298 27.9612 18.5971 27.5881 18.0014 27.0429C17.4058 26.4976 16.9696 25.8006 16.7395 25.0266C17.1717 25.1355 17.6154 25.1988 18.059 25.2135C18.4409 25.2118 18.7951 24.9778 18.9137 24.6106C19.0324 24.2433 18.8926 23.8387 18.5692 23.6242C17.8046 23.1148 17.2159 22.3817 16.8835 21.5252C16.5511 20.6687 16.4911 19.7304 16.7119 18.8386C19.5345 21.7348 23.346 23.4595 27.3849 23.6681C27.6709 23.6697 27.9211 23.5673 28.095 23.3577C28.2689 23.1481 28.3355 22.8702 28.2737 22.6037C28.0515 21.6466 28.1509 20.6429 28.5566 19.7479C28.9623 18.853 29.6516 18.1167 30.5179 17.653C31.3842 17.1894 32.3792 17.0241 33.3489 17.1829C34.3185 17.3417 35.2088 17.8157 35.882 18.5315C35.9829 18.6391 36.1095 18.7193 36.2499 18.7645C36.3904 18.8097 36.54 18.8184 36.6847 18.7898C36.9529 18.7362 37.2177 18.6745 37.4794 18.603C37.3614 18.6912 37.2388 18.7732 37.1121 18.8483C36.9436 18.9515 36.8153 19.1091 36.7483 19.295C36.6813 19.4809 36.6797 19.6841 36.7437 19.8711C36.8076 20.0581 36.9334 20.2177 37.1002 20.3236C37.267 20.4295 37.4649 20.4755 37.6614 20.4538L37.9571 20.4165C37.7943 20.5506 37.6268 20.6791 37.455 20.8016Z" fill="white"/>
</g>
<defs>
<clipPath id="clip0_597_1287">
<rect width="52" height="52" fill="white"/>
</clipPath>
</defs>
</svg>
