<svg width="205" height="12" viewBox="0 0 205 12" fill="none" xmlns="http://www.w3.org/2000/svg">
<path fill-rule="evenodd" clip-rule="evenodd" d="M36.3155 0.56064C36.3175 0.249064 36.5787 -0.00193757 36.8989 1.12721e-05C50.2284 0.0811366 63.5578 0.190204 76.887 0.299269C84.98 0.365489 93.0729 0.431709 101.166 0.491673C113.475 0.238183 124.495 0.0811321 132.45 0.0811321C136.365 0.0811321 144.183 0.243612 150.041 0.405888C152.969 0.487004 155.416 0.568289 156.644 0.629512C156.949 0.64475 157.187 0.659144 157.341 0.672565C157.407 0.678356 157.49 0.686559 157.556 0.700562C157.573 0.704091 157.613 0.712912 157.659 0.730531C157.679 0.738117 157.72 0.75474 157.767 0.784477C160.389 0.758996 163.011 0.740626 165.633 0.730191C171.728 0.705934 183.917 0.705936 193.058 0.711999C197.628 0.71503 201.437 0.719577 203.342 0.723367C203.818 0.724315 204.175 0.725215 204.396 0.726034C204.506 0.726442 204.583 0.726834 204.625 0.727214L204.652 0.727539L204.665 0.727839L204.678 0.72833C204.686 0.728719 204.713 0.730942 204.733 0.733391C205.048 0.88119 205.126 1.61518 204.737 1.8499C204.715 1.85267 204.686 1.85511 204.678 1.85552C204.668 1.85597 204.66 1.85613 204.657 1.85618L204.657 1.85618C204.65 1.85633 204.64 1.85643 204.631 1.85651C204.485 1.85777 203.719 1.85852 202.198 1.85852C189.034 1.85852 175.886 1.90135 162.737 2.34498C136.76 3.22146 110.815 4.77765 84.9371 7.10744C113.567 6.54042 142.24 6.40806 170.839 8.03301C173.838 8.20344 179.879 8.64826 183.482 9.17414C183.514 9.17885 183.57 9.18168 183.678 9.18544L183.69 9.18587C183.78 9.18897 183.902 9.19319 184.016 9.20667C184.118 9.21866 184.31 9.24665 184.48 9.35141C184.576 9.41093 184.69 9.51035 184.759 9.66598C184.829 9.82537 184.825 9.98371 184.792 10.1123C184.728 10.3602 184.605 10.5793 184.415 10.7503C184.228 10.9186 184.008 11.0121 183.793 11.0609C183.385 11.1538 182.922 11.1016 182.518 11.0285C182.215 10.9736 181.888 10.8948 181.582 10.8214C181.473 10.795 181.366 10.7693 181.265 10.7457C180.855 10.6505 180.517 10.5857 180.256 10.5801C175.28 10.4725 170.308 10.2819 165.341 10.0868L164.445 10.0516C159.776 9.86792 155.111 9.68445 150.445 9.56585C128.419 9.00607 106.381 9.21939 84.3616 10.0524C79.4069 10.2399 74.4383 10.5972 69.4545 10.9557C68.3244 11.037 67.1936 11.1183 66.0619 11.1978C59.9454 11.6271 53.8116 12 47.6931 12C47.2117 12 46.8355 11.9894 46.5611 11.9674C46.4251 11.9565 46.3005 11.9417 46.1947 11.9206C46.1221 11.9061 45.9451 11.8697 45.8003 11.7552C45.7121 11.6854 45.5721 11.5336 45.5682 11.2964C45.5646 11.0747 45.6842 10.9271 45.7456 10.8645C45.8598 10.7484 46.0073 10.6866 46.0772 10.6585C46.2566 10.5862 46.5137 10.5171 46.8082 10.4497C48.0045 10.1757 50.3787 9.80847 53.1953 9.42116C54.5022 9.24145 55.9105 9.05661 57.3505 8.87387C42.6648 9.24258 29.2911 9.64387 14.6943 10.1336C11.858 10.2288 9.02449 10.324 6.19246 10.4423C6.1755 10.4561 6.16069 10.4666 6.14965 10.474C6.11162 10.4996 6.07795 10.5157 6.05765 10.5247C6.01749 10.5425 5.98337 10.5522 5.96754 10.5565C5.94854 10.5617 5.93189 10.5654 5.91988 10.5678C5.8774 10.5764 5.83052 10.5823 5.79261 10.5866C5.70927 10.5961 5.58626 10.6068 5.42179 10.6191C5.31451 10.6271 5.2118 10.6062 5.12178 10.5631C4.72598 10.5683 4.22092 10.5791 3.77327 10.5887C3.7184 10.5899 3.6644 10.5911 3.61156 10.5922C3.30995 10.5986 3.04525 10.6041 2.88167 10.6059C2.80997 10.6067 2.732 10.6073 2.68577 10.6047C2.67788 10.6043 2.66309 10.6034 2.64544 10.6014C2.63668 10.6004 2.62165 10.5985 2.60332 10.5952C2.59084 10.5929 2.54922 10.5852 2.4991 10.5663C2.47158 10.5552 2.40376 10.5202 2.36473 10.4945C2.30472 10.4452 2.18515 10.2834 2.14323 10.1667C2.12872 10.0212 2.19631 9.77495 2.25911 9.68304C2.30514 9.63428 2.39038 9.56793 2.42573 9.54708C2.48584 9.5144 2.53851 9.49996 2.55165 9.49636L2.55229 9.49618C2.57324 9.49043 2.59042 9.48695 2.5998 9.48515C2.63085 9.47921 2.65917 9.47637 2.66835 9.47545L2.66899 9.47539C2.68354 9.47393 2.69909 9.47264 2.71431 9.47148C2.93318 9.45479 3.79949 9.41435 5.76894 9.3307C8.73131 9.20487 11.6944 9.10528 14.6543 9.00597C29.7596 8.49914 43.5561 8.08703 58.8514 7.70771C62.4376 7.61877 66.0251 7.53035 69.6137 7.44505C69.8133 7.42429 70.0047 7.4046 70.1875 7.38604C93.1067 5.05899 116.082 3.35341 139.09 2.2039C122.649 2.54667 106.208 3.09247 89.764 3.63838C88.9332 3.66596 88.1024 3.69354 87.2716 3.7211C61.1485 4.58751 35.0167 5.42832 8.87932 5.42832C6.30175 5.42832 4.3642 5.41184 3.00851 5.38079C2.3311 5.36527 1.79477 5.34602 1.39462 5.32306C1.01375 5.3012 0.708495 5.27396 0.52749 5.23091C0.484194 5.22062 0.401109 5.19915 0.317717 5.15422C0.277516 5.13256 0.193895 5.0829 0.121552 4.99011C0.0362559 4.8807 -0.0318223 4.70847 0.0155769 4.50977C0.0560325 4.34018 0.161251 4.23892 0.212601 4.19625C0.269273 4.14915 0.324173 4.12064 0.356731 4.10527C0.422943 4.07402 0.489235 4.05465 0.535337 4.04257C0.717123 3.99495 1.01581 3.95371 1.38224 3.9141C2.14027 3.83215 3.35808 3.74083 4.96692 3.64191C11.4089 3.24583 24.287 2.71824 39.7326 2.19091C48.1964 1.90194 57.4342 1.61296 66.8106 1.34565C56.8365 1.26536 46.8633 1.18902 36.8917 1.12833C36.5715 1.12638 36.3135 0.872215 36.3155 0.56064ZM101.173 1.6201C81.5919 2.02345 58.7417 2.67094 39.7733 3.31855C29.9841 3.65276 21.2328 3.98688 14.5005 4.28731C38.7413 4.1793 62.9814 3.39773 87.2321 2.59342C88.065 2.56579 88.898 2.53814 89.7309 2.51049C98.0023 2.23589 106.275 1.96125 114.549 1.71244C110.09 1.68426 105.632 1.65313 101.173 1.6201ZM204.632 1.85571C204.634 1.85574 204.633 1.85574 204.631 1.85567L204.632 1.85571ZM0.802809 4.13484C0.796676 4.13338 0.797566 4.13327 0.803721 4.13505C0.803413 4.13498 0.803109 4.13491 0.802809 4.13484ZM0.829783 5.13404C0.828399 5.1345 0.827656 5.13471 0.827632 5.13471C0.827609 5.1347 0.828301 5.13447 0.829783 5.13404ZM2.7879 10.5978C2.78813 10.5978 2.78846 10.5977 2.7889 10.5977C2.78582 10.598 2.78521 10.598 2.7879 10.5978ZM69.6895 8.57193C65.7509 8.98227 58.7009 9.80363 53.3575 10.5384C52.6324 10.6381 51.9407 10.736 51.2937 10.8308C56.1758 10.7232 61.0725 10.4167 65.9785 10.0724C67.1054 9.99326 68.2331 9.91214 69.3612 9.83099C74.3462 9.4724 79.3396 9.11321 84.3165 8.92493C106.358 8.09107 128.422 7.87741 150.475 8.4379C155.15 8.55672 159.823 8.7405 164.49 8.92409L165.388 8.95937C167.274 9.03346 169.16 9.10683 171.045 9.17523C170.951 9.16973 170.86 9.16446 170.771 9.15943C137.135 7.24823 103.387 7.77127 69.6895 8.57193ZM46.3992 10.8082C46.3995 10.8081 46.4041 10.8092 46.4119 10.8119C46.4028 10.8097 46.3989 10.8084 46.3992 10.8082ZM46.5016 11.7092C46.4967 11.7119 46.4938 11.7133 46.4935 11.7132C46.4932 11.7132 46.4957 11.7118 46.5016 11.7092Z" fill="#0081DE"/>
</svg>
