<svg width="22" height="22" viewBox="0 0 22 22" fill="none" xmlns="http://www.w3.org/2000/svg">
<path d="M11.4985 1C6.25088 1 1.99707 5.26003 1.99707 10.5154C1.99707 15.7707 6.25088 20.0307 11.4985 20.0307C16.7462 20.0307 21 15.7707 21 10.5154C21 5.26003 16.7462 1 11.4985 1Z" stroke="#004D85" stroke-width="2" stroke-linecap="round" strokeLinejoin="round"/>
<path d="M4.15485 16.5538C4.15485 16.5538 6.27272 13.8457 11.4985 13.8457C16.7243 13.8457 18.8432 16.5538 18.8432 16.5538M11.4985 10.5153C12.2545 10.5153 12.9795 10.2146 13.5141 9.67925C14.0487 9.14391 14.349 8.41782 14.349 7.66073C14.349 6.90364 14.0487 6.17756 13.5141 5.64222C12.9795 5.10687 12.2545 4.80612 11.4985 4.80612C10.7425 4.80612 10.0175 5.10687 9.48296 5.64222C8.9484 6.17756 8.64809 6.90364 8.64809 7.66073C8.64809 8.41782 8.9484 9.14391 9.48296 9.67925C10.0175 10.2146 10.7425 10.5153 11.4985 10.5153Z" stroke="#004D85" stroke-width="2" stroke-linecap="round" strokeLinejoin="round"/>
</svg>
