<svg width="735" height="32" viewBox="0 0 735 32" fill="none" xmlns="http://www.w3.org/2000/svg">
<path d="M22.16 9.56L20.84 5.2C20.68 4.69333 20.4667 4.34667 20.2 4.16C18.2533 3.65333 16.2667 3.4 14.24 3.4C10.4267 3.4 7.88 4.34666 6.6 6.24C5.32 8.10667 4.68 11.5333 4.68 16.52C4.68 22.0933 6.45333 25.96 10 28.12C11.52 29.0267 13.2667 29.48 15.24 29.48C17.24 29.48 19.1333 28.8 20.92 27.44C21.1867 26.96 21.5733 25.7733 22.08 23.88L22.64 21.72H24.12C24.0133 22.8133 23.96 25.4667 23.96 29.68C20.36 31.0133 17.0533 31.68 14.04 31.68C10.0667 31.68 6.89333 30.6 4.52 28.44C1.96 26.0933 0.68 22.0667 0.68 16.36C0.68 13.0533 1.14667 10.3067 2.08 8.12C2.64 6.81333 3.78667 5.41333 5.52 3.92C7.25333 2.4 9.25333 1.49333 11.52 1.2C12.88 1.01333 14.44 0.919999 16.2 0.919999C19.64 0.919999 22.0667 1.30667 23.48 2.08L23.92 2.52C23.92 3.85333 23.8 6.2 23.56 9.56H22.16ZM40.3522 31.56C36.1122 31.56 32.9389 30.2 30.8322 27.48C28.7255 24.7333 27.6722 21.2133 27.6722 16.92C27.6722 12.6267 28.5255 9.18667 30.2322 6.6C31.1389 5.24 32.4189 4.09333 34.0722 3.16C36.6855 1.69333 39.2589 0.959998 41.7922 0.959998C45.9522 0.959998 49.0455 2.14666 51.0722 4.52C53.1255 6.89333 54.1522 10.4 54.1522 15.04C54.1522 19.6533 53.2055 23.3467 51.3122 26.12C50.0322 27.9867 48.2855 29.36 46.0722 30.24C43.8855 31.12 41.9789 31.56 40.3522 31.56ZM31.7522 15.84C31.7522 18.5333 32.1522 20.8933 32.9522 22.92C33.3255 23.8 33.8855 24.7333 34.6322 25.72C35.4055 26.7067 36.3655 27.4933 37.5122 28.08C38.6589 28.64 40.2189 28.92 42.1922 28.92C47.4189 28.92 50.0322 24.9333 50.0322 16.96C50.0322 12.4533 49.3255 9.17333 47.9122 7.12C46.4989 5.04 44.6989 3.84 42.5122 3.52C42.2722 3.46667 41.5522 3.44 40.3522 3.44C37.7122 3.44 35.6189 4.41333 34.0722 6.36C32.5255 8.30666 31.7522 11.4667 31.7522 15.84ZM55.8769 2.96V1.48H64.9969L65.3569 2.56L74.3169 24.8C77.5702 17.7333 80.5969 10.32 83.3969 2.56L83.7569 1.48H92.8769V2.96C90.6369 3.04 89.2902 3.28 88.8369 3.68C88.6502 3.86666 88.5569 4.05333 88.5569 4.24C88.5569 4.42666 88.8102 11.8 89.3169 26.36L89.3569 27.48C89.4369 28.3067 89.6769 28.84 90.0769 29.08C90.5035 29.2933 91.3435 29.44 92.5969 29.52V31H81.5169V29.52C82.3169 29.4667 82.9302 29.4 83.3569 29.32C83.8102 29.24 84.2102 29.0667 84.5569 28.8C84.9302 28.5333 85.1169 28.16 85.1169 27.68C85.0369 22.5333 84.7435 15.68 84.2369 7.12C80.5302 15.2533 77.1835 23.2133 74.1969 31H72.6369L62.3969 6.96C61.9969 13.84 61.7969 20.7467 61.7969 27.68C61.7969 28.64 62.9835 29.2267 65.3569 29.44V31H55.9169V29.56C57.1169 29.4267 57.9435 29.08 58.3969 28.52C58.8502 27.9333 59.1302 27 59.2369 25.72C59.7702 17.5067 60.0769 11.1333 60.1569 6.6L60.1969 4.36C60.1969 3.85333 59.8369 3.52 59.1169 3.36C58.4235 3.17333 57.3435 3.04 55.8769 2.96ZM95.0819 31V29.52C95.8819 29.4667 96.4952 29.4 96.9219 29.32C97.3752 29.24 97.7752 29.0667 98.1219 28.8C98.4952 28.5333 98.6819 28.16 98.6819 27.68C98.7885 24.2667 98.8419 20.2133 98.8419 15.52C98.8419 10.8 98.7885 7.14667 98.6819 4.56C98.6552 3.97333 98.4419 3.58667 98.0419 3.4C97.6685 3.18667 96.9752 3.05333 95.9619 3L95.4019 2.96V1.48C96.8419 1.58667 98.6552 1.64 100.842 1.64C103.029 1.64 104.722 1.6 105.922 1.52L116.442 1.48L116.922 1.92C116.869 2.13333 116.682 3.34667 116.362 5.56C116.042 7.77333 115.869 9.02667 115.842 9.32H114.482C113.975 6.6 113.655 5.08 113.522 4.76C113.415 4.41333 113.229 4.14667 112.962 3.96C112.082 3.72 110.469 3.6 108.122 3.6C105.802 3.6 104.402 3.69333 103.922 3.88C103.442 4.04 103.189 4.4 103.162 4.96C103.109 6.4 103.055 9.57333 103.002 14.48C106.762 14.48 110.042 14.4133 112.842 14.28L112.442 17.24H111.762C110.802 16.5467 107.869 16.2 102.962 16.2C102.909 20.1467 102.882 23.9733 102.882 27.68C102.882 28.32 103.362 28.7467 104.322 28.96C105.282 29.1467 106.989 29.24 109.442 29.24C111.922 29.24 113.362 29.08 113.762 28.76C114.429 28.1733 115.109 26.5467 115.802 23.88L116.362 21.72H117.842C117.762 22.4133 117.682 24.0267 117.602 26.56C117.522 29.0933 117.482 30.5733 117.482 31H95.0819ZM119.508 1.92L119.948 1.48H143.388L143.828 1.92C143.694 4.18667 143.628 6.81333 143.628 9.8H142.228C141.534 7.29333 141.081 5.82667 140.868 5.4C140.761 5.08 140.641 4.78667 140.508 4.52C140.321 4.33333 140.081 4.21333 139.788 4.16C138.401 3.89333 137.241 3.76 136.308 3.76C135.374 3.76 134.574 3.82666 133.908 3.96C133.694 9 133.588 16.9067 133.588 27.68C133.588 28.16 133.828 28.5467 134.308 28.84C134.814 29.1067 135.321 29.28 135.828 29.36C136.334 29.44 137.028 29.52 137.908 29.6V31H125.108V29.6C127.241 29.4133 128.548 29.08 129.028 28.6C129.268 28.36 129.388 28.0533 129.388 27.68C129.468 22.5067 129.508 17.6667 129.508 13.16C129.508 8.62667 129.481 5.56 129.428 3.96C128.761 3.82666 127.961 3.76 127.028 3.76C126.094 3.76 124.934 3.89333 123.548 4.16C123.254 4.21333 123.014 4.33333 122.828 4.52C122.694 4.78667 122.574 5.08 122.468 5.4C122.254 5.82667 121.801 7.29333 121.108 9.8H119.708C119.708 6.81333 119.641 4.18667 119.508 1.92ZM142.242 31V29.56C143.122 29.48 143.776 29.2933 144.202 29C144.629 28.68 145.082 28.0933 145.562 27.24C146.042 26.36 146.722 24.8133 147.602 22.6L155.922 1.8C156.109 1.66667 156.536 1.54667 157.202 1.44C157.896 1.33333 158.376 1.28 158.642 1.28C165.469 18.16 168.989 26.8133 169.202 27.24C169.442 27.6667 169.656 28.0133 169.842 28.28C170.056 28.52 170.389 28.7733 170.842 29.04C171.296 29.3067 171.829 29.48 172.442 29.56V31H161.002V29.64C163.376 29.4533 164.562 28.8667 164.562 27.88C164.562 27.16 164.282 26.16 163.722 24.88L162.962 23.12C162.642 22.4 162.362 21.7067 162.122 21.04H150.562C150.082 22.1333 149.549 23.4533 148.962 25C148.376 26.52 148.082 27.4133 148.082 27.68C148.082 28.64 149.282 29.2267 151.682 29.44V31H142.242ZM151.122 19.32H161.602L156.282 6.16L151.122 19.32Z" fill="white"/>
<path d="M262.16 31V29.52C262.96 29.4667 263.573 29.4 264 29.32C264.453 29.24 264.853 29.0667 265.2 28.8C265.573 28.5333 265.76 28.16 265.76 27.68C265.76 18.4533 265.667 10.7467 265.48 4.56C265.453 3.97333 265.24 3.58667 264.84 3.4C264.467 3.18667 263.76 3.05333 262.72 3L262.16 2.96V1.48C263.6 1.58667 265.48 1.64 267.8 1.64C270.12 1.64 271.96 1.57333 273.32 1.44C274.68 1.30667 275.493 1.24 275.76 1.24H276.56C277.947 1.24 279.16 1.41333 280.2 1.76C281.267 2.10667 282.08 2.52 282.64 3C283.227 3.48 283.693 4.05333 284.04 4.72C284.6 5.78667 284.88 7.02667 284.88 8.44C284.88 11.1333 283.4 13.2 280.44 14.64L279.24 15.24C283.693 16.7333 285.92 19.1467 285.92 22.48C285.92 24.8533 284.947 26.9067 283 28.64C281.053 30.3733 278.84 31.24 276.36 31.24H275.52C274.747 31.24 273.693 31.1867 272.36 31.08L271.08 31C269.64 30.8933 268.147 30.84 266.6 30.84C265.08 30.84 263.6 30.8933 262.16 31ZM269.68 25.4C269.68 26.8933 270.133 27.8267 271.04 28.2C271.947 28.5733 273.907 28.76 276.92 28.76C278.04 28.76 279.107 28.2 280.12 27.08C281.16 25.96 281.68 24.44 281.68 22.52C281.68 20.5733 281.053 19.08 279.8 18.04C278.547 16.9733 276.8 16.44 274.56 16.44C272.347 16.44 270.747 16.52 269.76 16.68C269.707 19.72 269.68 22.6267 269.68 25.4ZM269.76 14.76C271.493 14.6 272.88 14.52 273.92 14.52C274.96 14.52 275.8 14.5467 276.44 14.6C277.88 14.1733 278.92 13.44 279.56 12.4C280.2 11.36 280.52 10.2667 280.52 9.12C280.52 7.94667 280.32 6.96 279.92 6.16C279.52 5.33333 279.053 4.73333 278.52 4.36C277.427 3.58667 276.613 3.2 276.08 3.2C273.147 3.2 271.253 3.36 270.4 3.68L269.92 4.12C269.84 7.88 269.787 11.4267 269.76 14.76ZM302.057 31.24L293.697 30.84C291.43 30.84 289.577 30.8933 288.137 31V29.52C288.937 29.4667 289.55 29.4 289.977 29.32C290.43 29.24 290.83 29.0667 291.177 28.8C291.55 28.5333 291.737 28.16 291.737 27.68C291.737 18.4533 291.643 10.7467 291.457 4.56C291.43 3.97333 291.217 3.58667 290.817 3.4C290.443 3.18667 289.737 3.05333 288.697 3L288.137 2.96V1.48C289.577 1.58667 291.483 1.64 293.857 1.64C296.257 1.64 298.243 1.57333 299.817 1.44C301.39 1.30667 302.457 1.24 303.017 1.24H303.857C308.203 1.24 311.377 2.30667 313.377 4.44C315.377 6.57333 316.377 9.97333 316.377 14.64C316.377 17.04 316.083 19.2133 315.497 21.16C314.937 23.1067 314.19 24.6933 313.257 25.92C312.35 27.1467 311.297 28.1733 310.097 29C307.883 30.4933 305.483 31.24 302.897 31.24H302.057ZM295.617 25.4C295.617 26.7333 296.137 27.6267 297.177 28.08C298.243 28.5333 300.363 28.76 303.537 28.76C305.483 28.76 306.923 28.4133 307.857 27.72C308.79 27 309.75 25.7467 310.737 23.96C311.75 22.1733 312.257 19.4933 312.257 15.92C312.257 11.5467 311.39 8.34667 309.657 6.32C307.95 4.26667 305.243 3.24 301.537 3.24C298.977 3.24 297.257 3.38667 296.377 3.68L295.937 4.12C295.723 9.77333 295.617 16.8667 295.617 25.4ZM319.191 31V29.52C320.045 29.4667 320.698 29.4 321.151 29.32C322.245 29.08 322.791 28.5333 322.791 27.68C322.791 18.2667 322.698 10.56 322.511 4.56C322.485 3.94667 322.271 3.54667 321.871 3.36C321.498 3.17333 320.791 3.05333 319.751 3L319.191 2.96V1.48H330.791V2.96L330.231 3C329.485 3.05333 328.911 3.10667 328.511 3.16C327.471 3.34667 326.951 3.81333 326.951 4.56C326.765 9.89333 326.671 17.6 326.671 27.68C326.671 28.72 327.978 29.24 330.591 29.24H331.431C334.285 29.24 335.898 29.08 336.271 28.76C336.938 28.1733 337.618 26.5467 338.311 23.88L338.871 21.72H340.351C340.271 22.4133 340.191 24.0267 340.111 26.56C340.031 29.0933 339.991 30.5733 339.991 31H319.191ZM341.616 31V29.52C342.416 29.4667 343.029 29.4 343.456 29.32C343.909 29.24 344.309 29.0667 344.656 28.8C345.029 28.5333 345.216 28.16 345.216 27.68C345.216 18.4533 345.123 10.7467 344.936 4.56C344.909 3.97333 344.696 3.58667 344.296 3.4C343.923 3.18667 343.216 3.05333 342.176 3L341.616 2.96V1.48C343.109 1.58667 344.949 1.64 347.136 1.64C349.349 1.64 351.189 1.57333 352.656 1.44C354.149 1.30667 355.003 1.24 355.216 1.24H356.016C357.803 1.24 359.349 1.89333 360.656 3.2C361.989 4.50667 362.656 6.13333 362.656 8.08C362.656 10 362.283 11.4667 361.536 12.48C360.789 13.4933 359.536 14.5733 357.776 15.72C360.576 21.2133 362.949 25.5067 364.896 28.6L367.096 29.56V31C364.696 31 362.763 31.0533 361.296 31.16L354.296 16.72H353.176C351.549 16.72 350.229 16.5467 349.216 16.2C349.136 21.8267 349.096 25.6533 349.096 27.68C349.096 28.5067 349.669 29.0533 350.816 29.32C351.243 29.4 351.869 29.4667 352.696 29.52V31H341.616ZM349.256 14.04C350.003 14.4933 351.403 14.72 353.456 14.72C354.709 14.72 355.736 14.3867 356.536 13.72C357.336 13.0267 357.856 12.28 358.096 11.48C358.363 10.6533 358.496 9.8 358.496 8.92C358.496 8.04 358.376 7.24 358.136 6.52C357.923 5.8 357.643 5.24 357.296 4.84C356.976 4.44 356.629 4.09333 356.256 3.8C355.643 3.34667 355.123 3.12 354.696 3.12C352.243 3.12 350.616 3.29333 349.816 3.64L349.416 4.08C349.363 5.25333 349.309 8.57333 349.256 14.04ZM383.574 9.88L382.254 5.52C382.04 4.98667 381.827 4.64 381.614 4.48C380.84 3.78667 379.574 3.44 377.814 3.44C376.08 3.44 374.774 3.74667 373.894 4.36C373.014 4.97333 372.574 6.06667 372.574 7.64C372.574 9.34666 373.28 10.6533 374.694 11.56C374.987 11.7733 375.347 12 375.774 12.24L381.854 15.4C385.054 17.0533 386.654 19.5333 386.654 22.84C386.654 24.2533 386.48 25.3733 386.134 26.2C385.787 27.0267 385.094 28.04 384.054 29.24C382.614 30.8133 380.334 31.6 377.214 31.6C374.734 31.6 372.134 31 369.414 29.8C369.6 27.24 369.694 24.5467 369.694 21.72H371.174L371.734 23.88C372.107 25.32 372.387 26.2533 372.574 26.68C372.787 27.08 373.147 27.48 373.654 27.88C375.014 28.4667 376.507 28.76 378.134 28.76C379.76 28.76 380.96 28.4533 381.734 27.84C382.507 27.2 382.894 26.0533 382.894 24.4C382.894 22.1067 381.667 20.3067 379.214 19L375.974 17.4C374.4 16.5733 373.374 16.0133 372.894 15.72C372.414 15.4267 372.014 15.12 371.694 14.8L371.374 14.44C370.04 13 369.374 11.36 369.374 9.52C369.374 7.65333 369.667 6.17333 370.254 5.08C370.867 3.96 372.067 2.90666 373.854 1.92C375.134 1.22667 376.8 0.879999 378.854 0.879999C380.934 0.879999 382.934 1.38667 384.854 2.4L385.334 2.84C385.334 4.17333 385.214 6.52 384.974 9.88H383.574Z" fill="white"/>
<path d="M477.36 9.92L477.32 6.2V4.32C477.213 3.65333 476.64 3.26667 475.6 3.16L473.6 2.96V1.48H481.16C481.48 2.41333 487.2 10.1333 498.32 24.64C498.213 23.1467 498.16 20.4933 498.16 16.68C498.16 12.84 498.107 9.16 498 5.64C497.973 4.70667 497.773 4.08 497.4 3.76C497.027 3.41333 496.027 3.16 494.4 3V1.48H504.08V2.92C502.293 3.08 501.213 3.44 500.84 4L500.6 5.24C500.413 11.72 500.32 18.12 500.32 24.44L500.4 31H498.04C496.973 29.4 495.627 27.5733 494 25.52C492.373 23.44 491.053 21.76 490.04 20.48C488.013 17.8667 484.52 13.4133 479.56 7.12V19.4C479.693 24.4933 479.76 27.2933 479.76 27.8C479.76 28.3067 480.053 28.68 480.64 28.92C481.253 29.16 482.107 29.3333 483.2 29.44V31H473.76V29.56C475.84 29.3733 476.947 28.7867 477.08 27.8C477.267 26.4667 477.36 21.5333 477.36 13V9.92ZM528.814 16.76L528.734 4.8C528.734 3.84 527.534 3.25333 525.134 3.04V1.48H534.574V2.92C532.52 3.16 531.454 3.74667 531.374 4.68L531.334 5.4C531.28 6.14666 531.2 8.77333 531.094 13.28C530.987 17.7867 530.934 20.72 530.934 22.08C530.934 23.4133 530.694 24.7067 530.214 25.96C529.734 27.2133 529.12 28.2 528.374 28.92C527.654 29.6133 526.72 30.1733 525.574 30.6C524.427 31 523.32 31.2533 522.254 31.36C521.187 31.4933 519.907 31.56 518.414 31.56C516.947 31.56 515.6 31.32 514.374 30.84C513.147 30.36 512.2 29.7867 511.534 29.12C510.867 28.4267 510.307 27.64 509.854 26.76C509.16 25.32 508.814 23.88 508.814 22.44C508.76 11.1067 508.694 5.16 508.614 4.6C508.56 4.04 508.334 3.65333 507.934 3.44C507.534 3.2 506.707 3.04 505.454 2.96V1.48H516.494V2.96C515.64 3.01333 515 3.08 514.574 3.16C513.454 3.4 512.894 3.94667 512.894 4.8L512.934 15.4V18.6C512.96 20.0667 512.974 21.3467 512.974 22.44C512.974 23.5067 513.107 24.36 513.374 25C513.64 25.64 514.067 26.2933 514.654 26.96C515.267 27.6 516.16 28.1333 517.334 28.56C518.507 28.96 519.814 29.16 521.254 29.16C522.694 29.16 523.854 29.0133 524.734 28.72C525.614 28.4 526.32 27.9733 526.854 27.44C527.414 26.88 527.827 26.0667 528.094 25C528.574 23.1867 528.814 20.44 528.814 16.76ZM557.527 9.56L556.207 5.2C556.047 4.69333 555.834 4.34667 555.567 4.16C553.621 3.65333 551.634 3.4 549.607 3.4C545.794 3.4 543.247 4.34666 541.967 6.24C540.687 8.10667 540.047 11.5333 540.047 16.52C540.047 22.0933 541.821 25.96 545.367 28.12C546.887 29.0267 548.634 29.48 550.607 29.48C552.607 29.48 554.501 28.8 556.287 27.44C556.554 26.96 556.941 25.7733 557.447 23.88L558.007 21.72H559.487C559.381 22.8133 559.327 25.4667 559.327 29.68C555.727 31.0133 552.421 31.68 549.407 31.68C545.434 31.68 542.261 30.6 539.887 28.44C537.327 26.0933 536.047 22.0667 536.047 16.36C536.047 13.0533 536.514 10.3067 537.447 8.12C538.007 6.81333 539.154 5.41333 540.887 3.92C542.621 2.4 544.621 1.49333 546.887 1.2C548.247 1.01333 549.807 0.919999 551.567 0.919999C555.007 0.919999 557.434 1.30667 558.847 2.08L559.287 2.52C559.287 3.85333 559.167 6.2 558.927 9.56H557.527ZM562.519 31V29.52C563.373 29.4667 564.026 29.4 564.479 29.32C565.573 29.08 566.119 28.5333 566.119 27.68C566.119 18.2667 566.026 10.56 565.839 4.56C565.813 3.94667 565.599 3.54667 565.199 3.36C564.826 3.17333 564.119 3.05333 563.079 3L562.519 2.96V1.48H574.119V2.96L573.559 3C572.813 3.05333 572.239 3.10667 571.839 3.16C570.799 3.34667 570.279 3.81333 570.279 4.56C570.093 9.89333 569.999 17.6 569.999 27.68C569.999 28.72 571.306 29.24 573.919 29.24H574.759C577.613 29.24 579.226 29.08 579.599 28.76C580.266 28.1733 580.946 26.5467 581.639 23.88L582.199 21.72H583.679C583.599 22.4133 583.519 24.0267 583.439 26.56C583.359 29.0933 583.319 30.5733 583.319 31H562.519ZM584.824 31V29.52C585.624 29.4667 586.237 29.4 586.664 29.32C587.117 29.24 587.517 29.0667 587.864 28.8C588.237 28.5333 588.424 28.16 588.424 27.68C588.424 18.4533 588.331 10.7467 588.144 4.56C588.117 3.97333 587.904 3.58667 587.504 3.4C587.131 3.18667 586.424 3.05333 585.384 3L584.824 2.96V1.48H595.904V2.96L595.344 3C594.304 3.05333 593.584 3.18667 593.184 3.4C592.811 3.58667 592.611 3.97333 592.584 4.56C592.397 9.89333 592.304 17.6 592.304 27.68C592.304 28.5067 592.864 29.0533 593.984 29.32C594.437 29.4 595.077 29.4667 595.904 29.52V31H584.824ZM611.423 31.56C607.183 31.56 604.009 30.2 601.903 27.48C599.796 24.7333 598.743 21.2133 598.743 16.92C598.743 12.6267 599.596 9.18667 601.303 6.6C602.209 5.24 603.489 4.09333 605.143 3.16C607.756 1.69333 610.329 0.959998 612.863 0.959998C617.023 0.959998 620.116 2.14666 622.143 4.52C624.196 6.89333 625.223 10.4 625.223 15.04C625.223 19.6533 624.276 23.3467 622.383 26.12C621.103 27.9867 619.356 29.36 617.143 30.24C614.956 31.12 613.049 31.56 611.423 31.56ZM602.823 15.84C602.823 18.5333 603.223 20.8933 604.023 22.92C604.396 23.8 604.956 24.7333 605.703 25.72C606.476 26.7067 607.436 27.4933 608.583 28.08C609.729 28.64 611.289 28.92 613.263 28.92C618.489 28.92 621.103 24.9333 621.103 16.96C621.103 12.4533 620.396 9.17333 618.983 7.12C617.569 5.04 615.769 3.84 613.583 3.52C613.343 3.46667 612.623 3.44 611.423 3.44C608.783 3.44 606.689 4.41333 605.143 6.36C603.596 8.30666 602.823 11.4667 602.823 15.84ZM637.637 31V29.52C638.49 29.4667 639.143 29.4 639.597 29.32C640.69 29.08 641.237 28.5333 641.237 27.68C641.237 18.2667 641.143 10.56 640.957 4.56C640.93 3.94667 640.717 3.54667 640.317 3.36C639.943 3.17333 639.237 3.05333 638.197 3L637.637 2.96V1.48H649.237V2.96L648.677 3C647.93 3.05333 647.357 3.10667 646.957 3.16C645.917 3.34667 645.397 3.81333 645.397 4.56C645.21 9.89333 645.117 17.6 645.117 27.68C645.117 28.72 646.423 29.24 649.037 29.24H649.877C652.73 29.24 654.343 29.08 654.717 28.76C655.383 28.1733 656.063 26.5467 656.757 23.88L657.317 21.72H658.797C658.717 22.4133 658.637 24.0267 658.557 26.56C658.477 29.0933 658.437 30.5733 658.437 31H637.637ZM658.781 31V29.56C659.661 29.48 660.315 29.2933 660.741 29C661.168 28.68 661.621 28.0933 662.101 27.24C662.581 26.36 663.261 24.8133 664.141 22.6L672.461 1.8C672.648 1.66667 673.075 1.54667 673.741 1.44C674.435 1.33333 674.915 1.28 675.181 1.28C682.008 18.16 685.528 26.8133 685.741 27.24C685.981 27.6667 686.195 28.0133 686.381 28.28C686.595 28.52 686.928 28.7733 687.381 29.04C687.835 29.3067 688.368 29.48 688.981 29.56V31H677.541V29.64C679.915 29.4533 681.101 28.8667 681.101 27.88C681.101 27.16 680.821 26.16 680.261 24.88L679.501 23.12C679.181 22.4 678.901 21.7067 678.661 21.04H667.101C666.621 22.1333 666.088 23.4533 665.501 25C664.915 26.52 664.621 27.4133 664.621 27.68C664.621 28.64 665.821 29.2267 668.221 29.44V31H658.781ZM667.661 19.32H678.141L672.821 6.16L667.661 19.32ZM690.137 31V29.52C690.937 29.4667 691.55 29.4 691.977 29.32C692.43 29.24 692.83 29.0667 693.177 28.8C693.55 28.5333 693.737 28.16 693.737 27.68C693.737 18.4533 693.643 10.7467 693.457 4.56C693.43 3.97333 693.217 3.58667 692.817 3.4C692.443 3.18667 691.737 3.05333 690.697 3L690.137 2.96V1.48C691.577 1.58667 693.457 1.64 695.777 1.64C698.097 1.64 699.937 1.57333 701.297 1.44C702.657 1.30667 703.47 1.24 703.737 1.24H704.537C705.923 1.24 707.137 1.41333 708.177 1.76C709.243 2.10667 710.057 2.52 710.617 3C711.203 3.48 711.67 4.05333 712.017 4.72C712.577 5.78667 712.857 7.02667 712.857 8.44C712.857 11.1333 711.377 13.2 708.417 14.64L707.217 15.24C711.67 16.7333 713.897 19.1467 713.897 22.48C713.897 24.8533 712.923 26.9067 710.977 28.64C709.03 30.3733 706.817 31.24 704.337 31.24H703.497C702.723 31.24 701.67 31.1867 700.337 31.08L699.057 31C697.617 30.8933 696.123 30.84 694.577 30.84C693.057 30.84 691.577 30.8933 690.137 31ZM697.657 25.4C697.657 26.8933 698.11 27.8267 699.017 28.2C699.923 28.5733 701.883 28.76 704.897 28.76C706.017 28.76 707.083 28.2 708.097 27.08C709.137 25.96 709.657 24.44 709.657 22.52C709.657 20.5733 709.03 19.08 707.777 18.04C706.523 16.9733 704.777 16.44 702.537 16.44C700.323 16.44 698.723 16.52 697.737 16.68C697.683 19.72 697.657 22.6267 697.657 25.4ZM697.737 14.76C699.47 14.6 700.857 14.52 701.897 14.52C702.937 14.52 703.777 14.5467 704.417 14.6C705.857 14.1733 706.897 13.44 707.537 12.4C708.177 11.36 708.497 10.2667 708.497 9.12C708.497 7.94667 708.297 6.96 707.897 6.16C707.497 5.33333 707.03 4.73333 706.497 4.36C705.403 3.58667 704.59 3.2 704.057 3.2C701.123 3.2 699.23 3.36 698.377 3.68L697.897 4.12C697.817 7.88 697.763 11.4267 697.737 14.76ZM731.433 9.88L730.113 5.52C729.9 4.98667 729.686 4.64 729.473 4.48C728.7 3.78667 727.433 3.44 725.673 3.44C723.94 3.44 722.633 3.74667 721.753 4.36C720.873 4.97333 720.433 6.06667 720.433 7.64C720.433 9.34666 721.14 10.6533 722.553 11.56C722.846 11.7733 723.206 12 723.633 12.24L729.713 15.4C732.913 17.0533 734.513 19.5333 734.513 22.84C734.513 24.2533 734.34 25.3733 733.993 26.2C733.646 27.0267 732.953 28.04 731.913 29.24C730.473 30.8133 728.193 31.6 725.073 31.6C722.593 31.6 719.993 31 717.273 29.8C717.46 27.24 717.553 24.5467 717.553 21.72H719.033L719.593 23.88C719.966 25.32 720.246 26.2533 720.433 26.68C720.646 27.08 721.006 27.48 721.513 27.88C722.873 28.4667 724.366 28.76 725.993 28.76C727.62 28.76 728.82 28.4533 729.593 27.84C730.366 27.2 730.753 26.0533 730.753 24.4C730.753 22.1067 729.526 20.3067 727.073 19L723.833 17.4C722.26 16.5733 721.233 16.0133 720.753 15.72C720.273 15.4267 719.873 15.12 719.553 14.8L719.233 14.44C717.9 13 717.233 11.36 717.233 9.52C717.233 7.65333 717.526 6.17333 718.113 5.08C718.726 3.96 719.926 2.90666 721.713 1.92C722.993 1.22667 724.66 0.879999 726.713 0.879999C728.793 0.879999 730.793 1.38667 732.713 2.4L733.193 2.84C733.193 4.17333 733.073 6.52 732.833 9.88H731.433Z" fill="white"/>
</svg>
