<svg width="22" height="22" viewBox="0 0 22 22" fill="none" xmlns="http://www.w3.org/2000/svg">
<path d="M3.66666 18.3334C3.1625 18.3334 2.73075 18.1537 2.37141 17.7944C2.01208 17.435 1.83272 17.0036 1.83333 16.5V5.50002C1.83333 4.99586 2.013 4.56411 2.37233 4.20477C2.73166 3.84544 3.16311 3.66608 3.66666 3.66669H18.3333C18.8375 3.66669 19.2692 3.84636 19.6286 4.20569C19.9879 4.56502 20.1673 4.99647 20.1667 5.50002V16.5C20.1667 17.0042 19.987 17.4359 19.6277 17.7953C19.2683 18.1546 18.8369 18.334 18.3333 18.3334H3.66666ZM3.66666 16.5H18.3333V7.33336H3.66666V16.5ZM10.0375 15.1709L6.78333 11.9167L8.1125 10.5875L10.0375 12.5125L13.8875 8.66252L15.2167 9.99169L10.0375 15.1709Z" fill="#0081DE"/>
</svg>
