<svg width="260" height="790" viewBox="0 0 260 790" fill="none" xmlns="http://www.w3.org/2000/svg">
<circle opacity="0.2" cx="129.921" cy="42.7515" r="41.5583" fill="#017AD1"/>
<mask id="path-2-inside-1_0_1" fill="white">
<path d="M171.489 43.7662C171.227 54.5313 166.816 64.7789 159.177 72.3685C151.538 79.958 141.262 84.3024 130.495 84.4942C119.729 84.686 109.304 80.7103 101.4 73.3976C93.4954 66.0849 88.7222 56.0009 88.0772 45.2519L92.2447 45.0019C92.8251 54.6759 97.121 63.7516 104.235 70.333C111.349 76.9144 120.731 80.4926 130.421 80.32C140.111 80.1474 149.359 76.2374 156.234 69.4068C163.109 62.5762 167.079 53.3533 167.315 43.6647L171.489 43.7662Z"/>
</mask>
<path d="M171.489 43.7662C171.227 54.5313 166.816 64.7789 159.177 72.3685C151.538 79.958 141.262 84.3024 130.495 84.4942C119.729 84.686 109.304 80.7103 101.4 73.3976C93.4954 66.0849 88.7222 56.0009 88.0772 45.2519L92.2447 45.0019C92.8251 54.6759 97.121 63.7516 104.235 70.333C111.349 76.9144 120.731 80.4926 130.421 80.32C140.111 80.1474 149.359 76.2374 156.234 69.4068C163.109 62.5762 167.079 53.3533 167.315 43.6647L171.489 43.7662Z" stroke="#017AD1" stroke-width="10" stroke-linejoin="round" mask="url(#path-2-inside-1_0_1)"/>
<path d="M143.593 33.6229H117.486C117.14 33.6229 116.808 33.4917 116.563 33.258C116.318 33.0244 116.181 32.7075 116.181 32.3771C116.181 32.0467 116.318 31.7298 116.563 31.4962C116.808 31.2626 117.14 31.1313 117.486 31.1313H139.677C140.023 31.1313 140.355 31.0001 140.6 30.7665C140.844 30.5328 140.982 30.216 140.982 29.8856C140.982 29.5552 140.844 29.2383 140.6 29.0047C140.355 28.771 140.023 28.6398 139.677 28.6398H117.486C116.447 28.6398 115.451 29.0335 114.717 29.7344C113.983 30.4353 113.57 31.3859 113.57 32.3771V52.3097C113.57 53.3009 113.983 54.2515 114.717 54.9524C115.451 55.6532 116.447 56.047 117.486 56.047H143.593C144.285 56.047 144.949 55.7845 145.439 55.3172C145.928 54.85 146.203 54.2162 146.203 53.5554V36.1145C146.203 35.4537 145.928 34.8199 145.439 34.3527C144.949 33.8854 144.285 33.6229 143.593 33.6229ZM137.719 46.0807C137.331 46.0807 136.953 45.9711 136.631 45.7658C136.309 45.5605 136.058 45.2686 135.91 44.9272C135.762 44.5857 135.723 44.21 135.798 43.8475C135.874 43.485 136.06 43.152 136.334 42.8907C136.608 42.6294 136.957 42.4514 137.337 42.3793C137.716 42.3072 138.11 42.3442 138.468 42.4856C138.826 42.6271 139.132 42.8666 139.347 43.1739C139.562 43.4812 139.677 43.8425 139.677 44.2121C139.677 44.7077 139.47 45.183 139.103 45.5334C138.736 45.8839 138.238 46.0807 137.719 46.0807Z" fill="#017AD1"/>
<path d="M169.5 48.5C193.5 55.8333 244.3 85.7 255.5 146.5C261.333 173.5 258.7 236.6 201.5 273" stroke="#017AD1" stroke-width="3"/>
<path d="M169.5 553.5C193.5 560.833 244.3 590.7 255.5 651.5C261.333 678.5 258.7 741.6 201.5 778" stroke="#017AD1" stroke-width="3"/>
<path d="M89.6304 302C65.6304 309.333 14.8304 339.2 3.63037 400C-2.20296 427 0.43037 490.1 57.6304 526.5" stroke="#017AD1" stroke-width="3"/>
<path d="M213.5 287L195.5 255.5L177 286.5L213.5 287Z" fill="#017AD1"/>
<path d="M45.6304 540.5L63.6304 509L82.1304 540L45.6304 540.5Z" fill="#017AD1"/>
<circle opacity="0.2" cx="41.3137" cy="41.3137" r="41.3137" transform="matrix(1 0 0 -1 88.355 336.813)" fill="#017AD1"/>
<mask id="path-10-inside-2_0_1" fill="white">
<path d="M170.991 294.492C170.731 283.79 166.346 273.603 158.752 266.058C151.158 258.513 140.942 254.194 130.239 254.003C119.536 253.813 109.173 257.765 101.315 265.035C93.4572 272.304 88.712 282.329 88.0709 293.015L92.2138 293.263C92.7908 283.646 97.0614 274.624 104.134 268.081C111.206 261.538 120.532 257.981 130.165 258.153C139.798 258.325 148.992 262.211 155.827 269.002C162.661 275.792 166.608 284.961 166.842 294.592L170.991 294.492Z"/>
</mask>
<path d="M170.991 294.492C170.731 283.79 166.346 273.603 158.752 266.058C151.158 258.513 140.942 254.194 130.239 254.003C119.536 253.813 109.173 257.765 101.315 265.035C93.4572 272.304 88.712 282.329 88.0709 293.015L92.2138 293.263C92.7908 283.646 97.0614 274.624 104.134 268.081C111.206 261.538 120.532 257.981 130.165 258.153C139.798 258.325 148.992 262.211 155.827 269.002C162.661 275.792 166.608 284.961 166.842 294.592L170.991 294.492Z" stroke="#017AD1" stroke-width="10" stroke-linejoin="round" mask="url(#path-10-inside-2_0_1)"/>
<path d="M127.374 297.941L124.813 295.38C124.441 295.008 123.99 294.822 123.463 294.822C122.935 294.822 122.485 295.008 122.112 295.38C121.74 295.753 121.554 296.203 121.554 296.73C121.554 297.258 121.74 297.708 122.112 298.08L126.07 302.038C126.443 302.41 126.877 302.596 127.374 302.596C127.871 302.596 128.305 302.41 128.678 302.038L136.547 294.17C136.919 293.797 137.106 293.347 137.106 292.82C137.106 292.292 136.919 291.842 136.547 291.47C136.174 291.097 135.724 290.911 135.197 290.911C134.669 290.911 134.219 291.097 133.846 291.47L127.374 297.941ZM114.43 287.419H144.23V283.695H114.43V287.419ZM114.43 309.766C113.405 309.766 112.528 309.401 111.798 308.671C111.068 307.941 110.703 307.064 110.705 306.041V283.695C110.705 282.671 111.07 281.794 111.8 281.064C112.53 280.334 113.406 279.969 114.43 279.971H144.23C145.254 279.971 146.131 280.336 146.861 281.066C147.591 281.796 147.956 282.672 147.955 283.695V306.041C147.955 307.066 147.59 307.943 146.859 308.673C146.129 309.403 145.253 309.767 144.23 309.766H114.43Z" fill="#017AD1"/>
<circle opacity="0.2" cx="130.171" cy="548" r="41.7999" fill="#017AD1"/>
<mask id="path-13-inside-3_0_1" fill="white">
<path d="M171.98 549.021C171.716 559.848 167.28 570.155 159.596 577.789C151.913 585.423 141.577 589.792 130.748 589.985C119.919 590.178 109.434 586.179 101.484 578.824C93.5331 571.469 88.7322 561.326 88.0835 550.515L92.2752 550.263C92.859 559.994 97.1798 569.122 104.335 575.742C111.491 582.362 120.927 585.96 130.673 585.787C140.419 585.613 149.722 581.681 156.637 574.81C163.552 567.94 167.545 558.663 167.782 548.919L171.98 549.021Z"/>
</mask>
<path d="M171.98 549.021C171.716 559.848 167.28 570.155 159.596 577.789C151.913 585.423 141.577 589.792 130.748 589.985C119.919 590.178 109.434 586.179 101.484 578.824C93.5331 571.469 88.7322 561.326 88.0835 550.515L92.2752 550.263C92.859 559.994 97.1798 569.122 104.335 575.742C111.491 582.362 120.927 585.96 130.673 585.787C140.419 585.613 149.722 581.681 156.637 574.81C163.552 567.94 167.545 558.663 167.782 548.919L171.98 549.021Z" stroke="#017AD1" stroke-width="10" stroke-linejoin="round" mask="url(#path-13-inside-3_0_1)"/>
<path d="M124.639 543.39L115.603 538.514L129.828 530.876L144.052 538.514L135.017 543.39C134.331 542.699 133.541 542.167 132.646 541.793C131.751 541.419 130.812 541.232 129.828 541.232C128.844 541.232 127.904 541.419 127.01 541.793C126.115 542.167 125.325 542.699 124.639 543.39ZM128.039 564.447L113.725 556.766V541.448L122.894 546.41C122.805 546.698 122.745 546.979 122.716 547.253C122.686 547.526 122.671 547.821 122.671 548.136C122.671 549.719 123.163 551.128 124.147 552.365C125.131 553.602 126.428 554.422 128.039 554.825V564.447ZM129.828 551.588C128.844 551.588 128.001 551.251 127.3 550.575C126.598 549.9 126.248 549.087 126.249 548.136C126.249 547.187 126.6 546.374 127.301 545.697C128.003 545.021 128.845 544.683 129.828 544.684C130.812 544.684 131.655 545.023 132.356 545.699C133.057 546.376 133.408 547.188 133.406 548.136C133.406 549.086 133.056 549.899 132.354 550.575C131.653 551.252 130.811 551.59 129.828 551.588ZM131.617 564.447V554.825C133.227 554.422 134.525 553.602 135.509 552.365C136.493 551.128 136.985 549.719 136.985 548.136C136.985 547.82 136.97 547.525 136.94 547.251C136.91 546.977 136.851 546.697 136.761 546.41L145.931 541.448V556.766L131.617 564.447Z" fill="#017AD1"/>
<circle cx="204.5" cy="777.5" r="12.5" fill="#017AD1"/>
</svg>
