<svg width="36" height="36" viewBox="0 0 36 36" fill="none" xmlns="http://www.w3.org/2000/svg">
<circle cx="18" cy="18" r="17" stroke="url(#paint0_linear_213_31)" stroke-width="2"/>
<path d="M21.6666 14.25C21.6666 14.4931 21.5701 14.7263 21.3982 14.8982C21.2263 15.0701 20.9931 15.1666 20.75 15.1666C20.5069 15.1666 20.2737 15.0701 20.1018 14.8982C19.9299 14.7263 19.8333 14.4931 19.8333 14.25C19.8333 14.0069 19.9299 13.7737 20.1018 13.6018C20.2737 13.4299 20.5069 13.3333 20.75 13.3333C20.9931 13.3333 21.2263 13.4299 21.3982 13.6018C21.5701 13.7737 21.6666 14.0069 21.6666 14.25ZM16.1666 14.25C16.1666 14.4931 16.0701 14.7263 15.8982 14.8982C15.7263 15.0701 15.4931 15.1666 15.25 15.1666C15.0069 15.1666 14.7737 15.0701 14.6018 14.8982C14.4299 14.7263 14.3333 14.4931 14.3333 14.25C14.3333 14.0069 14.4299 13.7737 14.6018 13.6018C14.7737 13.4299 15.0069 13.3333 15.25 13.3333C15.4931 13.3333 15.7263 13.4299 15.8982 13.6018C16.0701 13.7737 16.1666 14.0069 16.1666 14.25Z" fill="#0081DE"/>
<path fill-rule="evenodd" clip-rule="evenodd" d="M18 8.52081C17.453 8.52081 16.9284 8.73811 16.5416 9.12491C16.1548 9.5117 15.9375 10.0363 15.9375 10.5833V10.8161C16.3207 10.8125 16.7332 10.8125 17.1796 10.8125H18.8204C19.2668 10.8125 19.6802 10.8125 20.0625 10.8161V10.5833C20.0625 10.0363 19.8452 9.5117 19.4584 9.12491C19.0716 8.73811 18.547 8.52081 18 8.52081ZM21.4375 10.8647V10.5833C21.4375 9.67163 21.0753 8.79729 20.4307 8.15263C19.786 7.50798 18.9117 7.14581 18 7.14581C17.0883 7.14581 16.214 7.50798 15.5693 8.15263C14.9247 8.79729 14.5625 9.67163 14.5625 10.5833V10.8647C14.4387 10.8739 14.3196 10.884 14.2041 10.8968C13.3992 10.9839 12.7255 11.1654 12.1278 11.5751C11.9221 11.716 11.7289 11.8742 11.5503 12.0481C11.0315 12.5541 10.7207 13.1793 10.4778 13.9511C10.2422 14.7019 10.0516 15.6552 9.8114 16.8533L9.79399 16.9404C9.44932 18.6665 9.17707 20.0268 9.09915 21.1103C9.01849 22.2176 9.13032 23.1481 9.65465 23.9556C9.82974 24.2251 10.0342 24.4736 10.2633 24.6981C10.9527 25.371 11.8437 25.6625 12.9446 25.8018C14.0226 25.9375 15.4104 25.9375 17.1704 25.9375H18.8296C20.5905 25.9375 21.9774 25.9375 23.0554 25.8018C24.1563 25.6625 25.0482 25.371 25.7367 24.6981C25.9663 24.4738 26.1704 24.2248 26.3453 23.9556C26.8697 23.149 26.9815 22.2176 26.9017 21.1103C26.8229 20.0268 26.5516 18.6665 26.2051 16.9404L26.1886 16.8533C25.9493 15.6552 25.7577 14.7019 25.5222 13.9511C25.2792 13.1793 24.9685 12.5541 24.4497 12.0481C24.2711 11.8742 24.0778 11.716 23.8722 11.5751C23.2745 11.1654 22.6007 10.9839 21.7959 10.8968C21.6769 10.8841 21.5577 10.8734 21.4384 10.8647H21.4375ZM14.3517 12.2636C13.6669 12.3369 13.2443 12.4771 12.9052 12.7091C12.7644 12.8057 12.6322 12.9143 12.5101 13.0336C12.2158 13.3205 11.9967 13.7073 11.7896 14.3636C11.5787 15.0356 11.4009 15.9156 11.1525 17.1613C10.795 18.947 10.5411 20.223 10.4705 21.2093C10.3999 22.1828 10.5182 22.7612 10.8078 23.2067C10.927 23.3901 11.0672 23.5615 11.224 23.7146C11.6044 24.0858 12.148 24.315 13.1169 24.4378C14.0977 24.5616 15.3994 24.5625 17.2199 24.5625H18.781C20.6015 24.5625 21.9013 24.5616 22.8831 24.4378C23.852 24.315 24.3956 24.0858 24.776 23.7146C24.933 23.5611 25.0726 23.3908 25.1922 23.2067C25.4818 22.7612 25.6001 22.1828 25.5304 21.2084C25.4589 20.2221 25.205 18.947 24.8484 17.1613C24.5991 15.9156 24.4222 15.0346 24.2104 14.3636C24.0042 13.7073 23.7842 13.3205 23.4899 13.0336C23.3681 12.9143 23.2362 12.8057 23.0957 12.7091C22.7566 12.4771 22.3331 12.3378 21.6483 12.2636C20.9489 12.1884 20.0506 12.1875 18.7801 12.1875H17.2208C15.9503 12.1875 15.052 12.1884 14.3517 12.2636Z" fill="#0081DE"/>
<defs>
<linearGradient id="paint0_linear_213_31" x1="18" y1="0" x2="18" y2="36" gradientUnits="userSpaceOnUse">
<stop stop-color="#053C64"/>
<stop offset="0.40625" stop-color="#2A5D82"/>
<stop offset="0.734375" stop-color="#0081DE"/>
</linearGradient>
</defs>
</svg>
