<svg width="36" height="36" viewBox="0 0 36 36" fill="none" xmlns="http://www.w3.org/2000/svg">
<circle cx="18" cy="18" r="17" stroke="url(#paint0_linear_213_30)" stroke-width="2"/>
<g clip-path="url(#clip0_213_30)">
<path d="M16.7667 10.2227C16.7042 10.0891 16.5583 10 16.3958 10H15.6042C15.4417 10 15.2917 10.0891 15.2333 10.2227L14.3708 12.1412C14.2375 12.4381 13.7625 12.4381 13.6292 12.1412L12.7667 10.2227C12.7042 10.0891 12.5583 10 12.3958 10H12C10.8958 10 10 10.7979 10 11.7812V19.5H26V11.7812C26 10.7979 25.1042 10 24 10H19.6042C19.4417 10 19.2917 10.0891 19.2333 10.2227L18.3708 12.1412C18.2375 12.4381 17.7625 12.4381 17.6292 12.1412L16.7667 10.2227ZM10 20.6875V21.875C10 23.185 11.1958 24.25 12.6667 24.25H15.3333V26.625C15.3333 27.935 16.5292 29 18 29C19.4708 29 20.6667 27.935 20.6667 26.625V24.25H23.3333C24.8042 24.25 26 23.185 26 21.875V20.6875H10ZM18 26.0312C18.1768 26.0312 18.3464 26.0938 18.4714 26.2052C18.5964 26.3165 18.6667 26.4675 18.6667 26.625C18.6667 26.7825 18.5964 26.9335 18.4714 27.0448C18.3464 27.1562 18.1768 27.2188 18 27.2188C17.8232 27.2188 17.6536 27.1562 17.5286 27.0448C17.4036 26.9335 17.3333 26.7825 17.3333 26.625C17.3333 26.4675 17.4036 26.3165 17.5286 26.2052C17.6536 26.0938 17.8232 26.0312 18 26.0312Z" fill="#0081DE"/>
</g>
<defs>
<linearGradient id="paint0_linear_213_30" x1="18" y1="0" x2="18" y2="36" gradientUnits="userSpaceOnUse">
<stop stop-color="#053C64"/>
<stop offset="0.40625" stop-color="#2A5D82"/>
<stop offset="0.734375" stop-color="#0081DE"/>
</linearGradient>
<clipPath id="clip0_213_30">
<rect width="16" height="19" fill="white" transform="translate(10 10)"/>
</clipPath>
</defs>
</svg>
