<svg width="36" height="36" viewBox="0 0 36 36" fill="none" xmlns="http://www.w3.org/2000/svg">
<circle cx="18" cy="18" r="17" stroke="url(#paint0_linear_213_28)" stroke-width="2"/>
<g clip-path="url(#clip0_213_28)">
<path d="M23.6291 10.6667H12.6291C10.6032 10.6667 8.9624 12.3075 8.9624 14.3334V21.6667C8.9624 23.6925 10.6032 25.3334 12.6291 25.3334H23.6291C25.6549 25.3334 27.2957 23.6925 27.2957 21.6667V14.3334C27.2957 12.3075 25.6549 10.6667 23.6291 10.6667ZM21.9241 19.6225C21.7041 19.8059 21.4016 19.8792 21.1174 19.8059L10.9332 17.3125C11.2082 16.6434 11.8591 16.1667 12.6291 16.1667H23.6291C24.2432 16.1667 24.7841 16.4784 25.1232 16.9367L21.9241 19.6225ZM12.6291 12.5H23.6291C24.6374 12.5 25.4624 13.325 25.4624 14.3334V14.8375C24.9216 14.5259 24.2982 14.3334 23.6291 14.3334H12.6291C11.9599 14.3334 11.3366 14.5259 10.7957 14.8375V14.3334C10.7957 13.325 11.6207 12.5 12.6291 12.5Z" fill="#0081DE"/>
</g>
<defs>
<linearGradient id="paint0_linear_213_28" x1="18" y1="0" x2="18" y2="36" gradientUnits="userSpaceOnUse">
<stop stop-color="#053C64"/>
<stop offset="0.40625" stop-color="#2A5D82"/>
<stop offset="0.734375" stop-color="#0081DE"/>
</linearGradient>
<clipPath id="clip0_213_28">
<rect width="22" height="22" fill="white" transform="translate(5 7)"/>
</clipPath>
</defs>
</svg>
