<svg width="47" height="47" viewBox="0 0 47 47" fill="none" xmlns="http://www.w3.org/2000/svg">
<circle cx="23.5" cy="23.5" r="22.5" stroke="url(#paint0_linear_217_33)" stroke-width="2"/>
<path d="M24.8375 19.0463L22.115 16.3125H28.4375V20.25H30.125V14.625H22.115L24.8375 11.8912L23.645 10.6875L18.875 15.4688L23.645 20.25L24.8375 19.0463ZM24.5 24.75C23.8325 24.75 23.18 24.9479 22.625 25.3188C22.0699 25.6896 21.6374 26.2167 21.3819 26.8334C21.1265 27.4501 21.0596 28.1287 21.1898 28.7834C21.3201 29.4381 21.6415 30.0395 22.1135 30.5115C22.5855 30.9835 23.1869 31.3049 23.8416 31.4352C24.4963 31.5654 25.1749 31.4985 25.7916 31.2431C26.4083 30.9876 26.9354 30.5551 27.3062 30C27.6771 29.445 27.875 28.7925 27.875 28.125C27.875 27.2299 27.5194 26.3714 26.8865 25.7385C26.2536 25.1056 25.3951 24.75 24.5 24.75ZM14.375 21.375V34.875H34.625V21.375M32.375 30.375C31.7783 30.375 31.206 30.6121 30.784 31.034C30.3621 31.456 30.125 32.0283 30.125 32.625H18.875C18.875 32.0283 18.6379 31.456 18.216 31.034C17.794 30.6121 17.2217 30.375 16.625 30.375V25.875C17.2217 25.875 17.794 25.6379 18.216 25.216C18.6379 24.794 18.875 24.2217 18.875 23.625H30.125C30.125 24.2217 30.3621 24.794 30.784 25.216C31.206 25.6379 31.7783 25.875 32.375 25.875V30.375Z" fill="#004D85"/>
<defs>
<linearGradient id="paint0_linear_217_33" x1="23.5" y1="0" x2="23.5" y2="47" gradientUnits="userSpaceOnUse">
<stop stop-color="#053C64"/>
<stop offset="0.40625" stop-color="#2A5D82"/>
<stop offset="0.734375" stop-color="#0081DE"/>
</linearGradient>
</defs>
</svg>
