<svg width="36" height="36" viewBox="0 0 36 36" fill="none" xmlns="http://www.w3.org/2000/svg">
<circle cx="18" cy="18" r="17" stroke="url(#paint0_linear_213_29)" stroke-width="2"/>
<path d="M10.6667 25.3334C10.1625 25.3334 9.73075 25.1537 9.37141 24.7944C9.01208 24.435 8.83272 24.0036 8.83333 23.5V12.5C8.83333 11.9959 9.013 11.5641 9.37233 11.2048C9.73166 10.8454 10.1631 10.6661 10.6667 10.6667H25.3333C25.8375 10.6667 26.2692 10.8464 26.6286 11.2057C26.9879 11.565 27.1673 11.9965 27.1667 12.5V23.5C27.1667 24.0042 26.987 24.4359 26.6277 24.7953C26.2683 25.1546 25.8369 25.334 25.3333 25.3334H10.6667ZM10.6667 23.5H25.3333V14.3334H10.6667V23.5ZM17.0375 22.1709L13.7833 18.9167L15.1125 17.5875L17.0375 19.5125L20.8875 15.6625L22.2167 16.9917L17.0375 22.1709Z" fill="#0081DE"/>
<defs>
<linearGradient id="paint0_linear_213_29" x1="18" y1="0" x2="18" y2="36" gradientUnits="userSpaceOnUse">
<stop stop-color="#053C64"/>
<stop offset="0.40625" stop-color="#2A5D82"/>
<stop offset="0.734375" stop-color="#0081DE"/>
</linearGradient>
</defs>
</svg>
